solid Mini-CNC - 1
facet normal -0.973876979277356 0.227076263034278 -1.67867014224168e-014
outer loop
vertex 12.0511112605663 24.8882285676537 6.00000000000026
vertex 12.0 24.5 3.51063858049845e-013
vertex 11.9999999999999 24.4999999999999 6.00000000000035
endloop
endfacet
facet normal -0.997858923238602 0.0654031292301727 -1.90679937164223e-014
outer loop
vertex 12.0 24.5 3.51063858049845e-013
vertex 12.0511112605663 24.8882285676537 6.00000000000026
vertex 12.0511112605664 24.8882285676538 2.61888694192315e-013
endloop
endfacet
facet normal -0.923879532511306 0.382683432365044 -1.40569803358298e-014
outer loop
vertex 12.114180701233 25.0740251485476 6.00000000000022
vertex 12.0511112605664 24.8882285676538 2.61888694192315e-013
vertex 12.0511112605663 24.8882285676537 6.00000000000026
endloop
endfacet
facet normal -0.973876979277349 0.227076263034306 -1.67867014224163e-014
outer loop
vertex 12.0511112605664 24.8882285676538 2.61888694192315e-013
vertex 12.114180701233 25.0740251485476 6.00000000000022
vertex 12.114180701233 25.0740251485476 2.22298876692896e-013
endloop
endfacet
facet normal -0.866025403784387 0.50000000000009 -1.1598982734029e-014
outer loop
vertex 12.2009618943233 25.2499999999999 6.00000000000019
vertex 12.114180701233 25.0740251485476 2.22298876692896e-013
vertex 12.114180701233 25.0740251485476 6.00000000000022
endloop
endfacet
facet normal -0.923879532511299 0.38268343236506 -1.40569803358295e-014
outer loop
vertex 12.114180701233 25.0740251485476 2.22298876692896e-013
vertex 12.2009618943233 25.2499999999999 6.00000000000019
vertex 12.2009618943233 25.25 1.86964499613956e-013
endloop
endfacet
facet normal -0.7933533402912 0.608761429008767 -8.94252332180701e-015
outer loop
vertex 12.3099699895631 25.413142143513 6.00000000000016
vertex 12.2009618943233 25.25 1.86964499613956e-013
vertex 12.2009618943233 25.2499999999999 6.00000000000019
endloop
endfacet
facet normal -0.866025403784379 0.500000000000103 -1.15989827340287e-014
outer loop
vertex 12.2009618943233 25.25 1.86964499613956e-013
vertex 12.3099699895631 25.413142143513 6.00000000000016
vertex 12.3099699895632 25.4131421435131 1.56490143943855e-013
endloop
endfacet
facet normal -0.707106781186575 0.70710678118652 -6.13305485621431e-015
outer loop
vertex 12.4393398282201 25.5606601717797 6.00000000000013
vertex 12.3099699895632 25.4131421435131 1.56490143943855e-013
vertex 12.3099699895631 25.413142143513 6.00000000000016
endloop
endfacet
facet normal -0.793353340291192 0.608761429008778 -8.94252332180673e-015
outer loop
vertex 12.3099699895632 25.4131421435131 1.56490143943855e-013
vertex 12.4393398282201 25.5606601717797 6.00000000000013
vertex 12.4393398282202 25.5606601717798 1.31397234357197e-013
endloop
endfacet
facet normal -0.707106781186568 0.707106781186527 -6.13305485621407e-015
outer loop
vertex 12.4393398282202 25.5606601717798 1.31397234357197e-013
vertex 12.5868578564868 25.6900300104368 6.00000000000011
vertex 12.5868578564869 25.6900300104368 1.12115117494079e-013
endloop
endfacet
facet normal -0.608761429008758 0.793353340291206 -3.21864812162587e-015
outer loop
vertex 12.5868578564868 25.6900300104368 6.00000000000011
vertex 12.4393398282202 25.5606601717798 1.31397234357197e-013
vertex 12.4393398282201 25.5606601717797 6.00000000000013
endloop
endfacet
facet normal 0.601735819936867 -0.798695187793758 3.01959941586555e-015
outer loop
vertex 23.0401722358805 15.7815878093798 2.88269688435377e-013
vertex 22.7364405558797 15.6036131150622 6.00000000000027
vertex 22.7364405558798 15.6036131150622 2.69640159054046e-013
endloop
endfacet
facet normal 0.402633223077919 -0.915361397303757 -2.23362616796731e-015
outer loop
vertex 22.7364405558797 15.6036131150622 6.00000000000027
vertex 23.0401722358805 15.7815878093798 2.88269688435377e-013
vertex 23.0401722358805 15.7815878093797 6.00000000000029
endloop
endfacet
facet normal 0.402633223077914 -0.915361397303759 -2.23362616796743e-015
outer loop
vertex 22.7364405558798 15.6036131150622 2.69640159054046e-013
vertex 22.4 15.4999999999999 6.00000000000025
vertex 22.4000000000001 15.5 2.49811572340653e-013
endloop
endfacet
facet normal 0.238606884409207 -0.971116241606808 -6.11068658890154e-015
outer loop
vertex 22.4 15.4999999999999 6.00000000000025
vertex 22.7364405558798 15.6036131150622 2.69640159054046e-013
vertex 22.7364405558797 15.6036131150622 6.00000000000027
endloop
endfacet
facet normal 0.238606884409204 -0.971116241606808 -6.1106865889016e-015
outer loop
vertex 22.4000000000001 15.5 2.49811572340653e-013
vertex 16.9999999999999 14.4999999999999 5.99999999999996
vertex 17.0 14.5 -4.54625165619583e-014
endloop
endfacet
facet normal 0.317772427272288 -0.948167012959995 -4.28369088152209e-015
outer loop
vertex 16.9999999999999 14.4999999999999 5.99999999999996
vertex 22.4000000000001 15.5 2.49811572340653e-013
vertex 22.4 15.4999999999999 6.00000000000025
endloop
endfacet
facet normal 0.317772427272288 -0.948167012959995 -4.28369088152209e-015
outer loop
vertex 16.9999999999999 14.4999999999999 5.99999999999996
vertex 15.0 13.5 1.44044461805234e-014
vertex 17.0 14.5 -4.54625165619583e-014
endloop
endfacet
facet normal 0.44721359549996 -0.894427190999915 -1.11533249363759e-015
outer loop
vertex 15.0 13.5 1.44044461805234e-014
vertex 16.9999999999999 14.4999999999999 5.99999999999996
vertex 15.0 13.4999999999999 6.00000000000002
endloop
endfacet
facet normal -8.99989302941102e-016 1.0 1.11674086297233e-014
outer loop
vertex 15.0 13.4999999999999 6.00000000000002
vertex 24.4000000000001 13.5 2.55589983098785e-013
vertex 15.0 13.5 1.44044461805234e-014
endloop
endfacet
facet normal -8.99989302941102e-016 1.0 1.11674086297233e-014
outer loop
vertex 24.4000000000001 13.5 2.55589983098785e-013
vertex 15.0 13.4999999999999 6.00000000000002
vertex 24.4 13.4999999999999 6.00000000000026
endloop
endfacet
facet normal 1.0 -3.8289091363591e-028 1.98408579861586e-014
outer loop
vertex 24.4000000000001 12.0 2.26642829157432e-013
vertex 24.4 13.4999999999999 6.00000000000026
vertex 24.4 11.9999999999999 6.00000000000023
endloop
endfacet
facet normal 1.0 -3.8289091363591e-028 1.98408579861586e-014
outer loop
vertex 24.4 13.4999999999999 6.00000000000026
vertex 24.4000000000001 12.0 2.26642829157432e-013
vertex 24.4000000000001 13.5 2.55589983098785e-013
endloop
endfacet
facet normal 0.707106781186544 -0.707106781186551 6.13305485621334e-015
outer loop
vertex 24.4000000000001 12.0 2.26642829157432e-013
vertex 22.9 10.4999999999999 6.00000000000014
vertex 22.9 10.5 1.38104635689753e-013
endloop
endfacet
facet normal 0.707106781186544 -0.707106781186551 6.13305485621334e-015
outer loop
vertex 22.9 10.4999999999999 6.00000000000014
vertex 24.4000000000001 12.0 2.26642829157432e-013
vertex 24.4 11.9999999999999 6.00000000000023
endloop
endfacet
facet normal 2.41678755369059e-029 -1.0 -1.11674086297233e-014
outer loop
vertex 22.9 10.5 1.38104635689753e-013
vertex 21.3999999999999 10.4999999999999 6.00000000000014
vertex 21.4 10.5 1.34858420340484e-013
endloop
endfacet
facet normal 2.41678755369059e-029 -1.0 -1.11674086297233e-014
outer loop
vertex 21.3999999999999 10.4999999999999 6.00000000000014
vertex 22.9 10.5 1.38104635689753e-013
vertex 22.9 10.4999999999999 6.00000000000014
endloop
endfacet
facet normal -1.0 2.10800019876675e-027 -1.98408579861586e-014
outer loop
vertex 21.3999999999999 11.9999999999999 6.00000000000029
vertex 21.4 10.5 1.34858420340484e-013
vertex 21.3999999999999 10.4999999999999 6.00000000000014
endloop
endfacet
facet normal -1.0 2.10800019876675e-027 -1.98408579861586e-014
outer loop
vertex 21.4 10.5 1.34858420340484e-013
vertex 21.3999999999999 11.9999999999999 6.00000000000029
vertex 21.4 12.0 2.94226543450685e-013
endloop
endfacet
facet normal -7.20916814053439e-029 -1.0 -1.11674086297233e-014
outer loop
vertex 21.3999999999999 11.9999999999999 6.00000000000029
vertex 15.0 12.0 3.35542015669206e-013
vertex 21.4 12.0 2.94226543450685e-013
endloop
endfacet
facet normal -7.20916814053439e-029 -1.0 -1.11674086297233e-014
outer loop
vertex 15.0 12.0 3.35542015669206e-013
vertex 21.3999999999999 11.9999999999999 6.00000000000029
vertex 15.0 11.9999999999999 6.00000000000034
endloop
endfacet
facet normal 1.0 -2.31293380299643e-027 1.98408579861586e-014
outer loop
vertex 15.0 8.00000000000001 -1.30755118176514e-013
vertex 15.0 11.9999999999999 6.00000000000034
vertex 15.0 7.99999999999994 5.99999999999987
endloop
endfacet
facet normal 1.0 -2.31293380299643e-027 1.98408579861586e-014
outer loop
vertex 15.0 11.9999999999999 6.00000000000034
vertex 15.0 8.00000000000001 -1.30755118176514e-013
vertex 15.0 12.0 3.35542015669206e-013
endloop
endfacet
facet normal -2.819966482548e-015 -1.0 -1.11674086297234e-014
outer loop
vertex 15.0 7.99999999999994 5.99999999999987
vertex 13.5 8.00000000000001 -1.12416882408459e-013
vertex 15.0 8.00000000000001 -1.30755118176514e-013
endloop
endfacet
facet normal -0.0654031292301269 -0.997858923238605 -1.24411525495266e-014
outer loop
vertex 13.5 8.00000000000001 -1.12416882408459e-013
vertex 15.0 7.99999999999994 5.99999999999987
vertex 13.4999999999999 7.99999999999995 5.99999999999989
endloop
endfacet
facet normal -0.0654031292301556 -0.997858923238603 -1.24411525495271e-014
outer loop
vertex 13.4999999999999 7.99999999999995 5.99999999999989
vertex 13.1117714323462 8.05111126056641 1.42097890345551e-013
vertex 13.5 8.00000000000001 -1.12416882408459e-013
endloop
endfacet
facet normal -0.227076263034353 -0.973876979277338 -1.53810700695628e-014
outer loop
vertex 13.1117714323462 8.05111126056641 1.42097890345551e-013
vertex 13.4999999999999 7.99999999999995 5.99999999999989
vertex 13.1117714323461 8.05111126056634 6.00000000000014
endloop
endfacet
facet normal -0.227076263034424 -0.973876979277322 -1.53810700695641e-014
outer loop
vertex 13.1117714323461 8.05111126056634 6.00000000000014
vertex 12.9259748514524 8.11418070123309 2.35897016382763e-013
vertex 13.1117714323462 8.05111126056641 1.42097890345551e-013
endloop
endfacet
facet normal -0.382683432365079 -0.923879532511291 -1.79101078994026e-014
outer loop
vertex 12.9259748514524 8.11418070123309 2.35897016382763e-013
vertex 13.1117714323461 8.05111126056634 6.00000000000014
vertex 12.9259748514523 8.11418070123302 6.00000000000024
endloop
endfacet
facet normal -0.382683432365112 -0.923879532511278 -1.79101078994031e-014
outer loop
vertex 12.9259748514523 8.11418070123302 6.00000000000024
vertex 12.75 8.20096189432336 3.05119713881709e-013
vertex 12.9259748514524 8.11418070123309 2.35897016382763e-013
endloop
endfacet
facet normal -0.499999999999968 -0.866025403784457 -1.95916885608608e-014
outer loop
vertex 12.75 8.20096189432336 3.05119713881709e-013
vertex 12.9259748514523 8.11418070123302 6.00000000000024
vertex 12.7499999999999 8.20096189432329 6.00000000000031
endloop
endfacet
facet normal -0.499999999999989 -0.866025403784445 -1.95916885608611e-014
outer loop
vertex 12.7499999999999 8.20096189432329 6.00000000000031
vertex 12.5868578564869 8.30996998956316 3.48581563296026e-013
vertex 12.75 8.20096189432336 3.05119713881709e-013
endloop
endfacet
facet normal -0.608761429008756 -0.793353340291208 -2.09380499992016e-014
outer loop
vertex 12.5868578564869 8.30996998956316 3.48581563296026e-013
vertex 12.7499999999999 8.20096189432329 6.00000000000031
vertex 12.5868578564868 8.3099699895631 6.00000000000035
endloop
endfacet
facet normal -0.608761429008767 -0.7933533402912 -2.09380499992017e-014
outer loop
vertex 12.5868578564868 8.3099699895631 6.00000000000035
vertex 12.4393398282202 8.43933982822019 3.65538920332331e-013
vertex 12.5868578564869 8.30996998956316 3.48581563296026e-013
endloop
endfacet
facet normal -0.707106781186575 -0.70710678118652 -2.19261555969308e-014
outer loop
vertex 12.4393398282202 8.43933982822019 3.65538920332331e-013
vertex 12.5868578564868 8.3099699895631 6.00000000000035
vertex 12.4393398282201 8.43933982822013 6.00000000000037
endloop
endfacet
facet normal -0.79335334029119 -0.60876142900878 -2.25390985933174e-014
outer loop
vertex 12.3099699895631 8.58685785648687 6.00000000000036
vertex 12.4393398282202 8.43933982822019 3.65538920332331e-013
vertex 12.4393398282201 8.43933982822013 6.00000000000037
endloop
endfacet
facet normal -0.707106781186575 -0.70710678118652 -2.19261555969308e-014
outer loop
vertex 12.4393398282202 8.43933982822019 3.65538920332331e-013
vertex 12.3099699895631 8.58685785648687 6.00000000000036
vertex 12.3099699895632 8.58685785648693 3.55701639910267e-013
endloop
endfacet
facet normal -0.866025403784377 -0.500000000000106 -2.27663913637543e-014
outer loop
vertex 12.2009618943233 8.74999999999995 6.00000000000032
vertex 12.3099699895632 8.58685785648693 3.55701639910267e-013
vertex 12.3099699895631 8.58685785648687 6.00000000000036
endloop
endfacet
facet normal -0.793353340291196 -0.608761429008772 -2.25390985933174e-014
outer loop
vertex 12.3099699895632 8.58685785648693 3.55701639910267e-013
vertex 12.2009618943233 8.74999999999995 6.00000000000032
vertex 12.2009618943233 8.75000000000002 3.19238040625264e-013
endloop
endfacet
facet normal -0.923879532511296 -0.382683432365067 -2.2604144865921e-014
outer loop
vertex 12.114180701233 8.92597485145232 6.00000000000026
vertex 12.2009618943233 8.75000000000002 3.19238040625264e-013
vertex 12.2009618943233 8.74999999999995 6.00000000000032
endloop
endfacet
facet normal -0.866025403784388 -0.500000000000088 -2.27663913637543e-014
outer loop
vertex 12.2009618943233 8.75000000000002 3.19238040625264e-013
vertex 12.114180701233 8.92597485145232 6.00000000000026
vertex 12.114180701233 8.92597485145238 2.56772024770709e-013
endloop
endfacet
facet normal -0.973876979277345 -0.227076263034326 -2.18584082612458e-014
outer loop
vertex 12.0511112605663 9.11177143234617 6.00000000000017
vertex 12.114180701233 8.92597485145238 2.56772024770709e-013
vertex 12.114180701233 8.92597485145232 6.00000000000026
endloop
endfacet
facet normal -0.923879532511309 -0.382683432365037 -2.26041448659209e-014
outer loop
vertex 12.114180701233 8.92597485145238 2.56772024770709e-013
vertex 12.0511112605663 9.11177143234617 6.00000000000017
vertex 12.0511112605664 9.11177143234624 1.69372403196724e-013
endloop
endfacet
facet normal -0.997858923238601 -0.0654031292301806 -2.05287606559742e-014
outer loop
vertex 11.9999999999999 9.49999999999995 5.99999999999993
vertex 12.0511112605664 9.11177143234624 1.69372403196724e-013
vertex 12.0511112605663 9.11177143234617 6.00000000000017
endloop
endfacet
facet normal -0.97387697927736 -0.22707626303426 -2.18584082612453e-014
outer loop
vertex 12.0511112605664 9.11177143234624 1.69372403196724e-013
vertex 11.9999999999999 9.49999999999995 5.99999999999993
vertex 12.0 9.50000000000002 -7.38448964272096e-014
endloop
endfacet
facet normal -0.997858923238602 0.0654031292301634 -1.90679937164224e-014
outer loop
vertex 11.9999999999999 24.4999999999999 6.00000000000035
vertex 12.0 9.50000000000002 -7.38448964272096e-014
vertex 11.9999999999999 9.49999999999995 5.99999999999993
endloop
endfacet
facet normal -0.997858923238603 -0.0654031292301551 -2.0528760655974e-014
outer loop
vertex 12.0 9.50000000000002 -7.38448964272096e-014
vertex 11.9999999999999 24.4999999999999 6.00000000000035
vertex 12.0 24.5 3.51063858049845e-013
endloop
endfacet
facet normal -1.98408579861586e-014 -1.11674086297233e-014 1.0
outer loop
vertex 22.9 10.4999999999999 6.00000000000014
vertex 21.3999999999999 11.9999999999999 6.00000000000029
vertex 21.3999999999999 10.4999999999999 6.00000000000014
endloop
endfacet
facet normal -1.98408579861586e-014 -1.11674086297233e-014 1.0
outer loop
vertex 21.3999999999999 11.9999999999999 6.00000000000029
vertex 15.0 13.4999999999999 6.00000000000002
vertex 15.0 11.9999999999999 6.00000000000034
endloop
endfacet
facet normal -1.98408579861586e-014 -1.11674086297233e-014 1.0
outer loop
vertex 15.0 13.4999999999999 6.00000000000002
vertex 21.3999999999999 11.9999999999999 6.00000000000029
vertex 24.4 13.4999999999999 6.00000000000026
endloop
endfacet
facet normal -1.98408579861586e-014 -1.11674086297233e-014 1.0
outer loop
vertex 24.4 13.4999999999999 6.00000000000026
vertex 21.3999999999999 11.9999999999999 6.00000000000029
vertex 22.9 10.4999999999999 6.00000000000014
endloop
endfacet
facet normal -1.98408579861586e-014 -1.11674086297233e-014 1.0
outer loop
vertex 24.4 13.4999999999999 6.00000000000026
vertex 22.9 10.4999999999999 6.00000000000014
vertex 24.4 11.9999999999999 6.00000000000023
endloop
endfacet
facet normal -1.98408579861586e-014 -1.11674086297233e-014 1.0
outer loop
vertex 16.9999999999999 14.4999999999999 5.99999999999996
vertex 15.0 20.4999999999999 6.00000000000004
vertex 15.0 13.4999999999999 6.00000000000002
endloop
endfacet
facet normal -1.98408579861586e-014 -1.11674086297233e-014 1.0
outer loop
vertex 15.0 20.4999999999999 6.00000000000004
vertex 16.9999999999999 14.4999999999999 5.99999999999996
vertex 16.9999999999999 19.4999999999999 5.99999999999998
endloop
endfacet
facet normal -1.98408579861586e-014 -1.11674086297233e-014 1.0
outer loop
vertex 16.9999999999999 19.4999999999999 5.99999999999998
vertex 16.9999999999999 14.4999999999999 5.99999999999996
vertex 22.4 15.4999999999999 6.00000000000025
endloop
endfacet
facet normal -1.98408579861586e-014 -1.11674086297233e-014 1.0
outer loop
vertex 16.9999999999999 19.4999999999999 5.99999999999998
vertex 22.4 15.4999999999999 6.00000000000025
vertex 22.4 18.4999999999999 6.00000000000028
endloop
endfacet
facet normal -1.98408579861586e-014 -1.11674086297233e-014 1.0
outer loop
vertex 22.4 18.4999999999999 6.00000000000028
vertex 22.4 15.4999999999999 6.00000000000025
vertex 22.7364405558797 15.6036131150622 6.00000000000027
endloop
endfacet
facet normal -1.98408579861586e-014 -1.11674086297233e-014 1.0
outer loop
vertex 22.4 18.4999999999999 6.00000000000028
vertex 22.7364405558797 15.6036131150622 6.00000000000027
vertex 22.7364405558797 18.3963868849377 6.00000000000029
endloop
endfacet
facet normal -1.98408579861586e-014 -1.11674086297233e-014 1.0
outer loop
vertex 22.7364405558797 18.3963868849377 6.00000000000029
vertex 22.7364405558797 15.6036131150622 6.00000000000027
vertex 23.0401722358805 15.7815878093797 6.00000000000029
endloop
endfacet
facet normal -1.98408579861586e-014 -1.11674086297233e-014 1.0
outer loop
vertex 22.7364405558797 18.3963868849377 6.00000000000029
vertex 23.0401722358805 15.7815878093797 6.00000000000029
vertex 23.0401722358805 18.2184121906202 6.00000000000031
endloop
endfacet
facet normal -1.98408579861586e-014 -1.11674086297233e-014 1.0
outer loop
vertex 23.0401722358805 18.2184121906202 6.00000000000031
vertex 23.0401722358805 15.7815878093797 6.00000000000029
vertex 23.2950204628574 16.0244464235161 6.00000000000031
endloop
endfacet
facet normal -1.98408579861586e-014 -1.11674086297233e-014 1.0
outer loop
vertex 23.0401722358805 18.2184121906202 6.00000000000031
vertex 23.2950204628574 16.0244464235161 6.00000000000031
vertex 23.2950204628574 17.9755535764837 6.00000000000032
endloop
endfacet
facet normal -1.98408579861586e-014 -1.11674086297233e-014 1.0
outer loop
vertex 23.2950204628574 17.9755535764837 6.00000000000032
vertex 23.2950204628574 16.0244464235161 6.00000000000031
vertex 23.4874138427842 16.3192560444817 6.00000000000032
endloop
endfacet
facet normal -1.98408579861586e-014 -1.11674086297233e-014 1.0
outer loop
vertex 23.2950204628574 17.9755535764837 6.00000000000032
vertex 23.4874138427842 16.3192560444817 6.00000000000032
vertex 23.4874138427842 17.6807439555182 6.00000000000033
endloop
endfacet
facet normal -1.98408579861586e-014 -1.11674086297233e-014 1.0
outer loop
vertex 23.4874138427842 17.6807439555182 6.00000000000033
vertex 23.4874138427842 16.3192560444817 6.00000000000032
vertex 23.607106880144 16.6503172201896 6.00000000000033
endloop
endfacet
facet normal -1.98408579861586e-014 -1.11674086297233e-014 1.0
outer loop
vertex 23.4874138427842 17.6807439555182 6.00000000000033
vertex 23.607106880144 16.6503172201896 6.00000000000033
vertex 23.607106880144 17.3496827798103 6.00000000000033
endloop
endfacet
facet normal -1.98408579861586e-014 -1.11674086297233e-014 1.0
outer loop
vertex 23.607106880144 17.3496827798103 6.00000000000033
vertex 23.607106880144 16.6503172201896 6.00000000000033
vertex 23.6477255797496 16.9999999999999 6.00000000000033
endloop
endfacet
facet normal -1.98408579861586e-014 -1.11674086297233e-014 1.0
outer loop
vertex 24.4 20.4999999999999 6.00000000000028
vertex 15.0 21.9999999999999 6.00000000000033
vertex 15.0 20.4999999999999 6.00000000000004
endloop
endfacet
facet normal -1.98408579861586e-014 -1.11674086297233e-014 1.0
outer loop
vertex 15.0 21.9999999999999 6.00000000000033
vertex 24.4 20.4999999999999 6.00000000000028
vertex 21.3999999999999 21.9999999999999 6.00000000000029
endloop
endfacet
facet normal -1.98408579861586e-014 -1.11674086297233e-014 1.0
outer loop
vertex 21.3999999999999 21.9999999999999 6.00000000000029
vertex 24.4 20.4999999999999 6.00000000000028
vertex 21.3999999999999 23.4999999999999 6.0000000000003
endloop
endfacet
facet normal -1.98408579861586e-014 -1.11674086297233e-014 1.0
outer loop
vertex 21.3999999999999 23.4999999999999 6.0000000000003
vertex 24.4 20.4999999999999 6.00000000000028
vertex 22.9 23.4999999999999 6.00000000000029
endloop
endfacet
facet normal -1.98408579861586e-014 -1.11674086297233e-014 1.0
outer loop
vertex 22.9 23.4999999999999 6.00000000000029
vertex 24.4 20.4999999999999 6.00000000000028
vertex 24.4 21.9999999999999 6.0000000000003
endloop
endfacet
facet normal -1.98408579861586e-014 -1.11674086297233e-014 1.0
outer loop
vertex 12.0511112605663 9.11177143234617 6.00000000000017
vertex 11.9999999999999 24.4999999999999 6.00000000000035
vertex 11.9999999999999 9.49999999999995 5.99999999999993
endloop
endfacet
facet normal -1.98408579861586e-014 -1.11674086297233e-014 1.0
outer loop
vertex 11.9999999999999 24.4999999999999 6.00000000000035
vertex 12.0511112605663 9.11177143234617 6.00000000000017
vertex 12.0511112605663 24.8882285676537 6.00000000000026
endloop
endfacet
facet normal -1.98408579861586e-014 -1.11674086297233e-014 1.0
outer loop
vertex 12.0511112605663 24.8882285676537 6.00000000000026
vertex 12.0511112605663 9.11177143234617 6.00000000000017
vertex 12.114180701233 8.92597485145232 6.00000000000026
endloop
endfacet
facet normal -1.98408579861586e-014 -1.11674086297233e-014 1.0
outer loop
vertex 12.0511112605663 24.8882285676537 6.00000000000026
vertex 12.114180701233 8.92597485145232 6.00000000000026
vertex 12.114180701233 25.0740251485476 6.00000000000022
endloop
endfacet
facet normal -1.98408579861586e-014 -1.11674086297233e-014 1.0
outer loop
vertex 12.114180701233 25.0740251485476 6.00000000000022
vertex 12.114180701233 8.92597485145232 6.00000000000026
vertex 12.2009618943233 8.74999999999995 6.00000000000032
endloop
endfacet
facet normal -1.98408579861586e-014 -1.11674086297233e-014 1.0
outer loop
vertex 12.114180701233 25.0740251485476 6.00000000000022
vertex 12.2009618943233 8.74999999999995 6.00000000000032
vertex 12.2009618943233 25.2499999999999 6.00000000000019
endloop
endfacet
facet normal -1.98408579861586e-014 -1.11674086297233e-014 1.0
outer loop
vertex 12.2009618943233 25.2499999999999 6.00000000000019
vertex 12.2009618943233 8.74999999999995 6.00000000000032
vertex 12.3099699895631 8.58685785648687 6.00000000000036
endloop
endfacet
facet normal -1.98408579861586e-014 -1.11674086297233e-014 1.0
outer loop
vertex 12.2009618943233 25.2499999999999 6.00000000000019
vertex 12.3099699895631 8.58685785648687 6.00000000000036
vertex 12.3099699895631 25.413142143513 6.00000000000016
endloop
endfacet
facet normal -1.98408579861586e-014 -1.11674086297233e-014 1.0
outer loop
vertex 12.3099699895631 25.413142143513 6.00000000000016
vertex 12.3099699895631 8.58685785648687 6.00000000000036
vertex 12.4393398282201 8.43933982822013 6.00000000000037
endloop
endfacet
facet normal -1.98408579861586e-014 -1.11674086297233e-014 1.0
outer loop
vertex 12.3099699895631 25.413142143513 6.00000000000016
vertex 12.4393398282201 8.43933982822013 6.00000000000037
vertex 12.4393398282201 25.5606601717797 6.00000000000013
endloop
endfacet
facet normal -1.98408579861586e-014 -1.11674086297233e-014 1.0
outer loop
vertex 12.4393398282201 25.5606601717797 6.00000000000013
vertex 12.4393398282201 8.43933982822013 6.00000000000037
vertex 12.5868578564868 8.3099699895631 6.00000000000035
endloop
endfacet
facet normal -1.98408579861586e-014 -1.11674086297233e-014 1.0
outer loop
vertex 12.4393398282201 25.5606601717797 6.00000000000013
vertex 12.5868578564868 8.3099699895631 6.00000000000035
vertex 12.5868578564868 25.6900300104368 6.00000000000011
endloop
endfacet
facet normal -1.98408579861586e-014 -1.11674086297233e-014 1.0
outer loop
vertex 12.5868578564868 25.6900300104368 6.00000000000011
vertex 12.5868578564868 8.3099699895631 6.00000000000035
vertex 12.7499999999999 8.20096189432329 6.00000000000031
endloop
endfacet
facet normal -1.98408579861586e-014 -1.11674086297233e-014 1.0
outer loop
vertex 12.5868578564868 25.6900300104368 6.00000000000011
vertex 12.7499999999999 8.20096189432329 6.00000000000031
vertex 12.7499999999999 25.7990381056766 6.0000000000001
endloop
endfacet
facet normal -1.98408579861586e-014 -1.11674086297233e-014 1.0
outer loop
vertex 12.7499999999999 25.7990381056766 6.0000000000001
vertex 12.7499999999999 8.20096189432329 6.00000000000031
vertex 12.9259748514523 8.11418070123302 6.00000000000024
endloop
endfacet
facet normal -1.98408579861586e-014 -1.11674086297233e-014 1.0
outer loop
vertex 12.7499999999999 25.7990381056766 6.0000000000001
vertex 12.9259748514523 8.11418070123302 6.00000000000024
vertex 12.9259748514523 25.8858192987669 6.00000000000009
endloop
endfacet
facet normal -1.98408579861586e-014 -1.11674086297233e-014 1.0
outer loop
vertex 12.9259748514523 25.8858192987669 6.00000000000009
vertex 12.9259748514523 8.11418070123302 6.00000000000024
vertex 13.1117714323461 8.05111126056634 6.00000000000014
endloop
endfacet
facet normal -1.98408579861586e-014 -1.11674086297233e-014 1.0
outer loop
vertex 12.9259748514523 25.8858192987669 6.00000000000009
vertex 13.1117714323461 8.05111126056634 6.00000000000014
vertex 13.1117714323461 25.9488887394335 6.00000000000009
endloop
endfacet
facet normal -1.98408579861586e-014 -1.11674086297233e-014 1.0
outer loop
vertex 13.1117714323461 25.9488887394335 6.00000000000009
vertex 13.1117714323461 8.05111126056634 6.00000000000014
vertex 13.4999999999999 7.99999999999995 5.99999999999989
endloop
endfacet
facet normal -1.98408579861586e-014 -1.11674086297233e-014 1.0
outer loop
vertex 13.1117714323461 25.9488887394335 6.00000000000009
vertex 13.4999999999999 7.99999999999995 5.99999999999989
vertex 13.4999999999999 25.9999999999999 6.00000000000011
endloop
endfacet
facet normal -1.98408579861586e-014 -1.11674086297233e-014 1.0
outer loop
vertex 13.4999999999999 25.9999999999999 6.00000000000011
vertex 13.4999999999999 7.99999999999995 5.99999999999989
vertex 15.0 7.99999999999994 5.99999999999987
endloop
endfacet
facet normal -1.98408579861586e-014 -1.11674086297233e-014 1.0
outer loop
vertex 13.4999999999999 25.9999999999999 6.00000000000011
vertex 15.0 7.99999999999994 5.99999999999987
vertex 15.0 25.9999999999999 6.00000000000012
endloop
endfacet
facet normal -1.98408579861586e-014 -1.11674086297233e-014 1.0
outer loop
vertex 15.0 25.9999999999999 6.00000000000012
vertex 15.0 7.99999999999994 5.99999999999987
vertex 15.0 11.9999999999999 6.00000000000034
endloop
endfacet
facet normal -1.98408579861586e-014 -1.11674086297233e-014 1.0
outer loop
vertex 15.0 25.9999999999999 6.00000000000012
vertex 15.0 11.9999999999999 6.00000000000034
vertex 15.0 13.4999999999999 6.00000000000002
endloop
endfacet
facet normal -1.98408579861586e-014 -1.11674086297233e-014 1.0
outer loop
vertex 15.0 25.9999999999999 6.00000000000012
vertex 15.0 13.4999999999999 6.00000000000002
vertex 15.0 20.4999999999999 6.00000000000004
endloop
endfacet
facet normal -1.98408579861586e-014 -1.11674086297233e-014 1.0
outer loop
vertex 15.0 25.9999999999999 6.00000000000012
vertex 15.0 20.4999999999999 6.00000000000004
vertex 15.0 21.9999999999999 6.00000000000033
endloop
endfacet
facet normal -0.608761429008752 0.793353340291212 -3.21864812162568e-015
outer loop
vertex 12.5868578564869 25.6900300104368 1.12115117494079e-013
vertex 12.7499999999999 25.7990381056766 6.0000000000001
vertex 12.75 25.7990381056766 9.89737157200397e-014
endloop
endfacet
facet normal -0.499999999999984 0.866025403784448 -2.49169425296879e-016
outer loop
vertex 12.7499999999999 25.7990381056766 6.0000000000001
vertex 12.5868578564869 25.6900300104368 1.12115117494079e-013
vertex 12.5868578564868 25.6900300104368 6.00000000000011
endloop
endfacet
facet normal -0.499999999999979 0.866025403784451 -2.49169425296746e-016
outer loop
vertex 12.75 25.7990381056766 9.89737157200397e-014
vertex 12.9259748514523 25.8858192987669 6.00000000000009
vertex 12.9259748514524 25.8858192987669 9.21978820629194e-014
endloop
endfacet
facet normal -0.3826834323651 0.923879532511283 2.7245726289796e-015
outer loop
vertex 12.9259748514523 25.8858192987669 6.00000000000009
vertex 12.75 25.7990381056766 9.89737157200397e-014
vertex 12.7499999999999 25.7990381056766 6.0000000000001
endloop
endfacet
facet normal -0.382683432365097 0.923879532511284 2.72457262897967e-015
outer loop
vertex 12.9259748514524 25.8858192987669 9.21978820629194e-014
vertex 13.1117714323461 25.9488887394335 6.00000000000009
vertex 13.1117714323462 25.9488887394336 9.19035529152069e-014
endloop
endfacet
facet normal -0.227076263034385 0.973876979277331 6.37029429577775e-015
outer loop
vertex 13.1117714323461 25.9488887394335 6.00000000000009
vertex 12.9259748514524 25.8858192987669 9.21978820629194e-014
vertex 12.9259748514523 25.8858192987669 6.00000000000009
endloop
endfacet
facet normal -0.227076263034385 0.973876979277331 6.37029429577775e-015
outer loop
vertex 13.1117714323461 25.9488887394335 6.00000000000009
vertex 13.5 26.0 1.10668565853852e-013
vertex 13.1117714323462 25.9488887394336 9.19035529152069e-014
endloop
endfacet
facet normal -0.0654031292301367 0.997858923238604 9.84584415171571e-015
outer loop
vertex 13.5 26.0 1.10668565853852e-013
vertex 13.1117714323461 25.9488887394335 6.00000000000009
vertex 13.4999999999999 25.9999999999999 6.00000000000011
endloop
endfacet
facet normal -0.0654031292301358 0.997858923238604 9.84584415171573e-015
outer loop
vertex 13.4999999999999 25.9999999999999 6.00000000000011
vertex 15.0 26.0 1.1983768373788e-013
vertex 13.5 26.0 1.10668565853852e-013
endloop
endfacet
facet normal -6.82635241233658e-029 1.0 1.11674086297233e-014
outer loop
vertex 15.0 26.0 1.1983768373788e-013
vertex 13.4999999999999 25.9999999999999 6.00000000000011
vertex 15.0 25.9999999999999 6.00000000000012
endloop
endfacet
facet normal 1.0 1.05086879481894e-027 1.98408579861586e-014
outer loop
vertex 15.0 22.0 3.31697230447412e-013
vertex 15.0 25.9999999999999 6.00000000000012
vertex 15.0 21.9999999999999 6.00000000000033
endloop
endfacet
facet normal 1.0 1.05086879481894e-027 1.98408579861586e-014
outer loop
vertex 15.0 25.9999999999999 6.00000000000012
vertex 15.0 22.0 3.31697230447412e-013
vertex 15.0 26.0 1.1983768373788e-013
endloop
endfacet
facet normal 7.20916814053439e-029 1.0 1.11674086297233e-014
outer loop
vertex 15.0 22.0 3.31697230447412e-013
vertex 21.3999999999999 21.9999999999999 6.00000000000029
vertex 21.4 22.0 2.90381758228892e-013
endloop
endfacet
facet normal 7.20916814053439e-029 1.0 1.11674086297233e-014
outer loop
vertex 21.3999999999999 21.9999999999999 6.00000000000029
vertex 15.0 22.0 3.31697230447412e-013
vertex 15.0 21.9999999999999 6.00000000000033
endloop
endfacet
facet normal -1.0 6.49191842064634e-029 -1.98408579861586e-014
outer loop
vertex 21.3999999999999 23.4999999999999 6.0000000000003
vertex 21.4 22.0 2.90381758228892e-013
vertex 21.3999999999999 21.9999999999999 6.00000000000029
endloop
endfacet
facet normal -1.0 6.49191842064634e-029 -1.98408579861586e-014
outer loop
vertex 21.4 22.0 2.90381758228892e-013
vertex 21.3999999999999 23.4999999999999 6.0000000000003
vertex 21.4 23.5 2.95289750432537e-013
endloop
endfacet
facet normal 2.38659397049832e-029 1.0 1.11674086297233e-014
outer loop
vertex 21.4 23.5 2.95289750432537e-013
vertex 22.9 23.4999999999999 6.00000000000029
vertex 22.9 23.5 2.92084090933144e-013
endloop
endfacet
facet normal 2.38659397049832e-029 1.0 1.11674086297233e-014
outer loop
vertex 22.9 23.4999999999999 6.00000000000029
vertex 21.4 23.5 2.95289750432537e-013
vertex 21.3999999999999 23.4999999999999 6.0000000000003
endloop
endfacet
facet normal 0.707106781186543 0.707106781186552 2.19261555969305e-014
outer loop
vertex 22.9 23.4999999999999 6.00000000000029
vertex 24.4000000000001 22.0 3.03469737438612e-013
vertex 22.9 23.5 2.92084090933144e-013
endloop
endfacet
facet normal 0.707106781186543 0.707106781186552 2.19261555969305e-014
outer loop
vertex 24.4000000000001 22.0 3.03469737438612e-013
vertex 22.9 23.4999999999999 6.00000000000029
vertex 24.4 21.9999999999999 6.0000000000003
endloop
endfacet
facet normal 1.0 -2.90858003754964e-028 1.98408579861586e-014
outer loop
vertex 24.4000000000001 20.5 2.81480415911447e-013
vertex 24.4 21.9999999999999 6.0000000000003
vertex 24.4 20.4999999999999 6.00000000000028
endloop
endfacet
facet normal 1.0 -2.90858003754964e-028 1.98408579861586e-014
outer loop
vertex 24.4 21.9999999999999 6.0000000000003
vertex 24.4000000000001 20.5 2.81480415911447e-013
vertex 24.4000000000001 22.0 3.03469737438612e-013
endloop
endfacet
facet normal -8.99989302940529e-016 -1.0 -1.11674086297234e-014
outer loop
vertex 24.4000000000001 20.5 2.81480415911447e-013
vertex 15.0 20.4999999999999 6.00000000000004
vertex 15.0 20.5 4.02948789931855e-014
endloop
endfacet
facet normal -8.99989302940529e-016 -1.0 -1.11674086297234e-014
outer loop
vertex 15.0 20.4999999999999 6.00000000000004
vertex 24.4000000000001 20.5 2.81480415911447e-013
vertex 24.4 20.4999999999999 6.00000000000028
endloop
endfacet
facet normal 0.44721359549996 0.894427190999915 1.88615353692257e-014
outer loop
vertex 15.0 20.5 4.02948789931855e-014
vertex 16.9999999999999 19.4999999999999 5.99999999999998
vertex 17.0 19.5 -1.95720837492963e-014
endloop
endfacet
facet normal 0.317772427272287 0.948167012959995 1.68934460843748e-014
outer loop
vertex 16.9999999999999 19.4999999999999 5.99999999999998
vertex 15.0 20.5 4.02948789931855e-014
vertex 15.0 20.4999999999999 6.00000000000004
endloop
endfacet
facet normal 0.317772427272287 0.948167012959995 1.68934460843748e-014
outer loop
vertex 16.9999999999999 19.4999999999999 5.99999999999998
vertex 22.4000000000001 18.5 2.75702005153315e-013
vertex 17.0 19.5 -1.95720837492963e-014
endloop
endfacet
facet normal 0.238606884409204 0.971116241606808 1.55790172050671e-014
outer loop
vertex 22.4000000000001 18.5 2.75702005153315e-013
vertex 16.9999999999999 19.4999999999999 5.99999999999998
vertex 22.4 18.4999999999999 6.00000000000028
endloop
endfacet
facet normal 0.238606884409207 0.971116241606807 1.55790172050672e-014
outer loop
vertex 22.4 18.4999999999999 6.00000000000028
vertex 22.7364405558798 18.3963868849378 2.93742199604024e-013
vertex 22.4000000000001 18.5 2.75702005153315e-013
endloop
endfacet
facet normal 0.402633223077914 0.91536139730376 1.82108033671638e-014
outer loop
vertex 22.7364405558798 18.3963868849378 2.93742199604024e-013
vertex 22.4 18.4999999999999 6.00000000000028
vertex 22.7364405558797 18.3963868849377 6.00000000000029
endloop
endfacet
facet normal 0.402633223077919 0.915361397303757 1.82108033671639e-014
outer loop
vertex 22.7364405558797 18.3963868849377 6.00000000000029
vertex 23.0401722358805 18.2184121906202 3.092998344083e-013
vertex 22.7364405558798 18.3963868849378 2.93742199604024e-013
endloop
endfacet
facet normal 0.601735819936869 0.798695187793756 2.08583104812386e-014
outer loop
vertex 23.0401722358805 18.2184121906202 3.092998344083e-013
vertex 22.7364405558797 18.3963868849377 6.00000000000029
vertex 23.0401722358805 18.2184121906202 6.00000000000031
endloop
endfacet
facet normal 0.601735819936873 0.798695187793753 2.08583104812387e-014
outer loop
vertex 23.0401722358805 18.2184121906202 6.00000000000031
vertex 23.2950204628575 17.9755535764838 3.21546421196622e-013
vertex 23.0401722358805 18.2184121906202 3.092998344083e-013
endloop
endfacet
facet normal 0.768794270329279 0.639496184436523 2.23950531469272e-014
outer loop
vertex 23.2950204628575 17.9755535764838 3.21546421196622e-013
vertex 23.0401722358805 18.2184121906202 6.00000000000031
vertex 23.2950204628574 17.9755535764837 6.00000000000032
endloop
endfacet
facet normal 1.98408579861586e-014 1.11674086297233e-014 -1.0
outer loop
vertex 22.9 23.5 2.92084090933144e-013
vertex 21.4 22.0 2.90381758228892e-013
vertex 21.4 23.5 2.95289750432537e-013
endloop
endfacet
facet normal 1.98408579861586e-014 1.11674086297233e-014 -1.0
outer loop
vertex 21.4 22.0 2.90381758228892e-013
vertex 15.0 20.5 4.02948789931855e-014
vertex 15.0 22.0 3.31697230447412e-013
endloop
endfacet
facet normal 1.98408579861586e-014 1.11674086297233e-014 -1.0
outer loop
vertex 15.0 20.5 4.02948789931855e-014
vertex 21.4 22.0 2.90381758228892e-013
vertex 24.4000000000001 20.5 2.81480415911447e-013
endloop
endfacet
facet normal 1.98408579861586e-014 1.11674086297233e-014 -1.0
outer loop
vertex 24.4000000000001 20.5 2.81480415911447e-013
vertex 21.4 22.0 2.90381758228892e-013
vertex 22.9 23.5 2.92084090933144e-013
endloop
endfacet
facet normal 1.98408579861586e-014 1.11674086297233e-014 -1.0
outer loop
vertex 24.4000000000001 20.5 2.81480415911447e-013
vertex 22.9 23.5 2.92084090933144e-013
vertex 24.4000000000001 22.0 3.03469737438612e-013
endloop
endfacet
facet normal 1.98408579861586e-014 1.11674086297233e-014 -1.0
outer loop
vertex 17.0 19.5 -1.95720837492963e-014
vertex 15.0 13.5 1.44044461805234e-014
vertex 15.0 20.5 4.02948789931855e-014
endloop
endfacet
facet normal 1.98408579861586e-014 1.11674086297233e-014 -1.0
outer loop
vertex 15.0 13.5 1.44044461805234e-014
vertex 17.0 19.5 -1.95720837492963e-014
vertex 17.0 14.5 -4.54625165619583e-014
endloop
endfacet
facet normal 1.98408579861586e-014 1.11674086297233e-014 -1.0
outer loop
vertex 17.0 14.5 -4.54625165619583e-014
vertex 17.0 19.5 -1.95720837492963e-014
vertex 22.4000000000001 18.5 2.75702005153315e-013
endloop
endfacet
facet normal 1.98408579861586e-014 1.11674086297233e-014 -1.0
outer loop
vertex 17.0 14.5 -4.54625165619583e-014
vertex 22.4000000000001 18.5 2.75702005153315e-013
vertex 22.4000000000001 15.5 2.49811572340653e-013
endloop
endfacet
facet normal 1.98408579861586e-014 1.11674086297233e-014 -1.0
outer loop
vertex 22.4000000000001 15.5 2.49811572340653e-013
vertex 22.4000000000001 18.5 2.75702005153315e-013
vertex 22.7364405558798 18.3963868849378 2.93742199604024e-013
endloop
endfacet
facet normal 1.98408579861586e-014 1.11674086297233e-014 -1.0
outer loop
vertex 22.4000000000001 15.5 2.49811572340653e-013
vertex 22.7364405558798 18.3963868849378 2.93742199604024e-013
vertex 22.7364405558798 15.6036131150622 2.69640159054046e-013
endloop
endfacet
facet normal 1.98408579861586e-014 1.11674086297233e-014 -1.0
outer loop
vertex 22.7364405558798 15.6036131150622 2.69640159054046e-013
vertex 22.7364405558798 18.3963868849378 2.93742199604024e-013
vertex 23.0401722358805 18.2184121906202 3.092998344083e-013
endloop
endfacet
facet normal 1.98408579861586e-014 1.11674086297233e-014 -1.0
outer loop
vertex 22.7364405558798 15.6036131150622 2.69640159054046e-013
vertex 23.0401722358805 18.2184121906202 3.092998344083e-013
vertex 23.0401722358805 15.7815878093798 2.88269688435377e-013
endloop
endfacet
facet normal 1.98408579861586e-014 1.11674086297233e-014 -1.0
outer loop
vertex 23.0401722358805 15.7815878093798 2.88269688435377e-013
vertex 23.0401722358805 18.2184121906202 3.092998344083e-013
vertex 23.2950204628575 17.9755535764838 3.21546421196622e-013
endloop
endfacet
facet normal 1.98408579861586e-014 1.11674086297233e-014 -1.0
outer loop
vertex 23.0401722358805 15.7815878093798 2.88269688435377e-013
vertex 23.2950204628575 17.9755535764838 3.21546421196622e-013
vertex 23.2950204628575 16.0244464235162 3.0470808497855e-013
endloop
endfacet
facet normal 1.98408579861586e-014 1.11674086297233e-014 -1.0
outer loop
vertex 23.2950204628575 16.0244464235162 3.0470808497855e-013
vertex 23.2950204628575 17.9755535764838 3.21546421196622e-013
vertex 23.4874138427843 17.6807439555183 3.29829794337895e-013
endloop
endfacet
facet normal 1.98408579861586e-014 1.11674086297233e-014 -1.0
outer loop
vertex 23.2950204628575 16.0244464235162 3.0470808497855e-013
vertex 23.4874138427843 17.6807439555183 3.29829794337895e-013
vertex 23.4874138427843 16.3192560444817 3.1807995724258e-013
endloop
endfacet
facet normal 1.98408579861586e-014 1.11674086297233e-014 -1.0
outer loop
vertex 23.4874138427843 16.3192560444817 3.1807995724258e-013
vertex 23.4874138427843 17.6807439555183 3.29829794337895e-013
vertex 23.6071068801441 17.3496827798103 3.33708840617015e-013
endloop
endfacet
facet normal 1.98408579861586e-014 1.11674086297233e-014 -1.0
outer loop
vertex 23.4874138427843 16.3192560444817 3.1807995724258e-013
vertex 23.6071068801441 17.3496827798103 3.33708840617015e-013
vertex 23.6071068801441 16.6503172201897 3.27673214939398e-013
endloop
endfacet
facet normal 1.98408579861586e-014 1.11674086297233e-014 -1.0
outer loop
vertex 23.6071068801441 16.6503172201897 3.27673214939398e-013
vertex 23.6071068801441 17.3496827798103 3.33708840617015e-013
vertex 23.6477255797497 17.0 3.32976989770086e-013
endloop
endfacet
facet normal 1.98408579861586e-014 1.11674086297233e-014 -1.0
outer loop
vertex 24.4000000000001 13.5 2.55589983098785e-013
vertex 15.0 12.0 3.35542015669206e-013
vertex 15.0 13.5 1.44044461805234e-014
endloop
endfacet
facet normal 1.98408579861586e-014 1.11674086297233e-014 -1.0
outer loop
vertex 15.0 12.0 3.35542015669206e-013
vertex 24.4000000000001 13.5 2.55589983098785e-013
vertex 21.4 12.0 2.94226543450685e-013
endloop
endfacet
facet normal 1.98408579861586e-014 1.11674086297233e-014 -1.0
outer loop
vertex 21.4 12.0 2.94226543450685e-013
vertex 24.4000000000001 13.5 2.55589983098785e-013
vertex 21.4 10.5 1.34858420340484e-013
endloop
endfacet
facet normal 1.98408579861586e-014 1.11674086297233e-014 -1.0
outer loop
vertex 21.4 10.5 1.34858420340484e-013
vertex 24.4000000000001 13.5 2.55589983098785e-013
vertex 22.9 10.5 1.38104635689753e-013
endloop
endfacet
facet normal 1.98408579861586e-014 1.11674086297233e-014 -1.0
outer loop
vertex 22.9 10.5 1.38104635689753e-013
vertex 24.4000000000001 13.5 2.55589983098785e-013
vertex 24.4000000000001 12.0 2.26642829157432e-013
endloop
endfacet
facet normal 1.98408579861586e-014 1.11674086297233e-014 -1.0
outer loop
vertex 12.0511112605664 24.8882285676538 2.61888694192315e-013
vertex 12.0 9.50000000000002 -7.38448964272096e-014
vertex 12.0 24.5 3.51063858049845e-013
endloop
endfacet
facet normal 1.98408579861586e-014 1.11674086297233e-014 -1.0
outer loop
vertex 12.0 9.50000000000002 -7.38448964272096e-014
vertex 12.0511112605664 24.8882285676538 2.61888694192315e-013
vertex 12.0511112605664 9.11177143234624 1.69372403196724e-013
endloop
endfacet
facet normal 1.98408579861586e-014 1.11674086297233e-014 -1.0
outer loop
vertex 12.0511112605664 9.11177143234624 1.69372403196724e-013
vertex 12.0511112605664 24.8882285676538 2.61888694192315e-013
vertex 12.114180701233 25.0740251485476 2.22298876692896e-013
endloop
endfacet
facet normal 1.98408579861586e-014 1.11674086297233e-014 -1.0
outer loop
vertex 12.0511112605664 9.11177143234624 1.69372403196724e-013
vertex 12.114180701233 25.0740251485476 2.22298876692896e-013
vertex 12.114180701233 8.92597485145238 2.56772024770709e-013
endloop
endfacet
facet normal 1.98408579861586e-014 1.11674086297233e-014 -1.0
outer loop
vertex 12.114180701233 8.92597485145238 2.56772024770709e-013
vertex 12.114180701233 25.0740251485476 2.22298876692896e-013
vertex 12.2009618943233 25.25 1.86964499613956e-013
endloop
endfacet
facet normal 1.98408579861586e-014 1.11674086297233e-014 -1.0
outer loop
vertex 12.114180701233 8.92597485145238 2.56772024770709e-013
vertex 12.2009618943233 25.25 1.86964499613956e-013
vertex 12.2009618943233 8.75000000000002 3.19238040625264e-013
endloop
endfacet
facet normal 1.98408579861586e-014 1.11674086297233e-014 -1.0
outer loop
vertex 12.2009618943233 8.75000000000002 3.19238040625264e-013
vertex 12.2009618943233 25.25 1.86964499613956e-013
vertex 12.3099699895632 25.4131421435131 1.56490143943855e-013
endloop
endfacet
facet normal 1.98408579861586e-014 1.11674086297233e-014 -1.0
outer loop
vertex 12.2009618943233 8.75000000000002 3.19238040625264e-013
vertex 12.3099699895632 25.4131421435131 1.56490143943855e-013
vertex 12.3099699895632 8.58685785648693 3.55701639910267e-013
endloop
endfacet
facet normal 1.98408579861586e-014 1.11674086297233e-014 -1.0
outer loop
vertex 12.3099699895632 8.58685785648693 3.55701639910267e-013
vertex 12.3099699895632 25.4131421435131 1.56490143943855e-013
vertex 12.4393398282202 25.5606601717798 1.31397234357197e-013
endloop
endfacet
facet normal 1.98408579861586e-014 1.11674086297233e-014 -1.0
outer loop
vertex 12.3099699895632 8.58685785648693 3.55701639910267e-013
vertex 12.4393398282202 25.5606601717798 1.31397234357197e-013
vertex 12.4393398282202 8.43933982822019 3.65538920332331e-013
endloop
endfacet
facet normal 1.98408579861586e-014 1.11674086297233e-014 -1.0
outer loop
vertex 12.4393398282202 8.43933982822019 3.65538920332331e-013
vertex 12.4393398282202 25.5606601717798 1.31397234357197e-013
vertex 12.5868578564869 25.6900300104368 1.12115117494079e-013
endloop
endfacet
facet normal 1.98408579861586e-014 1.11674086297233e-014 -1.0
outer loop
vertex 12.4393398282202 8.43933982822019 3.65538920332331e-013
vertex 12.5868578564869 25.6900300104368 1.12115117494079e-013
vertex 12.5868578564869 8.30996998956316 3.48581563296026e-013
endloop
endfacet
facet normal 1.98408579861586e-014 1.11674086297233e-014 -1.0
outer loop
vertex 12.5868578564869 8.30996998956316 3.48581563296026e-013
vertex 12.5868578564869 25.6900300104368 1.12115117494079e-013
vertex 12.75 25.7990381056766 9.89737157200397e-014
endloop
endfacet
facet normal 1.98408579861586e-014 1.11674086297233e-014 -1.0
outer loop
vertex 12.5868578564869 8.30996998956316 3.48581563296026e-013
vertex 12.75 25.7990381056766 9.89737157200397e-014
vertex 12.75 8.20096189432336 3.05119713881709e-013
endloop
endfacet
facet normal 1.98408579861586e-014 1.11674086297233e-014 -1.0
outer loop
vertex 12.75 8.20096189432336 3.05119713881709e-013
vertex 12.75 25.7990381056766 9.89737157200397e-014
vertex 12.9259748514524 25.8858192987669 9.21978820629194e-014
endloop
endfacet
facet normal 1.98408579861586e-014 1.11674086297233e-014 -1.0
outer loop
vertex 12.75 8.20096189432336 3.05119713881709e-013
vertex 12.9259748514524 25.8858192987669 9.21978820629194e-014
vertex 12.9259748514524 8.11418070123309 2.35897016382763e-013
endloop
endfacet
facet normal 1.98408579861586e-014 1.11674086297233e-014 -1.0
outer loop
vertex 12.9259748514524 8.11418070123309 2.35897016382763e-013
vertex 12.9259748514524 25.8858192987669 9.21978820629194e-014
vertex 13.1117714323462 25.9488887394336 9.19035529152069e-014
endloop
endfacet
facet normal 1.98408579861586e-014 1.11674086297233e-014 -1.0
outer loop
vertex 12.9259748514524 8.11418070123309 2.35897016382763e-013
vertex 13.1117714323462 25.9488887394336 9.19035529152069e-014
vertex 13.1117714323462 8.05111126056641 1.42097890345551e-013
endloop
endfacet
facet normal 1.98408579861586e-014 1.11674086297233e-014 -1.0
outer loop
vertex 13.1117714323462 8.05111126056641 1.42097890345551e-013
vertex 13.1117714323462 25.9488887394336 9.19035529152069e-014
vertex 13.5 26.0 1.10668565853852e-013
endloop
endfacet
facet normal 1.98408579861586e-014 1.11674086297233e-014 -1.0
outer loop
vertex 13.1117714323462 8.05111126056641 1.42097890345551e-013
vertex 13.5 26.0 1.10668565853852e-013
vertex 13.5 8.00000000000001 -1.12416882408459e-013
endloop
endfacet
facet normal 1.98408579861586e-014 1.11674086297233e-014 -1.0
outer loop
vertex 13.5 8.00000000000001 -1.12416882408459e-013
vertex 13.5 26.0 1.10668565853852e-013
vertex 15.0 26.0 1.1983768373788e-013
endloop
endfacet
facet normal 1.98408579861586e-014 1.11674086297233e-014 -1.0
outer loop
vertex 13.5 8.00000000000001 -1.12416882408459e-013
vertex 15.0 26.0 1.1983768373788e-013
vertex 15.0 8.00000000000001 -1.30755118176514e-013
endloop
endfacet
facet normal 1.98408579861586e-014 1.11674086297233e-014 -1.0
outer loop
vertex 15.0 8.00000000000001 -1.30755118176514e-013
vertex 15.0 26.0 1.1983768373788e-013
vertex 15.0 22.0 3.31697230447412e-013
endloop
endfacet
facet normal 1.98408579861586e-014 1.11674086297233e-014 -1.0
outer loop
vertex 15.0 8.00000000000001 -1.30755118176514e-013
vertex 15.0 22.0 3.31697230447412e-013
vertex 15.0 20.5 4.02948789931855e-014
endloop
endfacet
facet normal 1.98408579861586e-014 1.11674086297233e-014 -1.0
outer loop
vertex 15.0 8.00000000000001 -1.30755118176514e-013
vertex 15.0 20.5 4.02948789931855e-014
vertex 15.0 13.5 1.44044461805234e-014
endloop
endfacet
facet normal 1.98408579861586e-014 1.11674086297233e-014 -1.0
outer loop
vertex 15.0 8.00000000000001 -1.30755118176514e-013
vertex 15.0 13.5 1.44044461805234e-014
vertex 15.0 12.0 3.35542015669206e-013
endloop
endfacet
facet normal 0.894912235902741 0.446242187642044 2.27391954398423e-014
outer loop
vertex 23.4874138427843 17.6807439555183 3.29829794337895e-013
vertex 23.2950204628574 17.9755535764837 6.00000000000032
vertex 23.4874138427842 17.6807439555182 6.00000000000033
endloop
endfacet
facet normal 0.768794270329282 0.639496184436519 2.23950531469272e-014
outer loop
vertex 23.2950204628574 17.9755535764837 6.00000000000032
vertex 23.4874138427843 17.6807439555183 3.29829794337895e-013
vertex 23.2950204628575 17.9755535764838 3.21546421196622e-013
endloop
endfacet
facet normal 0.973373575741275 0.229224523226998 2.18724108025914e-014
outer loop
vertex 23.6071068801441 17.3496827798103 3.33708840617015e-013
vertex 23.4874138427842 17.6807439555182 6.00000000000033
vertex 23.607106880144 17.3496827798103 6.00000000000033
endloop
endfacet
facet normal 0.894912235902742 0.446242187642041 2.27391954398423e-014
outer loop
vertex 23.4874138427842 17.6807439555182 6.00000000000033
vertex 23.6071068801441 17.3496827798103 3.33708840617015e-013
vertex 23.4874138427843 17.6807439555183 3.29829794337895e-013
endloop
endfacet
facet normal 1.0 6.5817658669917e-016 1.98408579861586e-014
outer loop
vertex 23.6477255797497 17.0 3.32976989770086e-013
vertex 23.607106880144 17.3496827798103 6.00000000000033
vertex 23.6477255797496 16.9999999999999 6.00000000000033
endloop
endfacet
facet normal 0.973373575741275 0.229224523226996 2.18724108025914e-014
outer loop
vertex 23.607106880144 17.3496827798103 6.00000000000033
vertex 23.6477255797497 17.0 3.32976989770086e-013
vertex 23.6071068801441 17.3496827798103 3.33708840617015e-013
endloop
endfacet
facet normal 0.973373575741275 -0.229224523226998 1.67527229649326e-014
outer loop
vertex 23.6071068801441 16.6503172201897 3.27673214939398e-013
vertex 23.6477255797496 16.9999999999999 6.00000000000033
vertex 23.607106880144 16.6503172201896 6.00000000000033
endloop
endfacet
facet normal 1.0 3.02405458753675e-016 1.98408579861586e-014
outer loop
vertex 23.6477255797496 16.9999999999999 6.00000000000033
vertex 23.6071068801441 16.6503172201897 3.27673214939398e-013
vertex 23.6477255797497 17.0 3.32976989770086e-013
endloop
endfacet
facet normal 0.894912235902741 -0.446242187642043 1.27724577254016e-014
outer loop
vertex 23.4874138427843 16.3192560444817 3.1807995724258e-013
vertex 23.607106880144 16.6503172201896 6.00000000000033
vertex 23.4874138427842 16.3192560444817 6.00000000000032
endloop
endfacet
facet normal 0.973373575741275 -0.229224523226997 1.67527229649326e-014
outer loop
vertex 23.607106880144 16.6503172201896 6.00000000000033
vertex 23.4874138427843 16.3192560444817 3.1807995724258e-013
vertex 23.6071068801441 16.6503172201897 3.27673214939398e-013
endloop
endfacet
facet normal 0.768794270329279 -0.639496184436523 8.11202272942405e-015
outer loop
vertex 23.2950204628575 16.0244464235162 3.0470808497855e-013
vertex 23.4874138427842 16.3192560444817 6.00000000000032
vertex 23.2950204628574 16.0244464235161 6.00000000000031
endloop
endfacet
facet normal 0.894912235902742 -0.446242187642041 1.27724577254016e-014
outer loop
vertex 23.4874138427842 16.3192560444817 6.00000000000032
vertex 23.2950204628575 16.0244464235162 3.0470808497855e-013
vertex 23.4874138427843 16.3192560444817 3.1807995724258e-013
endloop
endfacet
facet normal 0.768794270329279 -0.639496184436523 8.11202272942405e-015
outer loop
vertex 23.2950204628575 16.0244464235162 3.0470808497855e-013
vertex 23.0401722358805 15.7815878093797 6.00000000000029
vertex 23.0401722358805 15.7815878093798 2.88269688435377e-013
endloop
endfacet
facet normal 0.601735819936871 -0.798695187793755 3.01959941586566e-015
outer loop
vertex 23.0401722358805 15.7815878093797 6.00000000000029
vertex 23.2950204628575 16.0244464235162 3.0470808497855e-013
vertex 23.2950204628574 16.0244464235161 6.00000000000031
endloop
endfacet
endsolid Mini-CNC - 1
