  0
SECTION
  2
HEADER
  9
$ACADVER
  1
AC1009
  9
$EXTMAX
 10
790.0
 20
588.0
 30
0.0
  9
$EXTMIN
 10
12.0
 20
12.0
 30
0.0
  9
$INSUNITS
 70
     4
  9
$LUNITS
 70
     2
  9
$LUPREC
 70
     4
  9
$MEASUREMENT
 70
     1
  0
ENDSEC
  0
SECTION
  2
TABLES
  0
TABLE
  2
LAYER
 70
     1
  0
LAYER
  2
0
 70
     0
 62
     7
  6
Continuous
  0
LAYER
  2
GROUP0
 70
     0
 62
    70
  6
Continuous
  0
LAYER
  2
GROUP1
 70
     0
 62
    70
  6
Continuous
  0
LAYER
  2
GROUP2
 70
     0
 62
    70
  6
Continuous
  0
LAYER
  2
GROUP3
 70
     0
 62
    70
  6
Continuous
  0
LAYER
  2
GROUP4
 70
     0
 62
    70
  6
Continuous
  0
LAYER
  2
GROUP5
 70
     0
 62
    70
  6
Continuous
  0
LAYER
  2
GROUP6
 70
     0
 62
    70
  6
Continuous
  0
LAYER
  2
GROUP7
 70
     0
 62
    70
  6
Continuous
  0
LAYER
  2
GROUP8
 70
     0
 62
    70
  6
Continuous
  0
LAYER
  2
GROUP9
 70
     0
 62
    70
  6
Continuous
  0
LAYER
  2
GROUP10
 70
     0
 62
    70
  6
Continuous
  0
LAYER
  2
GROUP11
 70
     0
 62
    70
  6
Continuous
  0
LAYER
  2
GROUP12
 70
     0
 62
    70
  6
Continuous
  0
LAYER
  2
GROUP13
 70
     0
 62
    70
  6
Continuous
  0
ENDTAB
  0
TABLE
  2
APPID
 70
     1
  0
APPID
  2
ACAD
 70
     0
  0
ENDTAB
  0
ENDSEC
  0
SECTION
  2
ENTITIES
  0
CIRCLE
  8
GROUP0
 10
455.999999999975
 20
167.099447047458
 30
0.0000000000606
 40
11.0
  0
CIRCLE
  8
GROUP0
 10
456.000000000026
 20
421.099447047459
 30
0.0000000001272
 40
11.0
  0
POLYLINE
  8
GROUP0
 66
     1
 10
0.0
 20
0.0
 30
0.0000000000922
 70
     9
  0
VERTEX
  8
GROUP0
 10
416.000000000005
 20
319.099447047466
 30
0.0000000000922
 42
0.0
  0
VERTEX
  8
GROUP0
 10
416.000000000003
 20
309.099447047471
 30
0.0000000000885
 42
0.0
  0
VERTEX
  8
GROUP0
 10
410.000000000003
 20
309.099447047473
 30
0.0000000000872
 42
0.0
  0
VERTEX
  8
GROUP0
 10
409.999999999997
 20
279.099447047472
 30
0.0000000000794
 42
0.0
  0
VERTEX
  8
GROUP0
 10
415.999999999997
 20
279.09944704747
 30
0.0000000000809
 42
0.0
  0
VERTEX
  8
GROUP0
 10
415.999999999996
 20
269.099447047466
 30
0.000000000079
 42
0.0
  0
VERTEX
  8
GROUP0
 10
418.368898192002
 20
263.225183943348
 30
0.000000000078
 42
0.0
  0
VERTEX
  8
GROUP0
 10
420.540714924678
 20
257.275237915009
 30
0.0000000000769
 42
0.0
  0
VERTEX
  8
GROUP0
 10
422.513037461683
 20
251.25621893593
 30
0.0000000000757
 42
0.0
  0
VERTEX
  8
GROUP0
 10
424.28367469076
 20
245.174813714809
 30
0.0000000000745
 42
0.0
  0
VERTEX
  8
GROUP0
 10
425.850659557909
 20
239.037778267084
 30
0.0000000000732
 42
0.0
  0
VERTEX
  8
GROUP0
 10
427.212251252647
 20
232.851930409489
 30
0.0000000000718
 42
0.0
  0
VERTEX
  8
GROUP0
 10
428.366937141925
 20
226.624142185924
 30
0.0000000000705
 42
0.0
  0
VERTEX
  8
GROUP0
 10
429.313434450561
 20
220.361332233095
 30
0.000000000069
 42
0.0
  0
VERTEX
  8
GROUP0
 10
430.050691686309
 20
214.070458094407
 30
0.0000000000675
 42
0.0
  0
VERTEX
  8
GROUP0
 10
430.577889807994
 20
207.758508490602
 30
0.000000000066
 42
0.0
  0
VERTEX
  8
GROUP0
 10
430.894443135413
 20
201.432495555791
 30
0.0000000000644
 42
0.0
  0
VERTEX
  8
GROUP0
 10
430.999999999981
 20
195.099447047463
 30
0.0000000000627
 42
0.0
  0
VERTEX
  8
GROUP0
 10
430.999999999971
 20
145.099447047464
 30
0.0000000000496
 42
0.0
  0
VERTEX
  8
GROUP0
 10
440.999999999971
 20
145.099447047461
 30
0.0000000000516
 42
0.0
  0
VERTEX
  8
GROUP0
 10
440.999999999968
 20
127.099447047461
 30
0.0000000000469
 42
0.0
  0
VERTEX
  8
GROUP0
 10
470.999999999967
 20
127.099447047456
 30
0.0000000000531
 42
0.0
  0
VERTEX
  8
GROUP0
 10
470.999999999971
 20
145.099447047455
 30
0.0000000000578
 42
0.0
  0
VERTEX
  8
GROUP0
 10
480.999999999971
 20
145.099447047453
 30
0.0000000000599
 42
0.0
  0
VERTEX
  8
GROUP0
 10
480.999999999981
 20
195.099447047453
 30
0.000000000073
 42
0.0
  0
VERTEX
  8
GROUP0
 10
481.062803924611
 20
201.326323472961
 30
0.0000000000747
 42
0.0
  0
VERTEX
  8
GROUP0
 10
481.251190145866
 20
207.550666408818
 30
0.0000000000763
 42
0.0
  0
VERTEX
  8
GROUP0
 10
481.565082016239
 20
213.769943396153
 30
0.000000000078
 42
0.0
  0
VERTEX
  8
GROUP0
 10
482.004351824541
 20
219.981624037254
 30
0.0000000000798
 42
0.0
  0
VERTEX
  8
GROUP0
 10
482.568820847854
 20
226.183181025076
 30
0.0000000000815
 42
0.0
  0
VERTEX
  8
GROUP0
 10
483.258259424254
 20
232.372091171529
 30
0.0000000000833
 42
0.0
  0
VERTEX
  8
GROUP0
 10
484.072387046247
 20
238.545836434059
 30
0.0000000000851
 42
0.0
  0
VERTEX
  8
GROUP0
 10
485.010872474898
 20
244.70190494015
 30
0.0000000000869
 42
0.0
  0
VERTEX
  8
GROUP0
 10
486.073333874605
 20
250.837792009323
 30
0.0000000000887
 42
0.0
  0
VERTEX
  8
GROUP0
 10
487.259338968447
 20
256.951001172183
 30
0.0000000000905
 42
0.0
  0
VERTEX
  8
GROUP0
 10
488.568405214066
 20
263.039045186157
 30
0.0000000000924
 42
0.0
  0
VERTEX
  8
GROUP0
 10
489.999999999996
 20
269.099447047452
 30
0.0000000000943
 42
0.0
  0
VERTEX
  8
GROUP0
 10
489.999999999997
 20
279.099447047452
 30
0.0000000000969
 42
0.0
  0
VERTEX
  8
GROUP0
 10
507.999999999997
 20
279.099447047448
 30
0.0000000001006
 42
0.0
  0
VERTEX
  8
GROUP0
 10
508.000000000003
 20
309.099447047448
 30
0.0000000001085
 42
0.0
  0
VERTEX
  8
GROUP0
 10
490.000000000003
 20
309.099447047452
 30
0.0000000001048
 42
0.0
  0
VERTEX
  8
GROUP0
 10
490.000000000005
 20
319.099447047452
 30
0.0000000001074
 42
0.0
  0
VERTEX
  8
GROUP0
 10
488.568405214078
 20
325.159848908749
 30
0.0000000001087
 42
0.0
  0
VERTEX
  8
GROUP0
 10
487.259338968462
 20
331.247892922722
 30
0.0000000001101
 42
0.0
  0
VERTEX
  8
GROUP0
 10
486.073333874622
 20
337.361102085583
 30
0.0000000001114
 42
0.0
  0
VERTEX
  8
GROUP0
 10
485.010872474918
 20
343.496989154754
 30
0.0000000001128
 42
0.0
  0
VERTEX
  8
GROUP0
 10
484.072387046268
 20
349.653057660849
 30
0.0000000001142
 42
0.0
  0
VERTEX
  8
GROUP0
 10
483.258259424278
 20
355.826802923377
 30
0.0000000001157
 42
0.0
  0
VERTEX
  8
GROUP0
 10
482.568820847881
 20
362.015713069831
 30
0.0000000001172
 42
0.0
  0
VERTEX
  8
GROUP0
 10
482.00435182457
 20
368.217270057655
 30
0.0000000001187
 42
0.0
  0
VERTEX
  8
GROUP0
 10
481.56508201627
 20
374.428950698754
 30
0.0000000001202
 42
0.0
  0
VERTEX
  8
GROUP0
 10
481.2511901459
 20
380.64822768609
 30
0.0000000001218
 42
0.0
  0
VERTEX
  8
GROUP0
 10
481.062803924647
 20
386.872570621946
 30
0.0000000001234
 42
0.0
  0
VERTEX
  8
GROUP0
 10
481.000000000019
 20
393.099447047453
 30
0.000000000125
 42
0.0
  0
VERTEX
  8
GROUP0
 10
481.000000000029
 20
443.099447047453
 30
0.0000000001381
 42
0.0
  0
VERTEX
  8
GROUP0
 10
471.000000000029
 20
443.099447047456
 30
0.0000000001361
 42
0.0
  0
VERTEX
  8
GROUP0
 10
471.000000000033
 20
461.099447047456
 30
0.0000000001408
 42
0.0
  0
VERTEX
  8
GROUP0
 10
441.000000000033
 20
461.099447047461
 30
0.0000000001346
 42
0.0
  0
VERTEX
  8
GROUP0
 10
441.000000000029
 20
443.099447047462
 30
0.0000000001298
 42
0.0
  0
VERTEX
  8
GROUP0
 10
431.000000000029
 20
443.099447047464
 30
0.0000000001278
 42
0.0
  0
VERTEX
  8
GROUP0
 10
431.00000000002
 20
393.099447047464
 30
0.0000000001147
 42
0.0
  0
VERTEX
  8
GROUP0
 10
430.89444313545
 20
386.766398539136
 30
0.000000000113
 42
0.0
  0
VERTEX
  8
GROUP0
 10
430.577889808028
 20
380.440385604326
 30
0.0000000001113
 42
0.0
  0
VERTEX
  8
GROUP0
 10
430.05069168634
 20
374.128436000521
 30
0.0000000001095
 42
0.0
  0
VERTEX
  8
GROUP0
 10
429.31343445059
 20
367.837561861832
 30
0.0000000001077
 42
0.0
  0
VERTEX
  8
GROUP0
 10
428.366937141952
 20
361.574751909005
 30
0.0000000001059
 42
0.0
  0
VERTEX
  8
GROUP0
 10
427.212251252671
 20
355.346963685439
 30
0.000000000104
 42
0.0
  0
VERTEX
  8
GROUP0
 10
425.85065955793
 20
349.161115827844
 30
0.0000000001021
 42
0.0
  0
VERTEX
  8
GROUP0
 10
424.283674690779
 20
343.024080380123
 30
0.0000000001001
 42
0.0
  0
VERTEX
  8
GROUP0
 10
422.5130374617
 20
336.942675159
 30
0.0000000000982
 42
0.0
  0
VERTEX
  8
GROUP0
 10
420.540714924693
 20
330.923656179922
 30
0.0000000000962
 42
0.0
  0
VERTEX
  8
GROUP0
 10
418.368898192014
 20
324.973710151582
 30
0.0000000000942
 42
0.0
  0
SEQEND
  0
POLYLINE
  8
GROUP0
 66
     1
 10
0.0
 20
0.0
 30
0.0000000000978
 70
     9
  0
VERTEX
  8
GROUP0
 10
471.499999999997
 20
277.256197612207
 30
0.0000000000978
 42
0.0
  0
VERTEX
  8
GROUP0
 10
464.499999999997
 20
277.25619761221
 30
0.0000000000971
 42
0.0
  0
VERTEX
  8
GROUP0
 10
464.342374234589
 20
277.252158122407
 30
0.0000000000971
 42
0.0
  0
VERTEX
  8
GROUP0
 10
463.961666114232
 20
277.343782948704
 30
0.000000000097
 42
0.0
  0
VERTEX
  8
GROUP0
 10
463.617644558552
 20
277.530820246927
 30
0.000000000097
 42
0.0
  0
VERTEX
  8
GROUP0
 10
463.333754068045
 20
277.800523734296
 30
0.000000000097
 42
0.0
  0
VERTEX
  8
GROUP0
 10
463.129341310488
 20
278.134513563852
 30
0.000000000097
 42
0.0
  0
VERTEX
  8
GROUP0
 10
463.0183366775
 20
278.510028880656
 30
0.0000000000971
 42
0.0
  0
VERTEX
  8
GROUP0
 10
463.008304951376
 20
278.901478936436
 30
0.0000000000972
 42
0.0
  0
VERTEX
  8
GROUP0
 10
463.099929777674
 20
279.282187056793
 30
0.0000000000973
 42
0.0
  0
VERTEX
  8
GROUP0
 10
463.286967075897
 20
279.626208612473
 30
0.0000000000975
 42
0.0
  0
VERTEX
  8
GROUP0
 10
463.556670563266
 20
279.910099102981
 30
0.0000000000976
 42
0.0
  0
VERTEX
  8
GROUP0
 10
463.890660392823
 20
280.114511860537
 30
0.0000000000977
 42
0.0
  0
VERTEX
  8
GROUP0
 10
464.266175709626
 20
280.225516493524
 30
0.0000000000978
 42
0.0
  0
VERTEX
  8
GROUP0
 10
464.499999999997
 20
280.231508729843
 30
0.0000000000986
 42
0.0
  0
VERTEX
  8
GROUP0
 10
471.499999999998
 20
280.231508729843
 30
0.0000000000986
 42
0.0
  0
VERTEX
  8
GROUP0
 10
471.657625765406
 20
280.235548219646
 30
0.0000000000986
 42
0.0
  0
VERTEX
  8
GROUP0
 10
472.038333885763
 20
280.143923393349
 30
0.0000000000987
 42
0.0
  0
VERTEX
  8
GROUP0
 10
472.382355441443
 20
279.956886095126
 30
0.0000000000987
 42
0.0
  0
VERTEX
  8
GROUP0
 10
472.66624593195
 20
279.687182607757
 30
0.0000000000987
 42
0.0
  0
VERTEX
  8
GROUP0
 10
472.870658689507
 20
279.353192778201
 30
0.0000000000987
 42
0.0
  0
VERTEX
  8
GROUP0
 10
472.981663322494
 20
278.977677461397
 30
0.0000000000986
 42
0.0
  0
VERTEX
  8
GROUP0
 10
472.991695048618
 20
278.586227405617
 30
0.0000000000985
 42
0.0
  0
VERTEX
  8
GROUP0
 10
472.900070222321
 20
278.20551928526
 30
0.0000000000984
 42
0.0
  0
VERTEX
  8
GROUP0
 10
472.713032924098
 20
277.86149772958
 30
0.0000000000982
 42
0.0
  0
VERTEX
  8
GROUP0
 10
472.443329436729
 20
277.577607239072
 30
0.0000000000981
 42
0.0
  0
VERTEX
  8
GROUP0
 10
472.109339607172
 20
277.373194481517
 30
0.000000000098
 42
0.0
  0
VERTEX
  8
GROUP0
 10
471.733824290369
 20
277.262189848528
 30
0.0000000000979
 42
0.0
  0
SEQEND
  0
POLYLINE
  8
GROUP0
 66
     1
 10
0.0
 20
0.0
 30
0.0000000000905
 70
     9
  0
VERTEX
  8
GROUP0
 10
455.999999999998
 20
283.099447047458
 30
0.0000000000905
 42
0.0
  0
VERTEX
  8
GROUP0
 10
448.999999999998
 20
283.09944704746
 30
0.00000000009
 42
0.0
  0
VERTEX
  8
GROUP0
 10
448.280565578467
 20
283.122998891835
 30
0.0000000000901
 42
0.0
  0
VERTEX
  8
GROUP0
 10
447.564211885577
 20
283.193553572347
 30
0.0000000000903
 42
0.0
  0
VERTEX
  8
GROUP0
 10
446.85400645782
 20
283.310808963025
 30
0.0000000000904
 42
0.0
  0
VERTEX
  8
GROUP0
 10
446.152990503871
 20
283.47426295828
 30
0.0000000000905
 42
0.0
  0
VERTEX
  8
GROUP0
 10
445.464165881664
 20
283.683215623013
 30
0.0000000000906
 42
0.0
  0
VERTEX
  8
GROUP0
 10
444.790482243983
 20
283.936772189836
 30
0.0000000000906
 42
0.0
  0
VERTEX
  8
GROUP0
 10
444.134824407589
 20
284.233846890602
 30
0.0000000000907
 42
0.0
  0
VERTEX
  8
GROUP0
 10
443.499999999998
 20
284.573167605832
 30
0.0000000000907
 42
0.0
  0
VERTEX
  8
GROUP0
 10
442.888727436783
 20
284.953281312133
 30
0.0000000000908
 42
0.0
  0
VERTEX
  8
GROUP0
 10
442.303624280902
 20
285.372560304258
 30
0.0000000000908
 42
0.0
  0
VERTEX
  8
GROUP0
 10
441.747196033898
 20
285.829209165193
 30
0.0000000000908
 42
0.0
  0
VERTEX
  8
GROUP0
 10
441.221825406947
 20
286.321272454409
 30
0.0000000000908
 42
0.0
  0
VERTEX
  8
GROUP0
 10
440.72976211773
 20
286.84664308136
 30
0.0000000000907
 42
0.0
  0
VERTEX
  8
GROUP0
 10
440.273113256795
 20
287.403071328365
 30
0.0000000000907
 42
0.0
  0
VERTEX
  8
GROUP0
 10
439.853834264671
 20
287.988174484246
 30
0.0000000000906
 42
0.0
  0
VERTEX
  8
GROUP0
 10
439.47372055837
 20
288.599447047462
 30
0.0000000000905
 42
0.0
  0
VERTEX
  8
GROUP0
 10
439.13439984314
 20
289.234271455052
 30
0.0000000000904
 42
0.0
  0
VERTEX
  8
GROUP0
 10
438.837325142375
 20
289.889929291445
 30
0.0000000000903
 42
0.0
  0
VERTEX
  8
GROUP0
 10
438.583768575554
 20
290.563612929126
 30
0.0000000000902
 42
0.0
  0
VERTEX
  8
GROUP0
 10
438.37481591082
 20
291.252437551333
 30
0.0000000000901
 42
0.0
  0
VERTEX
  8
GROUP0
 10
438.211361915564
 20
291.953453505284
 30
0.0000000000899
 42
0.0
  0
VERTEX
  8
GROUP0
 10
438.094106524888
 20
292.663658933041
 30
0.0000000000897
 42
0.0
  0
VERTEX
  8
GROUP0
 10
438.023551844375
 20
293.380012625931
 30
0.0000000000896
 42
0.0
  0
VERTEX
  8
GROUP0
 10
438.0
 20
294.099447047462
 30
0.0000000000894
 42
0.0
  0
VERTEX
  8
GROUP0
 10
438.023551844375
 20
294.818881468994
 30
0.0000000000892
 42
0.0
  0
VERTEX
  8
GROUP0
 10
438.094106524889
 20
295.535235161883
 30
0.000000000089
 42
0.0
  0
VERTEX
  8
GROUP0
 10
438.211361915565
 20
296.245440589639
 30
0.0000000000888
 42
0.0
  0
VERTEX
  8
GROUP0
 10
438.374815910821
 20
296.946456543589
 30
0.0000000000886
 42
0.0
  0
VERTEX
  8
GROUP0
 10
438.583768575555
 20
297.635281165795
 30
0.0000000000883
 42
0.0
  0
VERTEX
  8
GROUP0
 10
438.837325142376
 20
298.308964803477
 30
0.0000000000881
 42
0.0
  0
VERTEX
  8
GROUP0
 10
439.134399843142
 20
298.964622639871
 30
0.0000000000879
 42
0.0
  0
VERTEX
  8
GROUP0
 10
439.473720558373
 20
299.599447047462
 30
0.0000000000876
 42
0.0
  0
VERTEX
  8
GROUP0
 10
439.853834264673
 20
300.210719610677
 30
0.0000000000874
 42
0.0
  0
VERTEX
  8
GROUP0
 10
440.273113256798
 20
300.795822766557
 30
0.0000000000872
 42
0.0
  0
VERTEX
  8
GROUP0
 10
440.729762117733
 20
301.352251013561
 30
0.0000000000869
 42
0.0
  0
VERTEX
  8
GROUP0
 10
441.22182540695
 20
301.877621640513
 30
0.0000000000867
 42
0.0
  0
VERTEX
  8
GROUP0
 10
441.747196033901
 20
302.36968492973
 30
0.0000000000864
 42
0.0
  0
VERTEX
  8
GROUP0
 10
442.303624280906
 20
302.826333790665
 30
0.0000000000862
 42
0.0
  0
VERTEX
  8
GROUP0
 10
442.888727436787
 20
303.245612782789
 30
0.000000000086
 42
0.0
  0
VERTEX
  8
GROUP0
 10
443.500000000002
 20
303.625726489089
 30
0.0000000000857
 42
0.0
  0
VERTEX
  8
GROUP0
 10
444.134824407593
 20
303.965047204321
 30
0.0000000000855
 42
0.0
  0
VERTEX
  8
GROUP0
 10
444.790482243986
 20
304.262121905085
 30
0.0000000000853
 42
0.0
  0
VERTEX
  8
GROUP0
 10
445.464165881668
 20
304.515678471906
 30
0.0000000000851
 42
0.0
  0
VERTEX
  8
GROUP0
 10
446.152990503875
 20
304.72463113664
 30
0.0000000000849
 42
0.0
  0
VERTEX
  8
GROUP0
 10
446.854006457825
 20
304.888085131896
 30
0.0000000000847
 42
0.0
  0
VERTEX
  8
GROUP0
 10
447.564211885582
 20
305.005340522571
 30
0.0000000000845
 42
0.0
  0
VERTEX
  8
GROUP0
 10
448.280565578471
 20
305.075895203084
 30
0.0000000000844
 42
0.0
  0
VERTEX
  8
GROUP0
 10
448.999999999997
 20
305.099447047457
 30
0.0000000000948
 42
0.0
  0
VERTEX
  8
GROUP0
 10
456.000000000003
 20
305.099447047458
 30
0.0000000000962
 42
0.0
  0
VERTEX
  8
GROUP0
 10
456.719434421534
 20
305.075895203083
 30
0.0000000000964
 42
0.0
  0
VERTEX
  8
GROUP0
 10
457.435788114423
 20
305.00534052257
 30
0.0000000000965
 42
0.0
  0
VERTEX
  8
GROUP0
 10
458.14599354218
 20
304.888085131893
 30
0.0000000000966
 42
0.0
  0
VERTEX
  8
GROUP0
 10
458.84700949613
 20
304.724631136637
 30
0.0000000000967
 42
0.0
  0
VERTEX
  8
GROUP0
 10
459.535834118337
 20
304.515678471904
 30
0.0000000000968
 42
0.0
  0
VERTEX
  8
GROUP0
 10
460.209517756018
 20
304.262121905081
 30
0.0000000000969
 42
0.0
  0
VERTEX
  8
GROUP0
 10
460.865175592412
 20
303.965047204316
 30
0.0000000000969
 42
0.0
  0
VERTEX
  8
GROUP0
 10
461.500000000002
 20
303.625726489086
 30
0.000000000097
 42
0.0
  0
VERTEX
  8
GROUP0
 10
462.111272563218
 20
303.245612782784
 30
0.000000000097
 42
0.0
  0
VERTEX
  8
GROUP0
 10
462.696375719098
 20
302.826333790659
 30
0.000000000097
 42
0.0
  0
VERTEX
  8
GROUP0
 10
463.252803966103
 20
302.369684929725
 30
0.000000000097
 42
0.0
  0
VERTEX
  8
GROUP0
 10
463.778174593054
 20
301.877621640509
 30
0.000000000097
 42
0.0
  0
VERTEX
  8
GROUP0
 10
464.270237882271
 20
301.352251013557
 30
0.0000000000969
 42
0.0
  0
VERTEX
  8
GROUP0
 10
464.726886743205
 20
300.795822766552
 30
0.0000000000969
 42
0.0
  0
VERTEX
  8
GROUP0
 10
465.14616573533
 20
300.210719610672
 30
0.0000000000968
 42
0.0
  0
VERTEX
  8
GROUP0
 10
465.52627944163
 20
299.599447047456
 30
0.0000000000967
 42
0.0
  0
VERTEX
  8
GROUP0
 10
465.865600156861
 20
298.964622639865
 30
0.0000000000967
 42
0.0
  0
VERTEX
  8
GROUP0
 10
466.162674857625
 20
298.308964803472
 30
0.0000000000965
 42
0.0
  0
VERTEX
  8
GROUP0
 10
466.416231424447
 20
297.635281165791
 30
0.0000000000964
 42
0.0
  0
VERTEX
  8
GROUP0
 10
466.625184089181
 20
296.946456543584
 30
0.0000000000963
 42
0.0
  0
VERTEX
  8
GROUP0
 10
466.788638084436
 20
296.245440589633
 30
0.0000000000961
 42
0.0
  0
VERTEX
  8
GROUP0
 10
466.905893475112
 20
295.535235161876
 30
0.000000000096
 42
0.0
  0
VERTEX
  8
GROUP0
 10
466.976448155626
 20
294.818881468987
 30
0.0000000000958
 42
0.0
  0
VERTEX
  8
GROUP0
 10
467.0
 20
294.099447047455
 30
0.0000000000956
 42
0.0
  0
VERTEX
  8
GROUP0
 10
466.976448155626
 20
293.380012625924
 30
0.0000000000954
 42
0.0
  0
VERTEX
  8
GROUP0
 10
466.905893475112
 20
292.663658933035
 30
0.0000000000952
 42
0.0
  0
VERTEX
  8
GROUP0
 10
466.788638084435
 20
291.953453505278
 30
0.000000000095
 42
0.0
  0
VERTEX
  8
GROUP0
 10
466.62518408918
 20
291.252437551329
 30
0.0000000000948
 42
0.0
  0
VERTEX
  8
GROUP0
 10
466.416231424446
 20
290.563612929122
 30
0.0000000000946
 42
0.0
  0
VERTEX
  8
GROUP0
 10
466.162674857624
 20
289.88992929144
 30
0.0000000000943
 42
0.0
  0
VERTEX
  8
GROUP0
 10
465.865600156859
 20
289.234271455047
 30
0.0000000000941
 42
0.0
  0
VERTEX
  8
GROUP0
 10
465.526279441628
 20
288.599447047456
 30
0.0000000000939
 42
0.0
  0
VERTEX
  8
GROUP0
 10
465.146165735327
 20
287.98817448424
 30
0.0000000000936
 42
0.0
  0
VERTEX
  8
GROUP0
 10
464.726886743202
 20
287.40307132836
 30
0.0000000000934
 42
0.0
  0
VERTEX
  8
GROUP0
 10
464.270237882268
 20
286.846643081356
 30
0.0000000000931
 42
0.0
  0
VERTEX
  8
GROUP0
 10
463.778174593051
 20
286.321272454405
 30
0.0000000000929
 42
0.0
  0
VERTEX
  8
GROUP0
 10
463.2528039661
 20
285.829209165187
 30
0.0000000000927
 42
0.0
  0
VERTEX
  8
GROUP0
 10
462.696375719094
 20
285.372560304252
 30
0.0000000000924
 42
0.0
  0
VERTEX
  8
GROUP0
 10
462.111272563214
 20
284.953281312128
 30
0.0000000000922
 42
0.0
  0
VERTEX
  8
GROUP0
 10
461.499999999998
 20
284.573167605828
 30
0.000000000092
 42
0.0
  0
VERTEX
  8
GROUP0
 10
460.865175592408
 20
284.233846890597
 30
0.0000000000918
 42
0.0
  0
VERTEX
  8
GROUP0
 10
460.209517756015
 20
283.936772189833
 30
0.0000000000915
 42
0.0
  0
VERTEX
  8
GROUP0
 10
459.535834118333
 20
283.683215623012
 30
0.0000000000913
 42
0.0
  0
VERTEX
  8
GROUP0
 10
458.847009496126
 20
283.474262958277
 30
0.0000000000911
 42
0.0
  0
VERTEX
  8
GROUP0
 10
458.145993542176
 20
283.310808963022
 30
0.000000000091
 42
0.0
  0
VERTEX
  8
GROUP0
 10
457.435788114419
 20
283.193553572346
 30
0.0000000000908
 42
0.0
  0
VERTEX
  8
GROUP0
 10
456.71943442153
 20
283.122998891833
 30
0.0000000000906
 42
0.0
  0
SEQEND
  0
POLYLINE
  8
GROUP0
 66
     1
 10
0.0
 20
0.0
 30
0.0000000002309
 70
     9
  0
VERTEX
  8
GROUP0
 10
451.000000000032
 20
455.09944704746
 30
0.0000000002309
 42
0.0
  0
VERTEX
  8
GROUP0
 10
461.000000000031
 20
455.099447047459
 30
0.000000000233
 42
0.0
  0
VERTEX
  8
GROUP0
 10
461.00000000003
 20
449.099447047459
 30
0.0000000002314
 42
0.0
  0
VERTEX
  8
GROUP0
 10
451.00000000003
 20
449.099447047459
 30
0.0000000002293
 42
0.0
  0
SEQEND
  0
POLYLINE
  8
GROUP0
 66
     1
 10
0.0
 20
0.0
 30
0.0000000001479
 70
     9
  0
VERTEX
  8
GROUP0
 10
450.999999999971
 20
139.099447047459
 30
0.0000000001479
 42
0.0
  0
VERTEX
  8
GROUP0
 10
460.99999999997
 20
139.099447047458
 30
0.00000000015
 42
0.0
  0
VERTEX
  8
GROUP0
 10
460.999999999969
 20
133.099447047458
 30
0.0000000001484
 42
0.0
  0
VERTEX
  8
GROUP0
 10
450.999999999969
 20
133.099447047459
 30
0.0000000001464
 42
0.0
  0
SEQEND
  0
POLYLINE
  8
GROUP0
 66
     1
 10
0.0
 20
0.0
 30
0.0000000001006
 70
     9
  0
VERTEX
  8
GROUP0
 10
495.999999999999
 20
289.099447047451
 30
0.0000000001006
 42
0.0
  0
VERTEX
  8
GROUP0
 10
496.000000000002
 20
299.099447047451
 30
0.0000000001033
 42
0.0
  0
VERTEX
  8
GROUP0
 10
502.000000000002
 20
299.099447047449
 30
0.0000000001048
 42
0.0
  0
VERTEX
  8
GROUP0
 10
501.999999999999
 20
289.099447047449
 30
0.0000000001022
 42
0.0
  0
SEQEND
  0
POLYLINE
  8
GROUP0
 66
     1
 10
0.0
 20
0.0
 30
0.0000000000918
 70
     9
  0
VERTEX
  8
GROUP0
 10
440.657625765407
 20
280.235548219652
 30
0.0000000000918
 42
0.0
  0
VERTEX
  8
GROUP0
 10
441.038333885763
 20
280.143923393355
 30
0.0000000000918
 42
0.0
  0
VERTEX
  8
GROUP0
 10
441.382355441443
 20
279.956886095132
 30
0.0000000000918
 42
0.0
  0
VERTEX
  8
GROUP0
 10
441.66624593195
 20
279.687182607763
 30
0.0000000000918
 42
0.0
  0
VERTEX
  8
GROUP0
 10
441.870658689507
 20
279.353192778207
 30
0.0000000000918
 42
0.0
  0
VERTEX
  8
GROUP0
 10
441.981663322494
 20
278.977677461403
 30
0.0000000000918
 42
0.0
  0
VERTEX
  8
GROUP0
 10
441.991695048618
 20
278.586227405623
 30
0.0000000000918
 42
0.0
  0
VERTEX
  8
GROUP0
 10
441.900070222321
 20
278.205519285266
 30
0.0000000000918
 42
0.0
  0
VERTEX
  8
GROUP0
 10
441.713032924098
 20
277.861497729586
 30
0.0000000000918
 42
0.0
  0
VERTEX
  8
GROUP0
 10
441.443329436729
 20
277.577607239079
 30
0.0000000000918
 42
0.0
  0
VERTEX
  8
GROUP0
 10
441.109339607172
 20
277.373194481522
 30
0.0000000000918
 42
0.0
  0
VERTEX
  8
GROUP0
 10
440.733824290369
 20
277.262189848534
 30
0.0000000000918
 42
0.0
  0
VERTEX
  8
GROUP0
 10
440.499999999997
 20
277.256197612213
 30
0.0000000000918
 42
0.0
  0
VERTEX
  8
GROUP0
 10
433.499999999997
 20
277.256197612216
 30
0.0000000000926
 42
0.0
  0
VERTEX
  8
GROUP0
 10
433.342374234589
 20
277.252158122413
 30
0.0000000000926
 42
0.0
  0
VERTEX
  8
GROUP0
 10
432.961666114232
 20
277.34378294871
 30
0.0000000000926
 42
0.0
  0
VERTEX
  8
GROUP0
 10
432.617644558552
 20
277.530820246933
 30
0.0000000000926
 42
0.0
  0
VERTEX
  8
GROUP0
 10
432.333754068045
 20
277.800523734302
 30
0.0000000000926
 42
0.0
  0
VERTEX
  8
GROUP0
 10
432.129341310488
 20
278.134513563858
 30
0.0000000000926
 42
0.0
  0
VERTEX
  8
GROUP0
 10
432.018336677501
 20
278.510028880662
 30
0.0000000000926
 42
0.0
  0
VERTEX
  8
GROUP0
 10
432.008304951377
 20
278.901478936442
 30
0.0000000000926
 42
0.0
  0
VERTEX
  8
GROUP0
 10
432.099929777674
 20
279.282187056799
 30
0.0000000000926
 42
0.0
  0
VERTEX
  8
GROUP0
 10
432.286967075898
 20
279.626208612479
 30
0.0000000000926
 42
0.0
  0
VERTEX
  8
GROUP0
 10
432.556670563266
 20
279.910099102987
 30
0.0000000000926
 42
0.0
  0
VERTEX
  8
GROUP0
 10
432.890660392823
 20
280.114511860543
 30
0.0000000000926
 42
0.0
  0
VERTEX
  8
GROUP0
 10
433.266175709626
 20
280.225516493531
 30
0.0000000000926
 42
0.0
  0
VERTEX
  8
GROUP0
 10
433.499999999997
 20
280.231508729849
 30
0.0000000000933
 42
0.0
  0
VERTEX
  8
GROUP0
 10
440.499999999998
 20
280.231508729849
 30
0.0000000000918
 42
0.0
  0
SEQEND
  0
POLYLINE
  8
GROUP0
 66
     1
 10
0.0
 20
0.0
 30
0.0000000001063
 70
     9
  0
VERTEX
  8
GROUP0
 10
472.382355441449
 20
310.668073847984
 30
0.0000000001063
 42
0.0
  0
VERTEX
  8
GROUP0
 10
472.666245931957
 20
310.398370360615
 30
0.0000000001063
 42
0.0
  0
VERTEX
  8
GROUP0
 10
472.870658689514
 20
310.064380531059
 30
0.0000000001063
 42
0.0
  0
VERTEX
  8
GROUP0
 10
472.981663322501
 20
309.688865214255
 30
0.0000000001063
 42
0.0
  0
VERTEX
  8
GROUP0
 10
472.991695048625
 20
309.297415158475
 30
0.0000000001063
 42
0.0
  0
VERTEX
  8
GROUP0
 10
472.900070222327
 20
308.916707038118
 30
0.0000000001063
 42
0.0
  0
VERTEX
  8
GROUP0
 10
472.713032924104
 20
308.572685482438
 30
0.0000000001063
 42
0.0
  0
VERTEX
  8
GROUP0
 10
472.443329436735
 20
308.28879499193
 30
0.0000000001063
 42
0.0
  0
VERTEX
  8
GROUP0
 10
472.109339607179
 20
308.084382234374
 30
0.0000000001063
 42
0.0
  0
VERTEX
  8
GROUP0
 10
471.733824290375
 20
307.973377601386
 30
0.0000000001063
 42
0.0
  0
VERTEX
  8
GROUP0
 10
471.500000000004
 20
307.967385365065
 30
0.0000000001063
 42
0.0
  0
VERTEX
  8
GROUP0
 10
464.500000000004
 20
307.967385365068
 30
0.000000000107
 42
0.0
  0
VERTEX
  8
GROUP0
 10
464.342374234595
 20
307.963345875265
 30
0.000000000107
 42
0.0
  0
VERTEX
  8
GROUP0
 10
463.961666114239
 20
308.054970701562
 30
0.000000000107
 42
0.0
  0
VERTEX
  8
GROUP0
 10
463.617644558559
 20
308.242007999785
 30
0.000000000107
 42
0.0
  0
VERTEX
  8
GROUP0
 10
463.333754068051
 20
308.511711487154
 30
0.000000000107
 42
0.0
  0
VERTEX
  8
GROUP0
 10
463.129341310494
 20
308.84570131671
 30
0.000000000107
 42
0.0
  0
VERTEX
  8
GROUP0
 10
463.018336677507
 20
309.221216633514
 30
0.000000000107
 42
0.0
  0
VERTEX
  8
GROUP0
 10
463.008304951383
 20
309.612666689294
 30
0.000000000107
 42
0.0
  0
VERTEX
  8
GROUP0
 10
463.099929777681
 20
309.99337480965
 30
0.000000000107
 42
0.0
  0
VERTEX
  8
GROUP0
 10
463.286967075904
 20
310.337396365331
 30
0.000000000107
 42
0.0
  0
VERTEX
  8
GROUP0
 10
463.556670563272
 20
310.621286855839
 30
0.000000000107
 42
0.0
  0
VERTEX
  8
GROUP0
 10
463.890660392829
 20
310.825699613394
 30
0.000000000107
 42
0.0
  0
VERTEX
  8
GROUP0
 10
464.266175709633
 20
310.936704246382
 30
0.000000000107
 42
0.0
  0
VERTEX
  8
GROUP0
 10
464.500000000003
 20
310.942696482701
 30
0.0000000001078
 42
0.0
  0
VERTEX
  8
GROUP0
 10
471.500000000004
 20
310.942696482701
 30
0.0000000001063
 42
0.0
  0
VERTEX
  8
GROUP0
 10
471.657625765413
 20
310.946735972504
 30
0.0000000001063
 42
0.0
  0
VERTEX
  8
GROUP0
 10
472.038333885769
 20
310.855111146207
 30
0.0000000001063
 42
0.0
  0
SEQEND
  0
POLYLINE
  8
GROUP0
 66
     1
 10
0.0
 20
0.0
 30
0.000000000106
 70
     9
  0
VERTEX
  8
GROUP0
 10
440.657625765413
 20
310.94673597251
 30
0.000000000106
 42
0.0
  0
VERTEX
  8
GROUP0
 10
441.038333885769
 20
310.855111146213
 30
0.0000000001059
 42
0.0
  0
VERTEX
  8
GROUP0
 10
441.382355441449
 20
310.66807384799
 30
0.0000000001059
 42
0.0
  0
VERTEX
  8
GROUP0
 10
441.666245931957
 20
310.398370360621
 30
0.0000000001059
 42
0.0
  0
VERTEX
  8
GROUP0
 10
441.870658689514
 20
310.064380531065
 30
0.0000000001059
 42
0.0
  0
VERTEX
  8
GROUP0
 10
441.981663322501
 20
309.688865214261
 30
0.000000000106
 42
0.0
  0
VERTEX
  8
GROUP0
 10
441.991695048625
 20
309.297415158481
 30
0.0000000001061
 42
0.0
  0
VERTEX
  8
GROUP0
 10
441.900070222327
 20
308.916707038124
 30
0.0000000001062
 42
0.0
  0
VERTEX
  8
GROUP0
 10
441.713032924104
 20
308.572685482444
 30
0.0000000001064
 42
0.0
  0
VERTEX
  8
GROUP0
 10
441.443329436736
 20
308.288794991936
 30
0.0000000001065
 42
0.0
  0
VERTEX
  8
GROUP0
 10
441.109339607179
 20
308.08438223438
 30
0.0000000001066
 42
0.0
  0
VERTEX
  8
GROUP0
 10
440.733824290375
 20
307.973377601392
 30
0.0000000001067
 42
0.0
  0
VERTEX
  8
GROUP0
 10
440.500000000004
 20
307.967385365071
 30
0.0000000001068
 42
0.0
  0
VERTEX
  8
GROUP0
 10
433.500000000004
 20
307.967385365073
 30
0.000000000109
 42
0.0
  0
VERTEX
  8
GROUP0
 10
433.342374234595
 20
307.963345875271
 30
0.000000000109
 42
0.0
  0
VERTEX
  8
GROUP0
 10
432.961666114239
 20
308.054970701568
 30
0.0000000001091
 42
0.0
  0
VERTEX
  8
GROUP0
 10
432.617644558559
 20
308.242007999791
 30
0.0000000001091
 42
0.0
  0
VERTEX
  8
GROUP0
 10
432.333754068051
 20
308.51171148716
 30
0.0000000001091
 42
0.0
  0
VERTEX
  8
GROUP0
 10
432.129341310494
 20
308.845701316716
 30
0.000000000109
 42
0.0
  0
VERTEX
  8
GROUP0
 10
432.018336677507
 20
309.22121663352
 30
0.0000000001089
 42
0.0
  0
VERTEX
  8
GROUP0
 10
432.008304951383
 20
309.6126666893
 30
0.0000000001088
 42
0.0
  0
VERTEX
  8
GROUP0
 10
432.099929777681
 20
309.993374809656
 30
0.0000000001087
 42
0.0
  0
VERTEX
  8
GROUP0
 10
432.286967075904
 20
310.337396365337
 30
0.0000000001086
 42
0.0
  0
VERTEX
  8
GROUP0
 10
432.556670563273
 20
310.621286855845
 30
0.0000000001085
 42
0.0
  0
VERTEX
  8
GROUP0
 10
432.890660392829
 20
310.8256996134
 30
0.0000000001083
 42
0.0
  0
VERTEX
  8
GROUP0
 10
433.266175709633
 20
310.936704246389
 30
0.0000000001082
 42
0.0
  0
VERTEX
  8
GROUP0
 10
433.500000000004
 20
310.942696482707
 30
0.0000000001089
 42
0.0
  0
VERTEX
  8
GROUP0
 10
440.500000000004
 20
310.942696482707
 30
0.000000000106
 42
0.0
  0
SEQEND
  0
CIRCLE
  8
GROUP1
 10
545.663796362399
 20
306.000000000009
 30
0.0000000000677
 40
11.0
  0
CIRCLE
  8
GROUP1
 10
545.663796362403
 20
52.0000000000084
 30
0.0000000000011
 40
11.0
  0
POLYLINE
  8
GROUP1
 66
     1
 10
0.0
 20
0.0
 30
0.0000000000643
 70
     9
  0
VERTEX
  8
GROUP1
 10
505.663796362361
 20
204.000000000012
 30
0.0000000000643
 42
0.0
  0
VERTEX
  8
GROUP1
 10
505.663796362358
 20
194.000000000027
 30
0.0000000000643
 42
0.0
  0
VERTEX
  8
GROUP1
 10
499.663796362358
 20
194.000000000029
 30
0.0000000000643
 42
0.0
  0
VERTEX
  8
GROUP1
 10
499.663796362349
 20
164.000000000028
 30
0.0000000000628
 42
0.0
  0
VERTEX
  8
GROUP1
 10
505.663796362349
 20
164.000000000025
 30
0.0000000000644
 42
0.0
  0
VERTEX
  8
GROUP1
 10
505.663796362346
 20
154.000000000012
 30
0.0000000000644
 42
0.0
  0
VERTEX
  8
GROUP1
 10
508.032694554352
 20
148.125736895894
 30
0.000000000065
 42
0.0
  0
VERTEX
  8
GROUP1
 10
510.204511287028
 20
142.175790867555
 30
0.0000000000656
 42
0.0
  0
VERTEX
  8
GROUP1
 10
512.176833824032
 20
136.156771888476
 30
0.0000000000661
 42
0.0
  0
VERTEX
  8
GROUP1
 10
513.947471053109
 20
130.075366667353
 30
0.0000000000666
 42
0.0
  0
VERTEX
  8
GROUP1
 10
515.514455920257
 20
123.938331219629
 30
0.000000000067
 42
0.0
  0
VERTEX
  8
GROUP1
 10
516.876047614993
 20
117.752483362035
 30
0.0000000000673
 42
0.0
  0
VERTEX
  8
GROUP1
 10
518.030733504272
 20
111.524695138469
 30
0.0000000000676
 42
0.0
  0
VERTEX
  8
GROUP1
 10
518.977230812907
 20
105.26188518564
 30
0.0000000000679
 42
0.0
  0
VERTEX
  8
GROUP1
 10
519.714488048654
 20
98.9710110469515
 30
0.0000000000681
 42
0.0
  0
VERTEX
  8
GROUP1
 10
520.241686170339
 20
92.6590614431472
 30
0.0000000000682
 42
0.0
  0
VERTEX
  8
GROUP1
 10
520.558239497757
 20
86.3330485083351
 30
0.0000000000683
 42
0.0
  0
VERTEX
  8
GROUP1
 10
520.663796362324
 20
80.0000000000078
 30
0.0000000000683
 42
0.0
  0
VERTEX
  8
GROUP1
 10
520.663796362309
 20
30.0000000000077
 30
0.0000000000683
 42
0.0
  0
VERTEX
  8
GROUP1
 10
530.663796362303
 20
30.0000000000084
 30
0.0000000000751
 42
0.0
  0
VERTEX
  8
GROUP1
 10
530.663796362298
 20
12.0000000000089
 30
0.0000000000751
 42
0.0
  0
VERTEX
  8
GROUP1
 10
560.663796362298
 20
12.0
 30
0.000000000083
 42
0.0
  0
VERTEX
  8
GROUP1
 10
560.663796362304
 20
29.9999999999998
 30
0.000000000083
 42
0.0
  0
VERTEX
  8
GROUP1
 10
568.413796362304
 20
29.9999999999977
 30
0.000000000085
 42
0.0
  0
VERTEX
  8
GROUP1
 10
568.413796362319
 20
79.9999999999975
 30
0.000000000085
 42
0.0
  0
VERTEX
  8
GROUP1
 10
568.47660028695
 20
86.2268764255056
 30
0.0000000000851
 42
0.0
  0
VERTEX
  8
GROUP1
 10
568.664986508205
 20
92.4512193613614
 30
0.0000000000851
 42
0.0
  0
VERTEX
  8
GROUP1
 10
568.97887837858
 20
98.6704963486973
 30
0.0000000000852
 42
0.0
  0
VERTEX
  8
GROUP1
 10
569.418148186881
 20
104.882176989797
 30
0.0000000000853
 42
0.0
  0
VERTEX
  8
GROUP1
 10
569.982617210195
 20
111.08373397762
 30
0.0000000000855
 42
0.0
  0
VERTEX
  8
GROUP1
 10
570.672055786596
 20
117.272644124073
 30
0.0000000000856
 42
0.0
  0
VERTEX
  8
GROUP1
 10
571.486183408589
 20
123.446389386602
 30
0.0000000000859
 42
0.0
  0
VERTEX
  8
GROUP1
 10
572.424668837241
 20
129.602457892694
 30
0.0000000000861
 42
0.0
  0
VERTEX
  8
GROUP1
 10
573.487130236949
 20
135.738344961866
 30
0.0000000000864
 42
0.0
  0
VERTEX
  8
GROUP1
 10
574.673135330792
 20
141.851554124726
 30
0.0000000000867
 42
0.0
  0
VERTEX
  8
GROUP1
 10
575.982201576411
 20
147.939598138699
 30
0.000000000087
 42
0.0
  0
VERTEX
  8
GROUP1
 10
577.413796362341
 20
153.999999999994
 30
0.0000000000874
 42
0.0
  0
VERTEX
  8
GROUP1
 10
577.901350328093
 20
156.050170598095
 30
0.0000000000875
 42
0.0
  0
VERTEX
  8
GROUP1
 10
578.353653825974
 20
158.108405253482
 30
0.0000000000877
 42
0.0
  0
VERTEX
  8
GROUP1
 10
578.77057367532
 20
160.174097919407
 30
0.0000000000878
 42
0.0
  0
VERTEX
  8
GROUP1
 10
579.151987114168
 20
162.246640353109
 30
0.0000000000879
 42
0.0
  0
VERTEX
  8
GROUP1
 10
579.497781835417
 20
164.325422294918
 30
0.000000000088
 42
0.0
  0
VERTEX
  8
GROUP1
 10
579.807856019882
 20
166.409831647939
 30
0.000000000088
 42
0.0
  0
VERTEX
  8
GROUP1
 10
580.082118366289
 20
168.499254658288
 30
0.0000000000881
 42
0.0
  0
VERTEX
  8
GROUP1
 10
580.320488118149
 20
170.593076095811
 30
0.0000000000882
 42
0.0
  0
VERTEX
  8
GROUP1
 10
580.52289508754
 20
172.690679435238
 30
0.0000000000882
 42
0.0
  0
VERTEX
  8
GROUP1
 10
580.689279675773
 20
174.791447037719
 30
0.0000000000883
 42
0.0
  0
VERTEX
  8
GROUP1
 10
580.819592890942
 20
176.894760332686
 30
0.0000000000883
 42
0.0
  0
VERTEX
  8
GROUP1
 10
580.913796362349
 20
178.999999999994
 30
0.0000000000883
 42
0.0
  0
VERTEX
  8
GROUP1
 10
580.819592890943
 20
181.105239667302
 30
0.0000000000883
 42
0.0
  0
VERTEX
  8
GROUP1
 10
580.689279675775
 20
183.208552962269
 30
0.0000000000883
 42
0.0
  0
VERTEX
  8
GROUP1
 10
580.522895087543
 20
185.30932056475
 30
0.0000000000882
 42
0.0
  0
VERTEX
  8
GROUP1
 10
580.320488118155
 20
187.406923904177
 30
0.0000000000882
 42
0.0
  0
VERTEX
  8
GROUP1
 10
580.082118366296
 20
189.5007453417
 30
0.0000000000881
 42
0.0
  0
VERTEX
  8
GROUP1
 10
579.80785601989
 20
191.590168352049
 30
0.000000000088
 42
0.0
  0
VERTEX
  8
GROUP1
 10
579.497781835425
 20
193.674577705071
 30
0.000000000088
 42
0.0
  0
VERTEX
  8
GROUP1
 10
579.151987114179
 20
195.75335964688
 30
0.0000000000879
 42
0.0
  0
VERTEX
  8
GROUP1
 10
578.770573675331
 20
197.825902080582
 30
0.0000000000878
 42
0.0
  0
VERTEX
  8
GROUP1
 10
578.353653825987
 20
199.891594746507
 30
0.0000000000877
 42
0.0
  0
VERTEX
  8
GROUP1
 10
577.901350328107
 20
201.949829401895
 30
0.0000000000875
 42
0.0
  0
VERTEX
  8
GROUP1
 10
577.413796362356
 20
203.999999999995
 30
0.0000000000874
 42
0.0
  0
VERTEX
  8
GROUP1
 10
575.98220157643
 20
210.060401861292
 30
0.000000000087
 42
0.0
  0
VERTEX
  8
GROUP1
 10
574.673135330814
 20
216.148445875265
 30
0.0000000000867
 42
0.0
  0
VERTEX
  8
GROUP1
 10
573.487130236975
 20
222.261655038126
 30
0.0000000000864
 42
0.0
  0
VERTEX
  8
GROUP1
 10
572.424668837271
 20
228.397542107298
 30
0.0000000000861
 42
0.0
  0
VERTEX
  8
GROUP1
 10
571.486183408623
 20
234.553610613392
 30
0.0000000000859
 42
0.0
  0
VERTEX
  8
GROUP1
 10
570.672055786633
 20
240.727355875922
 30
0.0000000000856
 42
0.0
  0
VERTEX
  8
GROUP1
 10
569.982617210237
 20
246.916266022375
 30
0.0000000000855
 42
0.0
  0
VERTEX
  8
GROUP1
 10
569.418148186926
 20
253.117823010198
 30
0.0000000000853
 42
0.0
  0
VERTEX
  8
GROUP1
 10
568.978878378628
 20
259.329503651298
 30
0.0000000000852
 42
0.0
  0
VERTEX
  8
GROUP1
 10
568.664986508257
 20
265.548780638635
 30
0.0000000000851
 42
0.0
  0
VERTEX
  8
GROUP1
 10
568.476600287006
 20
271.77312357449
 30
0.0000000000851
 42
0.0
  0
VERTEX
  8
GROUP1
 10
568.413796362379
 20
277.999999999998
 30
0.000000000085
 42
0.0
  0
VERTEX
  8
GROUP1
 10
568.413796362394
 20
327.999999999998
 30
0.000000000085
 42
0.0
  0
VERTEX
  8
GROUP1
 10
560.663796362394
 20
328.0
 30
0.000000000083
 42
0.0
  0
VERTEX
  8
GROUP1
 10
560.663796362399
 20
346.0
 30
0.000000000083
 42
0.0
  0
VERTEX
  8
GROUP1
 10
530.663796362399
 20
346.000000000009
 30
0.0000000000751
 42
0.0
  0
VERTEX
  8
GROUP1
 10
530.663796362394
 20
328.00000000001
 30
0.0000000000751
 42
0.0
  0
VERTEX
  8
GROUP1
 10
520.663796362399
 20
328.000000000008
 30
0.0000000000683
 42
0.0
  0
VERTEX
  8
GROUP1
 10
520.663796362384
 20
278.000000000008
 30
0.0000000000683
 42
0.0
  0
VERTEX
  8
GROUP1
 10
520.558239497813
 20
271.666951491681
 30
0.0000000000683
 42
0.0
  0
VERTEX
  8
GROUP1
 10
520.241686170391
 20
265.34093855687
 30
0.0000000000682
 42
0.0
  0
VERTEX
  8
GROUP1
 10
519.714488048702
 20
259.028988953066
 30
0.000000000068
 42
0.0
  0
VERTEX
  8
GROUP1
 10
518.977230812952
 20
252.738114814377
 30
0.0000000000679
 42
0.0
  0
VERTEX
  8
GROUP1
 10
518.030733504313
 20
246.47530486155
 30
0.0000000000676
 42
0.0
  0
VERTEX
  8
GROUP1
 10
516.876047615031
 20
240.247516637984
 30
0.0000000000673
 42
0.0
  0
VERTEX
  8
GROUP1
 10
515.51445592029
 20
234.06166878039
 30
0.0000000000669
 42
0.0
  0
VERTEX
  8
GROUP1
 10
513.947471053138
 20
227.924633332667
 30
0.0000000000665
 42
0.0
  0
VERTEX
  8
GROUP1
 10
512.176833824058
 20
221.843228111545
 30
0.0000000000661
 42
0.0
  0
VERTEX
  8
GROUP1
 10
510.204511287051
 20
215.824209132468
 30
0.0000000000655
 42
0.0
  0
VERTEX
  8
GROUP1
 10
508.032694554371
 20
209.874263104129
 30
0.000000000065
 42
0.0
  0
SEQEND
  0
POLYLINE
  8
GROUP1
 66
     1
 10
0.0
 20
0.0
 30
0.0000000001762
 70
     9
  0
VERTEX
  8
GROUP1
 10
540.663796362302
 20
24.0000000000058
 30
0.0000000001762
 42
0.0
  0
VERTEX
  8
GROUP1
 10
550.663796362302
 20
24.0000000000029
 30
0.0000000001795
 42
0.0
  0
VERTEX
  8
GROUP1
 10
550.6637963623
 20
18.0000000000029
 30
0.0000000001795
 42
0.0
  0
VERTEX
  8
GROUP1
 10
540.6637963623
 20
18.0000000000058
 30
0.0000000001762
 42
0.0
  0
SEQEND
  0
POLYLINE
  8
GROUP1
 66
     1
 10
0.0
 20
0.0
 30
0.0000000001735
 70
     9
  0
VERTEX
  8
GROUP1
 10
540.663796362397
 20
340.000000000006
 30
0.0000000001735
 42
0.0
  0
VERTEX
  8
GROUP1
 10
550.663796362397
 20
340.000000000003
 30
0.0000000001768
 42
0.0
  0
VERTEX
  8
GROUP1
 10
550.663796362395
 20
334.000000000003
 30
0.0000000001768
 42
0.0
  0
VERTEX
  8
GROUP1
 10
540.663796362396
 20
334.000000000006
 30
0.0000000001735
 42
0.0
  0
SEQEND
  0
POLYLINE
  8
GROUP2
 66
     1
 10
0.0
 20
0.0
 30
0.0000000000856
 70
     1
  0
VERTEX
  8
GROUP2
 10
27.0
 20
12.0000000000094
 42
0.0
  0
VERTEX
  8
GROUP2
 10
331.0
 20
12.0000000000094
 42
0.0
  0
VERTEX
  8
GROUP2
 10
332.957892883301
 20
12.1283270794022
 42
0.0
  0
VERTEX
  8
GROUP2
 10
334.882285676538
 20
12.5111126056734
 42
0.0
  0
VERTEX
  8
GROUP2
 10
336.740251485476
 20
13.1418070123401
 42
0.0
  0
VERTEX
  8
GROUP2
 10
338.5
 20
14.0096189432428
 42
0.0
  0
VERTEX
  8
GROUP2
 10
340.131421435131
 20
15.0996998956409
 42
0.0
  0
VERTEX
  8
GROUP2
 10
341.606601717798
 20
16.3933982822111
 42
0.0
  0
VERTEX
  8
GROUP2
 10
342.900300104369
 20
17.8685785648785
 42
0.0
  0
VERTEX
  8
GROUP2
 10
343.990381056767
 20
19.5000000000094
 42
0.0
  0
VERTEX
  8
GROUP2
 10
344.858192987669
 20
21.259748514533
 42
0.0
  0
VERTEX
  8
GROUP2
 10
345.488887394336
 20
23.1177143234715
 42
0.0
  0
VERTEX
  8
GROUP2
 10
345.871672920607
 20
25.0421071167086
 42
0.0
  0
VERTEX
  8
GROUP2
 10
346.0
 20
27.0000000000093
 42
0.0
  0
VERTEX
  8
GROUP2
 10
346.0
 20
404.000000000009
 42
0.0
  0
VERTEX
  8
GROUP2
 10
345.871672920607
 20
405.95789288331
 42
0.0
  0
VERTEX
  8
GROUP2
 10
345.488887394336
 20
407.882285676547
 42
0.0
  0
VERTEX
  8
GROUP2
 10
344.858192987669
 20
409.740251485486
 42
0.0
  0
VERTEX
  8
GROUP2
 10
343.990381056767
 20
411.500000000009
 42
0.0
  0
VERTEX
  8
GROUP2
 10
342.900300104369
 20
413.13142143514
 42
0.0
  0
VERTEX
  8
GROUP2
 10
341.606601717798
 20
414.606601717808
 42
0.0
  0
VERTEX
  8
GROUP2
 10
340.131421435131
 20
415.900300104378
 42
0.0
  0
VERTEX
  8
GROUP2
 10
338.5
 20
416.990381056776
 42
0.0
  0
VERTEX
  8
GROUP2
 10
336.740251485476
 20
417.858192987679
 42
0.0
  0
VERTEX
  8
GROUP2
 10
334.882285676538
 20
418.488887394345
 42
0.0
  0
VERTEX
  8
GROUP2
 10
332.957892883301
 20
418.871672920617
 42
0.0
  0
VERTEX
  8
GROUP2
 10
331.0
 20
419.000000000009
 42
0.0
  0
VERTEX
  8
GROUP2
 10
27.0
 20
419.000000000009
 42
0.0
  0
VERTEX
  8
GROUP2
 10
25.0421071166993
 20
418.871672920617
 42
0.0
  0
VERTEX
  8
GROUP2
 10
23.1177143234622
 20
418.488887394345
 42
0.0
  0
VERTEX
  8
GROUP2
 10
21.2597485145237
 20
417.858192987679
 42
0.0
  0
VERTEX
  8
GROUP2
 10
19.5
 20
416.990381056776
 42
0.0
  0
VERTEX
  8
GROUP2
 10
17.8685785648692
 20
415.900300104378
 42
0.0
  0
VERTEX
  8
GROUP2
 10
16.3933982822018
 20
414.606601717808
 42
0.0
  0
VERTEX
  8
GROUP2
 10
15.0996998956315
 20
413.13142143514
 42
0.0
  0
VERTEX
  8
GROUP2
 10
14.0096189432335
 20
411.500000000009
 42
0.0
  0
VERTEX
  8
GROUP2
 10
13.1418070123308
 20
409.740251485486
 42
0.0
  0
VERTEX
  8
GROUP2
 10
12.511112605664
 20
407.882285676547
 42
0.0
  0
VERTEX
  8
GROUP2
 10
12.1283270793929
 20
405.95789288331
 42
0.0
  0
VERTEX
  8
GROUP2
 10
12.0
 20
404.000000000009
 42
0.0
  0
VERTEX
  8
GROUP2
 10
12.0
 20
27.0000000000094
 42
0.0
  0
VERTEX
  8
GROUP2
 10
12.1283270793928
 20
25.0421071167086
 42
0.0
  0
VERTEX
  8
GROUP2
 10
12.511112605664
 20
23.1177143234715
 42
0.0
  0
VERTEX
  8
GROUP2
 10
13.1418070123307
 20
21.259748514533
 42
0.0
  0
VERTEX
  8
GROUP2
 10
14.0096189432334
 20
19.5000000000095
 42
0.0
  0
VERTEX
  8
GROUP2
 10
15.0996998956315
 20
17.8685785648786
 42
0.0
  0
VERTEX
  8
GROUP2
 10
16.3933982822018
 20
16.3933982822112
 42
0.0
  0
VERTEX
  8
GROUP2
 10
17.8685785648692
 20
15.0996998956409
 42
0.0
  0
VERTEX
  8
GROUP2
 10
19.5
 20
14.0096189432428
 42
0.0
  0
VERTEX
  8
GROUP2
 10
21.2597485145237
 20
13.1418070123402
 42
0.0
  0
VERTEX
  8
GROUP2
 10
23.1177143234622
 20
12.5111126056734
 42
0.0
  0
VERTEX
  8
GROUP2
 10
25.0421071166992
 20
12.1283270794022
 42
0.0
  0
SEQEND
  0
POLYLINE
  8
GROUP2
 66
     1
 10
0.0
 20
0.0
 30
0.0000000001982
 70
     9
  0
VERTEX
  8
GROUP2
 10
23.9999999999975
 20
353.000000000018
 30
0.0000000001982
 42
0.0
  0
VERTEX
  8
GROUP2
 10
23.9999999999976
 20
383.000000000016
 30
0.000000000197
 42
0.0
  0
VERTEX
  8
GROUP2
 10
29.9999999999952
 20
383.000000000016
 30
0.000000000197
 42
0.0
  0
VERTEX
  8
GROUP2
 10
29.9999999999951
 20
353.000000000018
 30
0.0000000001984
 42
0.0
  0
SEQEND
  0
POLYLINE
  8
GROUP2
 66
     1
 10
0.0
 20
0.0
 30
0.0000000001982
 70
     9
  0
VERTEX
  8
GROUP2
 10
23.9999999999975
 20
200.500000000018
 30
0.0000000001982
 42
0.0
  0
VERTEX
  8
GROUP2
 10
23.9999999999976
 20
230.500000000016
 30
0.0000000001971
 42
0.0
  0
VERTEX
  8
GROUP2
 10
29.9999999999952
 20
230.500000000016
 30
0.0000000001971
 42
0.0
  0
VERTEX
  8
GROUP2
 10
29.9999999999951
 20
200.500000000018
 30
0.0000000001984
 42
0.0
  0
SEQEND
  0
POLYLINE
  8
GROUP2
 66
     1
 10
0.0
 20
0.0
 30
0.0000000001982
 70
     9
  0
VERTEX
  8
GROUP2
 10
23.9999999999975
 20
47.9999994039944
 30
0.0000000001982
 42
0.0
  0
VERTEX
  8
GROUP2
 10
23.9999999999976
 20
77.9999994039921
 30
0.0000000001971
 42
0.0
  0
VERTEX
  8
GROUP2
 10
29.9999999999952
 20
77.9999994039921
 30
0.0000000001971
 42
0.0
  0
VERTEX
  8
GROUP2
 10
29.9999999999951
 20
47.9999994039944
 30
0.0000000001984
 42
0.0
  0
SEQEND
  0
POLYLINE
  8
GROUP2
 66
     1
 10
0.0
 20
0.0
 30
0.0000000001962
 70
     9
  0
VERTEX
  8
GROUP2
 10
328.0
 20
47.9999994039944
 30
0.0000000001962
 42
0.0
  0
VERTEX
  8
GROUP2
 10
328.0
 20
77.9999994039921
 30
0.0000000001951
 42
0.0
  0
VERTEX
  8
GROUP2
 10
333.999999999998
 20
77.9999994039921
 30
0.0000000001951
 42
0.0
  0
VERTEX
  8
GROUP2
 10
333.999999999998
 20
47.9999994039944
 30
0.0000000001964
 42
0.0
  0
SEQEND
  0
POLYLINE
  8
GROUP2
 66
     1
 10
0.0
 20
0.0
 30
0.0000000001962
 70
     9
  0
VERTEX
  8
GROUP2
 10
328.0
 20
200.500000000019
 30
0.0000000001962
 42
0.0
  0
VERTEX
  8
GROUP2
 10
328.0
 20
230.500000000017
 30
0.0000000001951
 42
0.0
  0
VERTEX
  8
GROUP2
 10
333.999999999997
 20
230.500000000017
 30
0.0000000001951
 42
0.0
  0
VERTEX
  8
GROUP2
 10
333.999999999997
 20
200.500000000019
 30
0.0000000001964
 42
0.0
  0
SEQEND
  0
POLYLINE
  8
GROUP2
 66
     1
 10
0.0
 20
0.0
 30
0.0000000001962
 70
     9
  0
VERTEX
  8
GROUP2
 10
328.0
 20
353.000000000018
 30
0.0000000001962
 42
0.0
  0
VERTEX
  8
GROUP2
 10
328.0
 20
383.000000000016
 30
0.0000000001951
 42
0.0
  0
VERTEX
  8
GROUP2
 10
333.999999999998
 20
383.000000000016
 30
0.0000000001951
 42
0.0
  0
VERTEX
  8
GROUP2
 10
333.999999999998
 20
353.000000000018
 30
0.0000000001964
 42
0.0
  0
SEQEND
  0
POLYLINE
  8
GROUP2
 66
     1
 10
0.0
 20
0.0
 30
0.0000000001951
 70
     9
  0
VERTEX
  8
GROUP2
 10
163.999999999993
 20
65.825000000007
 30
0.0000000001951
 42
0.0
  0
VERTEX
  8
GROUP2
 10
193.999999999991
 20
65.8250000000069
 30
0.0000000001964
 42
0.0
  0
VERTEX
  8
GROUP2
 10
193.999999999991
 20
59.8250000000093
 30
0.0000000001962
 42
0.0
  0
VERTEX
  8
GROUP2
 10
163.999999999993
 20
59.8250000000094
 30
0.0000000001951
 42
0.0
  0
SEQEND
  0
POLYLINE
  8
GROUP2
 66
     1
 10
0.0
 20
0.0
 30
0.000000000195
 70
     9
  0
VERTEX
  8
GROUP2
 10
163.999999999993
 20
374.999999146203
 30
0.000000000195
 42
0.0
  0
VERTEX
  8
GROUP2
 10
193.999999999991
 20
374.999999146203
 30
0.0000000001964
 42
0.0
  0
VERTEX
  8
GROUP2
 10
193.999999999991
 20
368.999999146205
 30
0.0000000001962
 42
0.0
  0
VERTEX
  8
GROUP2
 10
163.999999999993
 20
368.999999146205
 30
0.000000000195
 42
0.0
  0
SEQEND
  0
POLYLINE
  8
GROUP3
 66
     1
 10
0.0
 20
0.0
 30
0.0000000000936
 70
     9
  0
VERTEX
  8
GROUP3
 10
598.000002251973
 20
421.249625309457
 30
0.0000000000936
 42
0.0
  0
VERTEX
  8
GROUP3
 10
556.000002251973
 20
421.249625309457
 30
0.0000000000739
 42
0.0
  0
VERTEX
  8
GROUP3
 10
556.000002251973
 20
413.249624631444
 30
0.0000000000902
 42
0.0
  0
VERTEX
  8
GROUP3
 10
550.000002251973
 20
413.249624631444
 30
0.0000000000767
 42
0.0
  0
VERTEX
  8
GROUP3
 10
550.000002251976
 20
373.249624631446
 30
0.0000000000697
 42
0.0
  0
VERTEX
  8
GROUP3
 10
556.000002251976
 20
373.249624631446
 30
0.0000000000718
 42
0.0
  0
VERTEX
  8
GROUP3
 10
556.000002251977
 20
365.249625309457
 30
0.0000000000726
 42
0.0
  0
VERTEX
  8
GROUP3
 10
598.000002251977
 20
365.249624691053
 30
0.0000000000696
 42
0.0
  0
VERTEX
  8
GROUP3
 10
598.000002251976
 20
373.249624631448
 30
0.0000000000695
 42
0.0
  0
VERTEX
  8
GROUP3
 10
604.000002251976
 20
373.249624631448
 30
0.0000000000695
 42
0.0
  0
VERTEX
  8
GROUP3
 10
604.000002251974
 20
413.249624631445
 30
0.0000000001038
 42
0.0
  0
VERTEX
  8
GROUP3
 10
598.000002251974
 20
413.249624631444
 30
0.0000000000889
 42
0.0
  0
SEQEND
  0
POLYLINE
  8
GROUP4
 66
     1
 10
0.0
 20
0.0
 30
0.0000000000818
 70
     9
  0
VERTEX
  8
GROUP4
 10
537.000002251978
 20
421.249624940641
 30
0.0000000000818
 42
0.0
  0
VERTEX
  8
GROUP4
 10
495.000002251978
 20
421.249624940648
 30
0.0000000000624
 42
0.0
  0
VERTEX
  8
GROUP4
 10
495.000002251976
 20
413.249624262636
 30
0.0000000000787
 42
0.0
  0
VERTEX
  8
GROUP4
 10
489.000002251976
 20
413.249624262637
 30
0.0000000000653
 42
0.0
  0
VERTEX
  8
GROUP4
 10
489.000002251972
 20
373.249624262639
 30
0.000000000058
 42
0.0
  0
VERTEX
  8
GROUP4
 10
495.000002251973
 20
373.249624262638
 30
0.00000000006
 42
0.0
  0
VERTEX
  8
GROUP4
 10
495.000002251972
 20
365.249624940648
 30
0.0000000000607
 42
0.0
  0
VERTEX
  8
GROUP4
 10
537.000002251972
 20
365.249624322238
 30
0.0000000000574
 42
0.0
  0
VERTEX
  8
GROUP4
 10
537.000002251973
 20
373.249624262632
 30
0.0000000000573
 42
0.0
  0
VERTEX
  8
GROUP4
 10
543.000002251973
 20
373.249624262631
 30
0.0000000000573
 42
0.0
  0
VERTEX
  8
GROUP4
 10
543.000002251977
 20
413.249624262628
 30
0.000000000092
 42
0.0
  0
VERTEX
  8
GROUP4
 10
537.000002251977
 20
413.249624262629
 30
0.000000000077
 42
0.0
  0
SEQEND
  0
POLYLINE
  8
GROUP5
 66
     1
 10
0.0
 20
0.0
 30
0.0000000000657
 70
     9
  0
VERTEX
  8
GROUP5
 10
416.000000056722
 20
80.0994470474614
 30
0.0000000000657
 42
0.0
  0
VERTEX
  8
GROUP5
 10
416.000000056722
 20
70.0994470474614
 30
0.0000000000658
 42
0.0
  0
VERTEX
  8
GROUP5
 10
458.000000056723
 20
70.0994470474621
 30
0.0000000000659
 42
0.0
  0
VERTEX
  8
GROUP5
 10
458.000000056721
 20
80.0994470474621
 30
0.0000000000659
 42
0.0
  0
VERTEX
  8
GROUP5
 10
464.000000056722
 20
80.0994470474622
 30
0.0000000000659
 42
0.0
  0
VERTEX
  8
GROUP5
 10
464.000000056722
 20
110.099447047462
 30
0.0000000000657
 42
0.0
  0
VERTEX
  8
GROUP5
 10
458.000000056721
 20
110.099447047462
 30
0.0000000000655
 42
0.0
  0
VERTEX
  8
GROUP5
 10
458.000000056722
 20
120.099447047462
 30
0.0000000000655
 42
0.0
  0
VERTEX
  8
GROUP5
 10
416.000000056721
 20
120.099447047461
 30
0.0000000000654
 42
0.0
  0
VERTEX
  8
GROUP5
 10
416.000000056722
 20
110.099447047461
 30
0.0000000000655
 42
0.0
  0
VERTEX
  8
GROUP5
 10
410.000000056721
 20
110.099447047461
 30
0.0000000000653
 42
0.0
  0
VERTEX
  8
GROUP5
 10
410.000000056721
 20
80.0994470474613
 30
0.0000000000657
 42
0.0
  0
SEQEND
  0
POLYLINE
  8
GROUP6
 66
     1
 10
0.0
 20
0.0
 30
0.0000000000856
 70
     9
  0
VERTEX
  8
GROUP6
 10
12.0
 20
474.99999999998
 30
0.0000000000856
 42
0.0
  0
VERTEX
  8
GROUP6
 10
345.999999999973
 20
475.000000000038
 30
0.0000000000855
 42
0.0
  0
VERTEX
  8
GROUP6
 10
345.999999999973
 20
555.000000000037
 30
0.0000000000865
 42
0.0
  0
VERTEX
  8
GROUP6
 10
12.0
 20
554.99999999998
 30
0.0000000000866
 42
0.0
  0
SEQEND
  0
POLYLINE
  8
GROUP6
 66
     1
 10
0.0
 20
0.0
 30
0.0000000001972
 70
     9
  0
VERTEX
  8
GROUP6
 10
193.999999999986
 20
523.000000000006
 30
0.0000000001972
 42
0.0
  0
VERTEX
  8
GROUP6
 10
163.999999999988
 20
523.000000000006
 30
0.0000000001961
 42
0.0
  0
VERTEX
  8
GROUP6
 10
163.999999999988
 20
529.000000000004
 30
0.0000000001961
 42
0.0
  0
VERTEX
  8
GROUP6
 10
193.999999999986
 20
529.000000000004
 30
0.0000000001974
 42
0.0
  0
SEQEND
  0
POLYLINE
  8
GROUP6
 66
     1
 10
0.0
 20
0.0
 30
0.0000000000869
 70
     9
  0
VERTEX
  8
GROUP6
 10
29.9999999999976
 20
534.99999999998
 30
0.0000000000869
 42
0.0
  0
VERTEX
  8
GROUP6
 10
29.9999999999976
 20
494.999999999981
 30
0.0000000000854
 42
0.0
  0
VERTEX
  8
GROUP6
 10
23.9999999999976
 20
494.999999999981
 30
0.0000000000869
 42
0.0
  0
VERTEX
  8
GROUP6
 10
23.9999999999976
 20
534.99999999998
 30
0.0000000000869
 42
0.0
  0
SEQEND
  0
POLYLINE
  8
GROUP6
 66
     1
 10
0.0
 20
0.0
 30
0.0000000000863
 70
     9
  0
VERTEX
  8
GROUP6
 10
333.999999999993
 20
535.000000000025
 30
0.0000000000863
 42
0.0
  0
VERTEX
  8
GROUP6
 10
333.999999999993
 20
495.000000000027
 30
0.0000000000853
 42
0.0
  0
VERTEX
  8
GROUP6
 10
327.999999999993
 20
495.000000000027
 30
0.0000000000868
 42
0.0
  0
VERTEX
  8
GROUP6
 10
327.999999999993
 20
535.000000000025
 30
0.0000000000863
 42
0.0
  0
SEQEND
  0
POLYLINE
  8
GROUP7
 66
     1
 10
0.0
 20
0.0
 30
0.0000000001213
 70
     9
  0
VERTEX
  8
GROUP7
 10
710.00000341976
 20
12.000000000008
 30
0.0000000001213
 42
0.0
  0
VERTEX
  8
GROUP7
 10
784.000002972742
 20
12.00000059603
 30
0.0000000000888
 42
0.0
  0
VERTEX
  8
GROUP7
 10
784.000002972742
 20
32.0000005960303
 30
0.0000000000888
 42
0.0
  0
VERTEX
  8
GROUP7
 10
790.000002972742
 20
32.0000005960304
 30
0.0000000001051
 42
0.0
  0
VERTEX
  8
GROUP7
 10
790.000002972743
 20
72.0000006407323
 30
0.0000000001051
 42
0.0
  0
VERTEX
  8
GROUP7
 10
784.000002972743
 20
72.0000005513287
 30
0.0000000001052
 42
0.0
  0
VERTEX
  8
GROUP7
 10
784.000002525725
 20
92.00000110265
 30
0.0000000001214
 42
0.0
  0
VERTEX
  8
GROUP7
 10
790.000002525725
 20
92.0000011920537
 30
0.0000000001214
 42
0.0
  0
VERTEX
  8
GROUP7
 10
789.999998299282
 20
359.294771896537
 30
0.0000000001001
 42
0.0
  0
VERTEX
  8
GROUP7
 10
789.903675820393
 20
362.230337024064
 30
0.0000000001007
 42
0.0
  0
VERTEX
  8
GROUP7
 10
789.615583633227
 20
365.15331898254
 30
0.0000000001012
 42
0.0
  0
VERTEX
  8
GROUP7
 10
789.136955145196
 20
368.051203626264
 30
0.0000000001017
 42
0.0
  0
VERTEX
  8
GROUP7
 10
788.469839505667
 20
370.91158425852
 30
0.0000000001021
 42
0.0
  0
VERTEX
  8
GROUP7
 10
787.61709283296
 20
373.722214748299
 30
0.0000000001024
 42
0.0
  0
VERTEX
  8
GROUP7
 10
786.582365986456
 20
376.471061959587
 30
0.0000000001027
 42
0.0
  0
VERTEX
  8
GROUP7
 10
785.370088936204
 20
379.146357268767
 30
0.0000000001029
 42
0.0
  0
VERTEX
  8
GROUP7
 10
783.985451796904
 20
381.736646949547
 30
0.0000000001031
 42
0.0
  0
VERTEX
  8
GROUP7
 10
782.43438260751
 20
384.230841209744
 30
0.0000000001032
 42
0.0
  0
VERTEX
  8
GROUP7
 10
780.723521951545
 20
386.61826166994
 30
0.0000000001033
 42
0.0
  0
VERTEX
  8
GROUP7
 10
778.860194526812
 20
388.888687080766
 30
0.0000000001033
 42
0.0
  0
VERTEX
  8
GROUP7
 10
776.852377786205
 20
391.032397083081
 30
0.0000000001032
 42
0.0
  0
VERTEX
  8
GROUP7
 10
754.188075728178
 20
413.69669914111
 30
0.0000000000989
 42
0.0
  0
VERTEX
  8
GROUP7
 10
753.333261332438
 20
414.520791924655
 30
0.0000000000995
 42
0.0
  0
VERTEX
  8
GROUP7
 10
752.424371451052
 20
415.28483102743
 30
0.0000000001002
 42
0.0
  0
VERTEX
  8
GROUP7
 10
751.465616216508
 20
415.985277290386
 30
0.0000000001009
 42
0.0
  0
VERTEX
  8
GROUP7
 10
750.461436746089
 20
416.618886127321
 30
0.0000000001016
 42
0.0
  0
VERTEX
  8
GROUP7
 10
749.416484569863
 20
417.182722554358
 30
0.0000000001023
 42
0.0
  0
VERTEX
  8
GROUP7
 10
748.335600084004
 20
417.674174785285
 30
0.000000000103
 42
0.0
  0
VERTEX
  8
GROUP7
 10
747.223790129255
 20
418.090966329797
 30
0.0000000001038
 42
0.0
  0
VERTEX
  8
GROUP7
 10
746.086204798392
 20
418.431166538585
 30
0.0000000001045
 42
0.0
  0
VERTEX
  8
GROUP7
 10
744.928113580114
 20
418.693199546431
 30
0.0000000001053
 42
0.0
  0
VERTEX
  8
GROUP7
 10
743.754880949877
 20
418.875851571882
 30
0.000000000106
 42
0.0
  0
VERTEX
  8
GROUP7
 10
742.571941520733
 20
418.978276539698
 30
0.0000000001068
 42
0.0
  0
VERTEX
  8
GROUP7
 10
741.384774869279
 20
419.000000000009
 30
0.0000000001075
 42
0.0
  0
VERTEX
  8
GROUP7
 10
709.999997355227
 20
419.000000000008
 30
0.0000000001213
 42
0.0
  0
VERTEX
  8
GROUP7
 10
710.000000686102
 20
383.000001192056
 30
0.0000000000734
 42
0.0
  0
VERTEX
  8
GROUP7
 10
704.000000686102
 20
383.000001192056
 30
0.0000000000734
 42
0.0
  0
VERTEX
  8
GROUP7
 10
704.000000686102
 20
353.000001192056
 30
0.0000000000734
 42
0.0
  0
VERTEX
  8
GROUP7
 10
710.000000686102
 20
353.000001192055
 30
0.0000000000734
 42
0.0
  0
VERTEX
  8
GROUP7
 10
710.000001672596
 20
230.500001215827
 30
0.0000000000734
 42
0.0
  0
VERTEX
  8
GROUP7
 10
704.000000448389
 20
230.500001168285
 30
0.0000000000734
 42
0.0
  0
VERTEX
  8
GROUP7
 10
704.000000686098
 20
200.500001215827
 30
0.0000000000734
 42
0.0
  0
VERTEX
  8
GROUP7
 10
710.000001910305
 20
200.500001263368
 30
0.0000000000734
 42
0.0
  0
VERTEX
  8
GROUP7
 10
710.000002896799
 20
78.0000005960319
 30
0.0000000001213
 42
0.0
  0
VERTEX
  8
GROUP7
 10
704.000000448385
 20
78.0000005484903
 30
0.0000000001213
 42
0.0
  0
VERTEX
  8
GROUP7
 10
704.000000686094
 20
48.0000005960325
 30
0.0000000001213
 42
0.0
  0
VERTEX
  8
GROUP7
 10
710.000003134508
 20
48.0000006435741
 30
0.0000000001213
 42
0.0
  0
SEQEND
  0
POLYLINE
  8
GROUP7
 66
     1
 10
0.0
 20
0.0
 30
0.0000000002305
 70
     9
  0
VERTEX
  8
GROUP7
 10
764.999998010859
 20
375.000000683638
 30
0.0000000002305
 42
0.0
  0
VERTEX
  8
GROUP7
 10
764.999998010859
 20
369.00000068364
 30
0.0000000002304
 42
0.0
  0
VERTEX
  8
GROUP7
 10
734.999998010861
 20
369.000000683641
 30
0.0000000002355
 42
0.0
  0
VERTEX
  8
GROUP7
 10
734.999998010861
 20
375.000000683638
 30
0.0000000002354
 42
0.0
  0
SEQEND
  0
POLYLINE
  8
GROUP7
 66
     1
 10
0.0
 20
0.0
 30
0.0000000000976
 70
     9
  0
VERTEX
  8
GROUP7
 10
741.497038726886
 20
412.245600518672
 30
0.0000000000976
 42
0.0
  0
VERTEX
  8
GROUP7
 10
754.18075161452
 20
399.561887631037
 30
0.0000000000861
 42
0.0
  0
VERTEX
  8
GROUP7
 10
762.71024216248
 20
391.032397083077
 30
0.0000000000945
 42
0.0
  0
VERTEX
  8
GROUP7
 10
758.467601475362
 20
386.789756395959
 30
0.000000000095
 42
0.0
  0
VERTEX
  8
GROUP7
 10
737.254398039767
 20
408.002959831555
 30
0.0000000000981
 42
0.0
  0
SEQEND
  0
POLYLINE
  8
GROUP7
 66
     1
 10
0.0
 20
0.0
 30
0.0000000002305
 70
     9
  0
VERTEX
  8
GROUP7
 10
765.000002615135
 20
66.000001043421
 30
0.0000000002305
 42
0.0
  0
VERTEX
  8
GROUP7
 10
765.000002615135
 20
60.0000010434233
 30
0.0000000002304
 42
0.0
  0
VERTEX
  8
GROUP7
 10
735.000002615137
 20
60.0000010434239
 30
0.0000000002355
 42
0.0
  0
VERTEX
  8
GROUP7
 10
735.000002615138
 20
66.0000010434216
 30
0.0000000002354
 42
0.0
  0
SEQEND
  0
POLYLINE
  8
GROUP8
 66
     1
 10
0.0
 20
0.0
 30
0.0000000000856
 70
     1
  0
VERTEX
  8
GROUP8
 10
328.0
 20
432.00000000001
 42
0.0
  0
VERTEX
  8
GROUP8
 10
346.0
 20
432.00000000001
 42
0.0
  0
VERTEX
  8
GROUP8
 10
346.0
 20
462.00000000001
 42
0.0
  0
VERTEX
  8
GROUP8
 10
328.0
 20
462.00000000001
 42
0.0
  0
VERTEX
  8
GROUP8
 10
328.0
 20
468.00000000001
 42
0.0
  0
VERTEX
  8
GROUP8
 10
30.0
 20
468.00000000001
 42
0.0
  0
VERTEX
  8
GROUP8
 10
30.0
 20
462.00000000001
 42
0.0
  0
VERTEX
  8
GROUP8
 10
12.0
 20
462.00000000001
 42
0.0
  0
VERTEX
  8
GROUP8
 10
12.0
 20
432.00000000001
 42
0.0
  0
VERTEX
  8
GROUP8
 10
30.0000000000002
 20
432.00000000001
 42
0.0
  0
VERTEX
  8
GROUP8
 10
30.0000000000002
 20
426.00000000001
 42
0.0
  0
VERTEX
  8
GROUP8
 10
328.0
 20
426.00000000001
 42
0.0
  0
SEQEND
  0
POLYLINE
  8
GROUP8
 66
     1
 10
0.0
 20
0.0
 30
0.0000000000856
 70
     1
  0
VERTEX
  8
GROUP8
 10
18.0
 20
442.00000000001
 42
0.0
  0
VERTEX
  8
GROUP8
 10
18.0
 20
452.00000000001
 42
0.0
  0
VERTEX
  8
GROUP8
 10
24.0
 20
452.00000000001
 42
0.0
  0
VERTEX
  8
GROUP8
 10
24.0
 20
442.00000000001
 42
0.0
  0
SEQEND
  0
POLYLINE
  8
GROUP8
 66
     1
 10
0.0
 20
0.0
 30
0.0000000000856
 70
     1
  0
VERTEX
  8
GROUP8
 10
334.0
 20
442.00000000001
 42
0.0
  0
VERTEX
  8
GROUP8
 10
334.0
 20
452.00000000001
 42
0.0
  0
VERTEX
  8
GROUP8
 10
340.0
 20
452.00000000001
 42
0.0
  0
VERTEX
  8
GROUP8
 10
340.0
 20
442.00000000001
 42
0.0
  0
SEQEND
  0
POLYLINE
  8
GROUP9
 66
     1
 10
0.0
 20
0.0
 30
0.0000000000625
 70
     9
  0
VERTEX
  8
GROUP9
 10
617.000003779261
 20
383.000001192055
 30
0.0000000000625
 42
0.0
  0
VERTEX
  8
GROUP9
 10
611.000003779261
 20
383.000001192055
 30
0.0000000000625
 42
0.0
  0
VERTEX
  8
GROUP9
 10
611.00000377926
 20
353.000001192055
 30
0.0000000000625
 42
0.0
  0
VERTEX
  8
GROUP9
 10
617.00000377926
 20
353.000001192055
 30
0.0000000000625
 42
0.0
  0
VERTEX
  8
GROUP9
 10
617.000004765754
 20
230.500001215826
 30
0.0000000000625
 42
0.0
  0
VERTEX
  8
GROUP9
 10
611.000003541547
 20
230.500001168284
 30
0.0000000000625
 42
0.0
  0
VERTEX
  8
GROUP9
 10
611.000003779257
 20
200.500001215826
 30
0.0000000000625
 42
0.0
  0
VERTEX
  8
GROUP9
 10
617.000005003464
 20
200.500001263368
 30
0.0000000000625
 42
0.0
  0
VERTEX
  8
GROUP9
 10
617.000005989957
 20
78.0000005960315
 30
0.0000000001104
 42
0.0
  0
VERTEX
  8
GROUP9
 10
611.000003541544
 20
78.00000054849
 30
0.0000000001104
 42
0.0
  0
VERTEX
  8
GROUP9
 10
611.000003779253
 20
48.0000005960321
 30
0.0000000001104
 42
0.0
  0
VERTEX
  8
GROUP9
 10
617.000006227667
 20
48.0000006435737
 30
0.0000000001104
 42
0.0
  0
VERTEX
  8
GROUP9
 10
617.000006512918
 20
12.0000000000076
 30
0.0000000001104
 42
0.0
  0
VERTEX
  8
GROUP9
 10
691.0000060659
 20
12.0000005960296
 30
0.0000000000779
 42
0.0
  0
VERTEX
  8
GROUP9
 10
691.0000060659
 20
32.0000005960302
 30
0.0000000000779
 42
0.0
  0
VERTEX
  8
GROUP9
 10
697.000006065901
 20
32.0000005960301
 30
0.0000000000941
 42
0.0
  0
VERTEX
  8
GROUP9
 10
697.000006065901
 20
72.0000006407319
 30
0.0000000000941
 42
0.0
  0
VERTEX
  8
GROUP9
 10
691.000006065901
 20
72.0000005513284
 30
0.0000000000942
 42
0.0
  0
VERTEX
  8
GROUP9
 10
691.000005618884
 20
92.0000011026497
 30
0.0000000001105
 42
0.0
  0
VERTEX
  8
GROUP9
 10
697.000005618884
 20
92.0000011920533
 30
0.0000000001104
 42
0.0
  0
VERTEX
  8
GROUP9
 10
697.00000139244
 20
359.294771896537
 30
0.0000000000892
 42
0.0
  0
VERTEX
  8
GROUP9
 10
696.903678913551
 20
362.230337024063
 30
0.0000000000897
 42
0.0
  0
VERTEX
  8
GROUP9
 10
696.615586726386
 20
365.15331898254
 30
0.0000000000902
 42
0.0
  0
VERTEX
  8
GROUP9
 10
696.136958238354
 20
368.051203626264
 30
0.0000000000907
 42
0.0
  0
VERTEX
  8
GROUP9
 10
695.469842598826
 20
370.91158425852
 30
0.0000000000911
 42
0.0
  0
VERTEX
  8
GROUP9
 10
694.617095926118
 20
373.722214748298
 30
0.0000000000914
 42
0.0
  0
VERTEX
  8
GROUP9
 10
693.582369079615
 20
376.471061959587
 30
0.0000000000917
 42
0.0
  0
VERTEX
  8
GROUP9
 10
692.370092029362
 20
379.146357268767
 30
0.000000000092
 42
0.0
  0
VERTEX
  8
GROUP9
 10
690.985454890062
 20
381.736646949547
 30
0.0000000000921
 42
0.0
  0
VERTEX
  8
GROUP9
 10
689.434385700668
 20
384.230841209744
 30
0.0000000000923
 42
0.0
  0
VERTEX
  8
GROUP9
 10
687.723525044704
 20
386.61826166994
 30
0.0000000000923
 42
0.0
  0
VERTEX
  8
GROUP9
 10
685.860197619971
 20
388.888687080765
 30
0.0000000000923
 42
0.0
  0
VERTEX
  8
GROUP9
 10
683.852380879364
 20
391.032397083081
 30
0.0000000000922
 42
0.0
  0
VERTEX
  8
GROUP9
 10
661.188078821336
 20
413.69669914111
 30
0.0000000000879
 42
0.0
  0
VERTEX
  8
GROUP9
 10
660.333264425597
 20
414.520791924655
 30
0.0000000000885
 42
0.0
  0
VERTEX
  8
GROUP9
 10
659.424374544211
 20
415.28483102743
 30
0.0000000000892
 42
0.0
  0
VERTEX
  8
GROUP9
 10
658.465619309667
 20
415.985277290386
 30
0.0000000000899
 42
0.0
  0
VERTEX
  8
GROUP9
 10
657.461439839248
 20
416.618886127321
 30
0.0000000000906
 42
0.0
  0
VERTEX
  8
GROUP9
 10
656.416487663021
 20
417.182722554357
 30
0.0000000000913
 42
0.0
  0
VERTEX
  8
GROUP9
 10
655.335603177162
 20
417.674174785284
 30
0.0000000000921
 42
0.0
  0
VERTEX
  8
GROUP9
 10
654.223793222414
 20
418.090966329797
 30
0.0000000000928
 42
0.0
  0
VERTEX
  8
GROUP9
 10
653.086207891551
 20
418.431166538585
 30
0.0000000000936
 42
0.0
  0
VERTEX
  8
GROUP9
 10
651.928116673272
 20
418.69319954643
 30
0.0000000000943
 42
0.0
  0
VERTEX
  8
GROUP9
 10
650.754884043035
 20
418.875851571882
 30
0.0000000000951
 42
0.0
  0
VERTEX
  8
GROUP9
 10
649.571944613892
 20
418.978276539698
 30
0.0000000000958
 42
0.0
  0
VERTEX
  8
GROUP9
 10
648.384777962437
 20
419.000000000009
 30
0.0000000000966
 42
0.0
  0
VERTEX
  8
GROUP9
 10
617.000000448386
 20
419.000000000008
 30
0.0000000001104
 42
0.0
  0
SEQEND
  0
POLYLINE
  8
GROUP9
 66
     1
 10
0.0
 20
0.0
 30
0.0000000000893
 70
     9
  0
VERTEX
  8
GROUP9
 10
672.000001104002
 20
369.000000683638
 30
0.0000000000893
 42
0.0
  0
VERTEX
  8
GROUP9
 10
642.000001104004
 20
369.000000683638
 30
0.0000000000856
 42
0.0
  0
VERTEX
  8
GROUP9
 10
642.000001104004
 20
375.000000683635
 30
0.0000000000855
 42
0.0
  0
VERTEX
  8
GROUP9
 10
672.000001104002
 20
375.000000683635
 30
0.0000000000892
 42
0.0
  0
SEQEND
  0
POLYLINE
  8
GROUP9
 66
     1
 10
0.0
 20
0.0
 30
0.0000000000964
 70
     9
  0
VERTEX
  8
GROUP9
 10
672.000005708278
 20
60.0000010434211
 30
0.0000000000964
 42
0.0
  0
VERTEX
  8
GROUP9
 10
642.00000570828
 20
60.0000010434212
 30
0.0000000000927
 42
0.0
  0
VERTEX
  8
GROUP9
 10
642.00000570828
 20
66.0000010434188
 30
0.0000000000925
 42
0.0
  0
VERTEX
  8
GROUP9
 10
672.000005708278
 20
66.0000010434187
 30
0.0000000000962
 42
0.0
  0
SEQEND
  0
POLYLINE
  8
GROUP9
 66
     1
 10
0.0
 20
0.0
 30
0.0000000000836
 70
     9
  0
VERTEX
  8
GROUP9
 10
644.254401132913
 20
408.002959831564
 30
0.0000000000836
 42
0.0
  0
VERTEX
  8
GROUP9
 10
648.497041820031
 20
412.245600518681
 30
0.000000000084
 42
0.0
  0
VERTEX
  8
GROUP9
 10
669.710245255625
 20
391.032397083086
 30
0.0000000000871
 42
0.0
  0
VERTEX
  8
GROUP9
 10
665.467604568507
 20
386.789756395968
 30
0.0000000000867
 42
0.0
  0
SEQEND
  0
CIRCLE
  8
GROUP10
 10
436.999999999973
 20
506.000000000009
 30
0.0000000000839
 40
11.0
  0
CIRCLE
  8
GROUP10
 10
421.644406354511
 20
521.500000228825
 30
0.0000000000888
 40
1.5
  0
CIRCLE
  8
GROUP10
 10
452.355594107369
 20
521.499999771194
 30
0.0000000000887
 40
1.5
  0
CIRCLE
  8
GROUP10
 10
421.644405892577
 20
490.500000228825
 30
0.0000000000896
 40
1.5
  0
CIRCLE
  8
GROUP10
 10
452.355593645435
 20
490.499999771194
 30
0.0000000000902
 40
1.5
  0
POLYLINE
  8
GROUP10
 66
     1
 10
0.0
 20
0.0
 30
0.000000000084
 70
     9
  0
VERTEX
  8
GROUP10
 10
415.999999776457
 20
491.000000312933
 30
0.000000000084
 42
0.0
  0
VERTEX
  8
GROUP10
 10
415.999999627446
 20
481.000000312933
 30
0.0000000000844
 42
0.0
  0
VERTEX
  8
GROUP10
 10
457.999999627446
 20
480.999999687086
 30
0.0000000000843
 42
0.0
  0
VERTEX
  8
GROUP10
 10
457.999999776456
 20
490.999999687085
 30
0.0000000000839
 42
0.0
  0
VERTEX
  8
GROUP10
 10
463.999999776456
 20
490.999999597679
 30
0.0000000000839
 42
0.0
  0
VERTEX
  8
GROUP10
 10
464.000000223489
 20
520.999999597679
 30
0.0000000000836
 42
0.0
  0
VERTEX
  8
GROUP10
 10
458.000000223489
 20
520.999999687086
 30
0.0000000000838
 42
0.0
  0
VERTEX
  8
GROUP10
 10
458.000000372501
 20
530.999999687086
 30
0.0000000000832
 42
0.0
  0
VERTEX
  8
GROUP10
 10
416.000000372501
 20
531.000000312933
 30
0.0000000000832
 42
0.0
  0
VERTEX
  8
GROUP10
 10
416.00000022349
 20
521.000000312933
 30
0.0000000000836
 42
0.0
  0
VERTEX
  8
GROUP10
 10
410.00000022349
 20
521.000000402339
 30
0.0000000000839
 42
0.0
  0
VERTEX
  8
GROUP10
 10
409.999999776457
 20
491.000000402339
 30
0.0000000000839
 42
0.0
  0
SEQEND
  0
CIRCLE
  8
GROUP11
 10
436.999999999972
 20
563.000000000009
 30
0.0000000000886
 40
11.0
  0
POLYLINE
  8
GROUP11
 66
     1
 10
0.0
 20
0.0
 30
0.0000000000886
 70
     9
  0
VERTEX
  8
GROUP11
 10
457.999999999973
 20
578.000000000009
 30
0.0000000000886
 42
0.0
  0
VERTEX
  8
GROUP11
 10
457.999999999972
 20
588.000000000009
 30
0.0000000000892
 42
0.0
  0
VERTEX
  8
GROUP11
 10
415.999999999972
 20
588.000000000009
 30
0.0000000000894
 42
0.0
  0
VERTEX
  8
GROUP11
 10
415.999999999973
 20
578.000000000009
 30
0.0000000000889
 42
0.0
  0
VERTEX
  8
GROUP11
 10
409.999999999973
 20
578.000000000009
 30
0.000000000089
 42
0.0
  0
VERTEX
  8
GROUP11
 10
409.999999999974
 20
548.000000000009
 30
0.0000000000884
 42
0.0
  0
VERTEX
  8
GROUP11
 10
415.999999999973
 20
548.000000000009
 30
0.0000000000886
 42
0.0
  0
VERTEX
  8
GROUP11
 10
415.999999999973
 20
538.000000000009
 30
0.0000000000879
 42
0.0
  0
VERTEX
  8
GROUP11
 10
457.999999999973
 20
538.000000000009
 30
0.0000000000876
 42
0.0
  0
VERTEX
  8
GROUP11
 10
457.999999999973
 20
548.000000000009
 30
0.0000000000881
 42
0.0
  0
VERTEX
  8
GROUP11
 10
463.999999999973
 20
548.000000000009
 30
0.0000000000883
 42
0.0
  0
VERTEX
  8
GROUP11
 10
463.999999999973
 20
578.000000000009
 30
0.0000000000886
 42
0.0
  0
SEQEND
  0
CIRCLE
  8
GROUP12
 10
559.825000023651
 20
578.000000000034
 30
0.0000000000865
 40
1.5
  0
CIRCLE
  8
GROUP12
 10
559.825000023647
 20
548.000000000034
 30
0.0000000000889
 40
1.5
  0
CIRCLE
  8
GROUP12
 10
761.29999999999
 20
548.000000000021
 30
0.0000000000888
 40
1.5
  0
CIRCLE
  8
GROUP12
 10
761.299999999997
 20
578.000000000012
 30
0.0000000000864
 40
1.5
  0
POLYLINE
  8
GROUP12
 66
     1
 10
0.0
 20
0.0
 30
0.000000000089
 70
     9
  0
VERTEX
  8
GROUP12
 10
493.999999999997
 20
565.993133853456
 30
0.000000000089
 42
0.0
  0
VERTEX
  8
GROUP12
 10
493.999999999994
 20
538.000000000041
 30
0.00000000009
 42
0.0
  0
VERTEX
  8
GROUP12
 10
494.114101789237
 20
536.971856129608
 30
0.00000000009
 42
0.0
  0
VERTEX
  8
GROUP12
 10
494.253300896619
 20
535.946808498948
 30
0.00000000009
 42
0.0
  0
VERTEX
  8
GROUP12
 10
494.41751414054
 20
534.925469648644
 30
0.00000000009
 42
0.0
  0
VERTEX
  8
GROUP12
 10
494.60664339163
 20
533.908449903015
 30
0.00000000009
 42
0.0
  0
VERTEX
  8
GROUP12
 10
494.820575631394
 20
532.896357005398
 30
0.00000000009
 42
0.0
  0
VERTEX
  8
GROUP12
 10
495.059183019745
 20
531.88979575498
 30
0.00000000009
 42
0.0
  0
VERTEX
  8
GROUP12
 10
495.322322971396
 20
530.889367645388
 30
0.0000000000899
 42
0.0
  0
VERTEX
  8
GROUP12
 10
495.609838241071
 20
529.895670505248
 30
0.0000000000899
 42
0.0
  0
VERTEX
  8
GROUP12
 10
495.921557017463
 20
528.909298140944
 30
0.0000000000898
 42
0.0
  0
VERTEX
  8
GROUP12
 10
496.257293025911
 20
527.930839981773
 30
0.0000000000897
 42
0.0
  0
VERTEX
  8
GROUP12
 10
496.616845639707
 20
526.960880727716
 30
0.0000000000896
 42
0.0
  0
VERTEX
  8
GROUP12
 10
496.99999999999
 20
526.000000000043
 30
0.0000000000895
 42
0.0
  0
VERTEX
  8
GROUP12
 10
497.784919453088
 20
524.329567099108
 30
0.0000000000899
 42
0.0
  0
VERTEX
  8
GROUP12
 10
498.725121867303
 20
522.741340501454
 30
0.00000000009
 42
0.0
  0
VERTEX
  8
GROUP12
 10
499.812086884635
 20
521.249713417935
 30
0.0000000000901
 42
0.0
  0
VERTEX
  8
GROUP12
 10
501.035963940045
 20
519.868203642931
 30
0.0000000000901
 42
0.0
  0
VERTEX
  8
GROUP12
 10
502.385661710129
 20
518.609331038327
 30
0.0000000000901
 42
0.0
  0
VERTEX
  8
GROUP12
 10
503.848948627673
 20
517.484504072907
 30
0.0000000000901
 42
0.0
  0
VERTEX
  8
GROUP12
 10
505.412563729607
 20
516.503916433684
 30
0.0000000000901
 42
0.0
  0
VERTEX
  8
GROUP12
 10
507.062336833805
 20
515.676454646135
 30
0.0000000000901
 42
0.0
  0
VERTEX
  8
GROUP12
 10
508.783316955642
 20
515.009617540512
 30
0.0000000000901
 42
0.0
  0
VERTEX
  8
GROUP12
 10
510.559907800523
 20
514.50944829408
 30
0.00000000009
 42
0.0
  0
VERTEX
  8
GROUP12
 10
512.376009104514
 20
514.18047966513
 30
0.0000000000899
 42
0.0
  0
VERTEX
  8
GROUP12
 10
513.433685789377
 20
514.10266165091
 30
0.0000000000898
 42
0.0
  0
VERTEX
  8
GROUP12
 10
514.215162542159
 20
514.025692915084
 30
0.0000000000898
 42
0.0
  0
VERTEX
  8
GROUP12
 10
515.000000089395
 20
514.000000000038
 30
0.0000000000895
 42
0.0
  0
VERTEX
  8
GROUP12
 10
515.784837636248
 20
514.025692926779
 30
0.0000000000895
 42
0.0
  0
VERTEX
  8
GROUP12
 10
516.566314387884
 20
514.10266167425
 30
0.0000000000895
 42
0.0
  0
VERTEX
  8
GROUP12
 10
517.623991073894
 20
514.180479676824
 30
0.0000000000896
 42
0.0
  0
VERTEX
  8
GROUP12
 10
519.440092377885
 20
514.509448305773
 30
0.0000000000897
 42
0.0
  0
VERTEX
  8
GROUP12
 10
521.216683222766
 20
515.009617552204
 30
0.0000000000898
 42
0.0
  0
VERTEX
  8
GROUP12
 10
522.937663344603
 20
515.676454657826
 30
0.0000000000898
 42
0.0
  0
VERTEX
  8
GROUP12
 10
524.587436448802
 20
516.503916445375
 30
0.0000000000898
 42
0.0
  0
VERTEX
  8
GROUP12
 10
526.151051550737
 20
517.484504084597
 30
0.0000000000899
 42
0.0
  0
VERTEX
  8
GROUP12
 10
527.614338468281
 20
518.609331050016
 30
0.0000000000898
 42
0.0
  0
VERTEX
  8
GROUP12
 10
528.964036238365
 20
519.86820365462
 30
0.0000000000898
 42
0.0
  0
VERTEX
  8
GROUP12
 10
530.187913293776
 20
521.249713429624
 30
0.0000000000898
 42
0.0
  0
VERTEX
  8
GROUP12
 10
531.274878311109
 20
522.741340513142
 30
0.0000000000897
 42
0.0
  0
VERTEX
  8
GROUP12
 10
532.215080725325
 20
524.329567110795
 30
0.0000000000896
 42
0.0
  0
VERTEX
  8
GROUP12
 10
532.99999999999
 20
526.000000000034
 30
0.0000000000895
 42
0.0
  0
VERTEX
  8
GROUP12
 10
533.589839641628
 20
527.685588202353
 30
0.0000000000896
 42
0.0
  0
VERTEX
  8
GROUP12
 10
534.356836466753
 20
529.298298424585
 30
0.0000000000896
 42
0.0
  0
VERTEX
  8
GROUP12
 10
535.292164959805
 20
530.819573876543
 30
0.0000000000897
 42
0.0
  0
VERTEX
  8
GROUP12
 10
536.385062682273
 20
532.23190987016
 30
0.0000000000897
 42
0.0
  0
VERTEX
  8
GROUP12
 10
537.622954111629
 20
533.519055238708
 30
0.0000000000897
 42
0.0
  0
VERTEX
  8
GROUP12
 10
538.991595342665
 20
534.66619933225
 30
0.0000000000898
 42
0.0
  0
VERTEX
  8
GROUP12
 10
540.475237986232
 20
535.660142437682
 30
0.0000000000898
 42
0.0
  0
VERTEX
  8
GROUP12
 10
542.05681037944
 20
536.489447662364
 30
0.0000000000898
 42
0.0
  0
VERTEX
  8
GROUP12
 10
543.718114022235
 20
537.14457253373
 30
0.0000000000899
 42
0.0
  0
VERTEX
  8
GROUP12
 10
545.440032980015
 20
537.617978800567
 30
0.0000000000899
 42
0.0
  0
VERTEX
  8
GROUP12
 10
547.202753842795
 20
537.904219172566
 30
0.0000000000899
 42
0.0
  0
VERTEX
  8
GROUP12
 10
548.985993709928
 20
538.000000000034
 30
0.0000000000899
 42
0.0
  0
VERTEX
  8
GROUP12
 10
735.01400629006
 20
538.000000000023
 30
0.0000000000898
 42
0.0
  0
VERTEX
  8
GROUP12
 10
736.797246157193
 20
537.904219172553
 30
0.0000000000898
 42
0.0
  0
VERTEX
  8
GROUP12
 10
738.559967019973
 20
537.617978800554
 30
0.0000000000898
 42
0.0
  0
VERTEX
  8
GROUP12
 10
740.281885977753
 20
537.144572533715
 30
0.0000000000898
 42
0.0
  0
VERTEX
  8
GROUP12
 10
741.943189620548
 20
536.489447662349
 30
0.0000000000898
 42
0.0
  0
VERTEX
  8
GROUP12
 10
743.524762013755
 20
535.660142437666
 30
0.0000000000897
 42
0.0
  0
VERTEX
  8
GROUP12
 10
745.008404657322
 20
534.666199332234
 30
0.0000000000897
 42
0.0
  0
VERTEX
  8
GROUP12
 10
746.377045888357
 20
533.51905523869
 30
0.0000000000897
 42
0.0
  0
VERTEX
  8
GROUP12
 10
747.614937317712
 20
532.231909870143
 30
0.0000000000896
 42
0.0
  0
VERTEX
  8
GROUP12
 10
748.70783504018
 20
530.819573876525
 30
0.0000000000896
 42
0.0
  0
VERTEX
  8
GROUP12
 10
749.643163533231
 20
529.298298424567
 30
0.0000000000895
 42
0.0
  0
VERTEX
  8
GROUP12
 10
750.410160358355
 20
527.685588202334
 30
0.0000000000895
 42
0.0
  0
VERTEX
  8
GROUP12
 10
750.999999999993
 20
526.000000000015
 30
0.0000000000894
 42
0.0
  0
VERTEX
  8
GROUP12
 10
751.784919274657
 20
524.329567110776
 30
0.0000000000895
 42
0.0
  0
VERTEX
  8
GROUP12
 10
752.725121688872
 20
522.741340513122
 30
0.0000000000896
 42
0.0
  0
VERTEX
  8
GROUP12
 10
753.812086706205
 20
521.249713429603
 30
0.0000000000897
 42
0.0
  0
VERTEX
  8
GROUP12
 10
755.035963761615
 20
519.868203654598
 30
0.0000000000897
 42
0.0
  0
VERTEX
  8
GROUP12
 10
756.385661531698
 20
518.609331049994
 30
0.0000000000898
 42
0.0
  0
VERTEX
  8
GROUP12
 10
757.848948449242
 20
517.484504084574
 30
0.0000000000898
 42
0.0
  0
VERTEX
  8
GROUP12
 10
759.412563551176
 20
516.503916445352
 30
0.0000000000898
 42
0.0
  0
VERTEX
  8
GROUP12
 10
761.062336655375
 20
515.676454657802
 30
0.0000000000897
 42
0.0
  0
VERTEX
  8
GROUP12
 10
762.783316777211
 20
515.00961755218
 30
0.0000000000897
 42
0.0
  0
VERTEX
  8
GROUP12
 10
764.559907622092
 20
514.509448305748
 30
0.0000000000896
 42
0.0
  0
VERTEX
  8
GROUP12
 10
766.376008926084
 20
514.180479676797
 30
0.0000000000895
 42
0.0
  0
VERTEX
  8
GROUP12
 10
767.433685612093
 20
514.102661674223
 30
0.0000000000894
 42
0.0
  0
VERTEX
  8
GROUP12
 10
768.215162363729
 20
514.025692926752
 30
0.0000000000894
 42
0.0
  0
VERTEX
  8
GROUP12
 10
768.999999910582
 20
514.000000000011
 30
0.0000000000894
 42
0.0
  0
VERTEX
  8
GROUP12
 10
769.784837457818
 20
514.025692915056
 30
0.0000000000897
 42
0.0
  0
VERTEX
  8
GROUP12
 10
770.5663142106
 20
514.102661650882
 30
0.0000000000897
 42
0.0
  0
VERTEX
  8
GROUP12
 10
771.623990895463
 20
514.180479665101
 30
0.0000000000898
 42
0.0
  0
VERTEX
  8
GROUP12
 10
773.440092199454
 20
514.509448294051
 30
0.0000000000899
 42
0.0
  0
VERTEX
  8
GROUP12
 10
775.216683044336
 20
515.009617540482
 30
0.0000000000899
 42
0.0
  0
VERTEX
  8
GROUP12
 10
776.937663166173
 20
515.676454646103
 30
0.00000000009
 42
0.0
  0
VERTEX
  8
GROUP12
 10
778.587436270371
 20
516.503916433652
 30
0.00000000009
 42
0.0
  0
VERTEX
  8
GROUP12
 10
780.151051372306
 20
517.484504072874
 30
0.00000000009
 42
0.0
  0
VERTEX
  8
GROUP12
 10
781.61433828985
 20
518.609331038293
 30
0.00000000009
 42
0.0
  0
VERTEX
  8
GROUP12
 10
782.964036059935
 20
519.868203642897
 30
0.00000000009
 42
0.0
  0
VERTEX
  8
GROUP12
 10
784.187913115345
 20
521.249713417901
 30
0.0000000000899
 42
0.0
  0
VERTEX
  8
GROUP12
 10
785.274878132678
 20
522.741340501419
 30
0.0000000000899
 42
0.0
  0
VERTEX
  8
GROUP12
 10
786.215080546894
 20
524.329567099073
 30
0.0000000000898
 42
0.0
  0
VERTEX
  8
GROUP12
 10
786.999999999993
 20
526.000000000007
 30
0.0000000000894
 42
0.0
  0
VERTEX
  8
GROUP12
 10
787.383154360276
 20
526.96088072768
 30
0.0000000000895
 42
0.0
  0
VERTEX
  8
GROUP12
 10
787.742706974073
 20
527.930839981736
 30
0.0000000000896
 42
0.0
  0
VERTEX
  8
GROUP12
 10
788.078442982521
 20
528.909298140908
 30
0.0000000000897
 42
0.0
  0
VERTEX
  8
GROUP12
 10
788.390161758914
 20
529.895670505212
 30
0.0000000000898
 42
0.0
  0
VERTEX
  8
GROUP12
 10
788.677677028589
 20
530.889367645351
 30
0.0000000000898
 42
0.0
  0
VERTEX
  8
GROUP12
 10
788.94081698024
 20
531.889795754943
 30
0.0000000000898
 42
0.0
  0
VERTEX
  8
GROUP12
 10
789.179424368591
 20
532.896357005361
 30
0.0000000000899
 42
0.0
  0
VERTEX
  8
GROUP12
 10
789.393356608357
 20
533.908449902978
 30
0.0000000000899
 42
0.0
  0
VERTEX
  8
GROUP12
 10
789.582485859447
 20
534.925469648607
 30
0.0000000000899
 42
0.0
  0
VERTEX
  8
GROUP12
 10
789.746699103368
 20
535.946808498911
 30
0.0000000000899
 42
0.0
  0
VERTEX
  8
GROUP12
 10
789.885898210751
 20
536.971856129571
 30
0.0000000000899
 42
0.0
  0
VERTEX
  8
GROUP12
 10
789.999999999995
 20
538.000000000009
 30
0.0000000000898
 42
0.0
  0
VERTEX
  8
GROUP12
 10
790.0
 20
588.000000000009
 30
0.0000000000856
 42
0.0
  0
VERTEX
  8
GROUP12
 10
493.999999999997
 20
588.0
 30
0.0000000000424
 42
0.0
  0
VERTEX
  8
GROUP12
 10
493.999999999997
 20
568.993133853456
 30
0.0000000000865
 42
0.0
  0
SEQEND
  0
POLYLINE
  8
GROUP12
 66
     1
 10
0.0
 20
0.0
 30
0.0000000000897
 70
     9
  0
VERTEX
  8
GROUP12
 10
522.448866092518
 20
522.631969229337
 30
0.0000000000897
 42
0.0
  0
VERTEX
  8
GROUP12
 10
522.157075552511
 20
522.625000000037
 30
0.0000000000897
 42
0.0
  0
VERTEX
  8
GROUP12
 10
521.910278948253
 20
522.625000000037
 30
0.0000000000898
 42
0.0
  0
VERTEX
  8
GROUP12
 10
521.674341866497
 20
522.146566926745
 30
0.0000000000898
 42
0.0
  0
VERTEX
  8
GROUP12
 10
521.114268000558
 20
521.308357151464
 30
0.0000000000899
 42
0.0
  0
VERTEX
  8
GROUP12
 10
520.449577313935
 20
520.550422686091
 30
0.00000000009
 42
0.0
  0
VERTEX
  8
GROUP12
 10
519.691642848562
 20
519.885731999468
 30
0.0000000000901
 42
0.0
  0
VERTEX
  8
GROUP12
 10
518.85343307328
 20
519.32565813353
 30
0.0000000000902
 42
0.0
  0
VERTEX
  8
GROUP12
 10
517.949289989741
 20
518.879784107405
 30
0.0000000000902
 42
0.0
  0
VERTEX
  8
GROUP12
 10
516.99468373678
 20
518.5557389493
 30
0.0000000000903
 42
0.0
  0
VERTEX
  8
GROUP12
 10
516.005947892051
 20
518.359067161712
 30
0.0000000000904
 42
0.0
  0
VERTEX
  8
GROUP12
 10
514.999999999988
 20
518.293133853455
 30
0.0000000000904
 42
0.0
  0
VERTEX
  8
GROUP12
 10
513.994052107925
 20
518.359067161713
 30
0.0000000000904
 42
0.0
  0
VERTEX
  8
GROUP12
 10
513.005316263197
 20
518.555738949301
 30
0.0000000000905
 42
0.0
  0
VERTEX
  8
GROUP12
 10
512.050710010236
 20
518.879784107407
 30
0.0000000000905
 42
0.0
  0
VERTEX
  8
GROUP12
 10
511.146566926697
 20
519.325658133532
 30
0.0000000000905
 42
0.0
  0
VERTEX
  8
GROUP12
 10
510.308357151416
 20
519.88573199947
 30
0.0000000000905
 42
0.0
  0
VERTEX
  8
GROUP12
 10
509.550422686043
 20
520.550422686094
 30
0.0000000000904
 42
0.0
  0
VERTEX
  8
GROUP12
 10
508.88573199942
 20
521.308357151467
 30
0.0000000000904
 42
0.0
  0
VERTEX
  8
GROUP12
 10
508.325658133482
 20
522.146566926748
 30
0.0000000000904
 42
0.0
  0
VERTEX
  8
GROUP12
 10
508.089721051726
 20
522.62500000004
 30
0.0000000000903
 42
0.0
  0
VERTEX
  8
GROUP12
 10
507.842924447467
 20
522.62500000004
 30
0.0000000000903
 42
0.0
  0
VERTEX
  8
GROUP12
 10
507.551133907461
 20
522.63196922934
 30
0.0000000000903
 42
0.0
  0
VERTEX
  8
GROUP12
 10
507.258157630301
 20
522.653022065844
 30
0.0000000000904
 42
0.0
  0
VERTEX
  8
GROUP12
 10
506.967581423782
 20
522.688023731879
 30
0.0000000000904
 42
0.0
  0
VERTEX
  8
GROUP12
 10
506.680593775612
 20
522.736845182549
 30
0.0000000000904
 42
0.0
  0
VERTEX
  8
GROUP12
 10
506.398369501307
 20
522.799306832532
 30
0.0000000000904
 42
0.0
  0
VERTEX
  8
GROUP12
 10
506.122065498117
 20
522.875179591487
 30
0.0000000000904
 42
0.0
  0
VERTEX
  8
GROUP12
 10
505.852816770891
 20
522.964186129101
 30
0.0000000000904
 42
0.0
  0
VERTEX
  8
GROUP12
 10
505.591732801421
 20
523.066002309533
 30
0.0000000000904
 42
0.0
  0
VERTEX
  8
GROUP12
 10
505.339894330193
 20
523.180258709803
 30
0.0000000000904
 42
0.0
  0
VERTEX
  8
GROUP12
 10
505.098350610021
 20
523.306542104838
 30
0.0000000000904
 42
0.0
  0
VERTEX
  8
GROUP12
 10
504.868117170005
 20
523.444396763889
 30
0.0000000000904
 42
0.0
  0
VERTEX
  8
GROUP12
 10
504.650174089001
 20
523.59332536131
 30
0.0000000000904
 42
0.0
  0
VERTEX
  8
GROUP12
 10
504.445464712668
 20
523.752789265914
 30
0.0000000000904
 42
0.0
  0
VERTEX
  8
GROUP12
 10
504.254894649688
 20
523.922207949802
 30
0.0000000000904
 42
0.0
  0
VERTEX
  8
GROUP12
 10
504.079330747228
 20
524.100957270382
 30
0.0000000000904
 42
0.0
  0
VERTEX
  8
GROUP12
 10
503.919599579391
 20
524.288366457163
 30
0.0000000000903
 42
0.0
  0
VERTEX
  8
GROUP12
 10
503.776484809915
 20
524.48371381147
 30
0.0000000000903
 42
0.0
  0
VERTEX
  8
GROUP12
 10
503.650722663778
 20
524.686221428848
 30
0.0000000000903
 42
0.0
  0
VERTEX
  8
GROUP12
 10
503.542994743496
 20
524.895049678549
 30
0.0000000000903
 42
0.0
  0
VERTEX
  8
GROUP12
 10
503.453917652772
 20
525.109292662834
 30
0.0000000000903
 42
0.0
  0
VERTEX
  8
GROUP12
 10
503.384029417214
 20
525.32797629255
 30
0.0000000000903
 42
0.0
  0
VERTEX
  8
GROUP12
 10
503.333773505571
 20
525.550060747463
 30
0.0000000000903
 42
0.0
  0
VERTEX
  8
GROUP12
 10
503.303482193389
 20
525.774448731795
 30
0.0000000000902
 42
0.0
  0
VERTEX
  8
GROUP12
 10
503.293361759146
 20
526.000000000041
 30
0.0000000000902
 42
0.0
  0
VERTEX
  8
GROUP12
 10
503.303482193389
 20
526.225551268287
 30
0.0000000000902
 42
0.0
  0
VERTEX
  8
GROUP12
 10
503.333773505571
 20
526.44993925262
 30
0.0000000000902
 42
0.0
  0
VERTEX
  8
GROUP12
 10
503.384029417214
 20
526.672023707532
 30
0.0000000000902
 42
0.0
  0
VERTEX
  8
GROUP12
 10
503.453917652772
 20
526.890707337248
 30
0.0000000000901
 42
0.0
  0
VERTEX
  8
GROUP12
 10
503.542994743496
 20
527.104950321533
 30
0.0000000000901
 42
0.0
  0
VERTEX
  8
GROUP12
 10
503.650722663779
 20
527.313778571234
 30
0.0000000000901
 42
0.0
  0
VERTEX
  8
GROUP12
 10
503.776484809915
 20
527.516286188612
 30
0.0000000000901
 42
0.0
  0
VERTEX
  8
GROUP12
 10
503.919599579392
 20
527.711633542919
 30
0.0000000000901
 42
0.0
  0
VERTEX
  8
GROUP12
 10
504.079330747229
 20
527.8990427297
 30
0.00000000009
 42
0.0
  0
VERTEX
  8
GROUP12
 10
504.254894649689
 20
528.07779205028
 30
0.00000000009
 42
0.0
  0
VERTEX
  8
GROUP12
 10
504.44546471267
 20
528.247210734168
 30
0.00000000009
 42
0.0
  0
VERTEX
  8
GROUP12
 10
504.650174089002
 20
528.406674638771
 30
0.00000000009
 42
0.0
  0
VERTEX
  8
GROUP12
 10
504.868117170006
 20
528.555603236192
 30
0.0000000000899
 42
0.0
  0
VERTEX
  8
GROUP12
 10
505.098350610022
 20
528.693457895243
 30
0.0000000000899
 42
0.0
  0
VERTEX
  8
GROUP12
 10
505.339894330194
 20
528.819741290278
 30
0.0000000000899
 42
0.0
  0
VERTEX
  8
GROUP12
 10
505.591732801422
 20
528.933997690548
 30
0.0000000000899
 42
0.0
  0
VERTEX
  8
GROUP12
 10
505.852816770892
 20
529.035813870981
 30
0.0000000000899
 42
0.0
  0
VERTEX
  8
GROUP12
 10
506.122065498118
 20
529.124820408594
 30
0.0000000000898
 42
0.0
  0
VERTEX
  8
GROUP12
 10
506.398369501309
 20
529.200693167549
 30
0.0000000000898
 42
0.0
  0
VERTEX
  8
GROUP12
 10
506.680593775614
 20
529.263154817532
 30
0.0000000000898
 42
0.0
  0
VERTEX
  8
GROUP12
 10
506.967581423783
 20
529.311976268201
 30
0.0000000000898
 42
0.0
  0
VERTEX
  8
GROUP12
 10
507.258157630302
 20
529.346977934237
 30
0.0000000000898
 42
0.0
  0
VERTEX
  8
GROUP12
 10
507.551133907463
 20
529.36803077074
 30
0.0000000000898
 42
0.0
  0
VERTEX
  8
GROUP12
 10
507.842924447469
 20
529.37500000004
 30
0.0000000000898
 42
0.0
  0
VERTEX
  8
GROUP12
 10
508.089721051728
 20
529.37500000004
 30
0.0000000000897
 42
0.0
  0
VERTEX
  8
GROUP12
 10
508.325658133483
 20
529.853433073332
 30
0.0000000000897
 42
0.0
  0
VERTEX
  8
GROUP12
 10
508.885731999422
 20
530.691642848613
 30
0.0000000000896
 42
0.0
  0
VERTEX
  8
GROUP12
 10
509.550422686045
 20
531.449577313986
 30
0.0000000000895
 42
0.0
  0
VERTEX
  8
GROUP12
 10
510.308357151418
 20
532.114268000609
 30
0.0000000000894
 42
0.0
  0
VERTEX
  8
GROUP12
 10
511.1465669267
 20
532.674341866547
 30
0.0000000000893
 42
0.0
  0
VERTEX
  8
GROUP12
 10
512.050710010239
 20
533.120215892672
 30
0.0000000000893
 42
0.0
  0
VERTEX
  8
GROUP12
 10
513.0053162632
 20
533.444261050777
 30
0.0000000000892
 42
0.0
  0
VERTEX
  8
GROUP12
 10
513.994052107929
 20
533.640932838365
 30
0.0000000000891
 42
0.0
  0
VERTEX
  8
GROUP12
 10
514.999999999992
 20
533.706866146622
 30
0.0000000000891
 42
0.0
  0
VERTEX
  8
GROUP12
 10
516.005947892055
 20
533.640932838364
 30
0.0000000000891
 42
0.0
  0
VERTEX
  8
GROUP12
 10
516.994683736783
 20
533.444261050776
 30
0.000000000089
 42
0.0
  0
VERTEX
  8
GROUP12
 10
517.949289989745
 20
533.12021589267
 30
0.000000000089
 42
0.0
  0
VERTEX
  8
GROUP12
 10
518.853433073283
 20
532.674341866545
 30
0.000000000089
 42
0.0
  0
VERTEX
  8
GROUP12
 10
519.691642848565
 20
532.114268000607
 30
0.000000000089
 42
0.0
  0
VERTEX
  8
GROUP12
 10
520.449577313938
 20
531.449577313983
 30
0.0000000000891
 42
0.0
  0
VERTEX
  8
GROUP12
 10
521.114268000561
 20
530.69164284861
 30
0.0000000000891
 42
0.0
  0
VERTEX
  8
GROUP12
 10
521.674341866498
 20
529.853433073328
 30
0.0000000000891
 42
0.0
  0
VERTEX
  8
GROUP12
 10
521.910278948254
 20
529.375000000037
 30
0.0000000000892
 42
0.0
  0
VERTEX
  8
GROUP12
 10
522.157075552513
 20
529.375000000037
 30
0.0000000000892
 42
0.0
  0
VERTEX
  8
GROUP12
 10
522.448866092519
 20
529.368030770736
 30
0.0000000000892
 42
0.0
  0
VERTEX
  8
GROUP12
 10
522.74184236968
 20
529.346977934233
 30
0.0000000000891
 42
0.0
  0
VERTEX
  8
GROUP12
 10
523.032418576198
 20
529.311976268198
 30
0.0000000000891
 42
0.0
  0
VERTEX
  8
GROUP12
 10
523.319406224368
 20
529.263154817528
 30
0.0000000000891
 42
0.0
  0
VERTEX
  8
GROUP12
 10
523.601630498673
 20
529.200693167545
 30
0.0000000000891
 42
0.0
  0
VERTEX
  8
GROUP12
 10
523.877934501863
 20
529.12482040859
 30
0.0000000000891
 42
0.0
  0
VERTEX
  8
GROUP12
 10
524.147183229089
 20
529.035813870976
 30
0.0000000000891
 42
0.0
  0
VERTEX
  8
GROUP12
 10
524.408267198559
 20
528.933997690544
 30
0.0000000000891
 42
0.0
  0
VERTEX
  8
GROUP12
 10
524.660105669787
 20
528.819741290274
 30
0.0000000000891
 42
0.0
  0
VERTEX
  8
GROUP12
 10
524.90164938996
 20
528.693457895239
 30
0.0000000000891
 42
0.0
  0
VERTEX
  8
GROUP12
 10
525.131882829975
 20
528.555603236188
 30
0.0000000000891
 42
0.0
  0
VERTEX
  8
GROUP12
 10
525.349825910979
 20
528.406674638766
 30
0.0000000000891
 42
0.0
  0
VERTEX
  8
GROUP12
 10
525.554535287312
 20
528.247210734163
 30
0.0000000000891
 42
0.0
  0
VERTEX
  8
GROUP12
 10
525.745105350292
 20
528.077792050275
 30
0.0000000000891
 42
0.0
  0
VERTEX
  8
GROUP12
 10
525.920669252752
 20
527.899042729695
 30
0.0000000000891
 42
0.0
  0
VERTEX
  8
GROUP12
 10
526.080400420589
 20
527.711633542914
 30
0.0000000000891
 42
0.0
  0
VERTEX
  8
GROUP12
 10
526.223515190065
 20
527.516286188607
 30
0.0000000000892
 42
0.0
  0
VERTEX
  8
GROUP12
 10
526.349277336202
 20
527.313778571229
 30
0.0000000000892
 42
0.0
  0
VERTEX
  8
GROUP12
 10
526.457005256484
 20
527.104950321527
 30
0.0000000000892
 42
0.0
  0
VERTEX
  8
GROUP12
 10
526.546082347209
 20
526.890707337242
 30
0.0000000000892
 42
0.0
  0
VERTEX
  8
GROUP12
 10
526.615970582766
 20
526.672023707527
 30
0.0000000000892
 42
0.0
  0
VERTEX
  8
GROUP12
 10
526.666226494409
 20
526.449939252614
 30
0.0000000000892
 42
0.0
  0
VERTEX
  8
GROUP12
 10
526.696517806591
 20
526.225551268282
 30
0.0000000000892
 42
0.0
  0
VERTEX
  8
GROUP12
 10
526.706638240834
 20
526.000000000036
 30
0.0000000000893
 42
0.0
  0
VERTEX
  8
GROUP12
 10
526.696517806591
 20
525.77444873179
 30
0.0000000000893
 42
0.0
  0
VERTEX
  8
GROUP12
 10
526.666226494409
 20
525.550060747457
 30
0.0000000000893
 42
0.0
  0
VERTEX
  8
GROUP12
 10
526.615970582766
 20
525.327976292545
 30
0.0000000000893
 42
0.0
  0
VERTEX
  8
GROUP12
 10
526.546082347208
 20
525.109292662829
 30
0.0000000000893
 42
0.0
  0
VERTEX
  8
GROUP12
 10
526.457005256484
 20
524.895049678544
 30
0.0000000000894
 42
0.0
  0
VERTEX
  8
GROUP12
 10
526.349277336202
 20
524.686221428843
 30
0.0000000000894
 42
0.0
  0
VERTEX
  8
GROUP12
 10
526.223515190065
 20
524.483713811465
 30
0.0000000000894
 42
0.0
  0
VERTEX
  8
GROUP12
 10
526.080400420588
 20
524.288366457158
 30
0.0000000000894
 42
0.0
  0
VERTEX
  8
GROUP12
 10
525.920669252751
 20
524.100957270377
 30
0.0000000000895
 42
0.0
  0
VERTEX
  8
GROUP12
 10
525.745105350291
 20
523.922207949797
 30
0.0000000000895
 42
0.0
  0
VERTEX
  8
GROUP12
 10
525.554535287311
 20
523.752789265909
 30
0.0000000000895
 42
0.0
  0
VERTEX
  8
GROUP12
 10
525.349825910978
 20
523.593325361306
 30
0.0000000000895
 42
0.0
  0
VERTEX
  8
GROUP12
 10
525.131882829974
 20
523.444396763884
 30
0.0000000000895
 42
0.0
  0
VERTEX
  8
GROUP12
 10
524.901649389958
 20
523.306542104833
 30
0.0000000000896
 42
0.0
  0
VERTEX
  8
GROUP12
 10
524.660105669786
 20
523.180258709798
 30
0.0000000000896
 42
0.0
  0
VERTEX
  8
GROUP12
 10
524.408267198558
 20
523.066002309529
 30
0.0000000000896
 42
0.0
  0
VERTEX
  8
GROUP12
 10
524.147183229088
 20
522.964186129096
 30
0.0000000000896
 42
0.0
  0
VERTEX
  8
GROUP12
 10
523.877934501861
 20
522.875179591483
 30
0.0000000000896
 42
0.0
  0
VERTEX
  8
GROUP12
 10
523.601630498671
 20
522.799306832528
 30
0.0000000000897
 42
0.0
  0
VERTEX
  8
GROUP12
 10
523.319406224366
 20
522.736845182545
 30
0.0000000000897
 42
0.0
  0
VERTEX
  8
GROUP12
 10
523.032418576197
 20
522.688023731876
 30
0.0000000000897
 42
0.0
  0
VERTEX
  8
GROUP12
 10
522.741842369678
 20
522.65302206584
 30
0.0000000000897
 42
0.0
  0
SEQEND
  0
POLYLINE
  8
GROUP12
 66
     1
 10
0.0
 20
0.0
 30
0.0000000000896
 70
     9
  0
VERTEX
  8
GROUP12
 10
761.84292444747
 20
522.625000000012
 30
0.0000000000896
 42
0.0
  0
VERTEX
  8
GROUP12
 10
761.551133907464
 20
522.631969229313
 30
0.0000000000896
 42
0.0
  0
VERTEX
  8
GROUP12
 10
761.258157630303
 20
522.653022065816
 30
0.0000000000896
 42
0.0
  0
VERTEX
  8
GROUP12
 10
760.967581423784
 20
522.688023731852
 30
0.0000000000896
 42
0.0
  0
VERTEX
  8
GROUP12
 10
760.680593775615
 20
522.736845182521
 30
0.0000000000896
 42
0.0
  0
VERTEX
  8
GROUP12
 10
760.39836950131
 20
522.799306832504
 30
0.0000000000896
 42
0.0
  0
VERTEX
  8
GROUP12
 10
760.12206549812
 20
522.87517959146
 30
0.0000000000896
 42
0.0
  0
VERTEX
  8
GROUP12
 10
759.852816770893
 20
522.964186129073
 30
0.0000000000895
 42
0.0
  0
VERTEX
  8
GROUP12
 10
759.591732801423
 20
523.066002309506
 30
0.0000000000895
 42
0.0
  0
VERTEX
  8
GROUP12
 10
759.339894330195
 20
523.180258709775
 30
0.0000000000895
 42
0.0
  0
VERTEX
  8
GROUP12
 10
759.098350610023
 20
523.30654210481
 30
0.0000000000895
 42
0.0
  0
VERTEX
  8
GROUP12
 10
758.868117170008
 20
523.444396763862
 30
0.0000000000895
 42
0.0
  0
VERTEX
  8
GROUP12
 10
758.650174089004
 20
523.593325361283
 30
0.0000000000894
 42
0.0
  0
VERTEX
  8
GROUP12
 10
758.445464712671
 20
523.752789265886
 30
0.0000000000894
 42
0.0
  0
VERTEX
  8
GROUP12
 10
758.254894649691
 20
523.922207949774
 30
0.0000000000894
 42
0.0
  0
VERTEX
  8
GROUP12
 10
758.079330747231
 20
524.100957270354
 30
0.0000000000894
 42
0.0
  0
VERTEX
  8
GROUP12
 10
757.919599579394
 20
524.288366457135
 30
0.0000000000893
 42
0.0
  0
VERTEX
  8
GROUP12
 10
757.776484809917
 20
524.483713811443
 30
0.0000000000893
 42
0.0
  0
VERTEX
  8
GROUP12
 10
757.65072266378
 20
524.68622142882
 30
0.0000000000893
 42
0.0
  0
VERTEX
  8
GROUP12
 10
757.542994743498
 20
524.895049678522
 30
0.0000000000893
 42
0.0
  0
VERTEX
  8
GROUP12
 10
757.453917652774
 20
525.109292662807
 30
0.0000000000893
 42
0.0
  0
VERTEX
  8
GROUP12
 10
757.384029417216
 20
525.327976292522
 30
0.0000000000892
 42
0.0
  0
VERTEX
  8
GROUP12
 10
757.333773505574
 20
525.550060747435
 30
0.0000000000892
 42
0.0
  0
VERTEX
  8
GROUP12
 10
757.303482193392
 20
525.774448731767
 30
0.0000000000892
 42
0.0
  0
VERTEX
  8
GROUP12
 10
757.293361759149
 20
526.000000000014
 30
0.0000000000892
 42
0.0
  0
VERTEX
  8
GROUP12
 10
757.303482193392
 20
526.22555126826
 30
0.0000000000892
 42
0.0
  0
VERTEX
  8
GROUP12
 10
757.333773505574
 20
526.449939252592
 30
0.0000000000891
 42
0.0
  0
VERTEX
  8
GROUP12
 10
757.384029417217
 20
526.672023707505
 30
0.0000000000891
 42
0.0
  0
VERTEX
  8
GROUP12
 10
757.453917652775
 20
526.89070733722
 30
0.0000000000891
 42
0.0
  0
VERTEX
  8
GROUP12
 10
757.542994743499
 20
527.104950321505
 30
0.0000000000891
 42
0.0
  0
VERTEX
  8
GROUP12
 10
757.650722663781
 20
527.313778571206
 30
0.0000000000891
 42
0.0
  0
VERTEX
  8
GROUP12
 10
757.776484809918
 20
527.516286188584
 30
0.0000000000891
 42
0.0
  0
VERTEX
  8
GROUP12
 10
757.919599579395
 20
527.711633542891
 30
0.0000000000891
 42
0.0
  0
VERTEX
  8
GROUP12
 10
758.079330747231
 20
527.899042729672
 30
0.000000000089
 42
0.0
  0
VERTEX
  8
GROUP12
 10
758.254894649692
 20
528.077792050253
 30
0.000000000089
 42
0.0
  0
VERTEX
  8
GROUP12
 10
758.445464712672
 20
528.24721073414
 30
0.000000000089
 42
0.0
  0
VERTEX
  8
GROUP12
 10
758.650174089005
 20
528.406674638744
 30
0.000000000089
 42
0.0
  0
VERTEX
  8
GROUP12
 10
758.868117170009
 20
528.555603236165
 30
0.000000000089
 42
0.0
  0
VERTEX
  8
GROUP12
 10
759.098350610025
 20
528.693457895216
 30
0.000000000089
 42
0.0
  0
VERTEX
  8
GROUP12
 10
759.339894330197
 20
528.819741290251
 30
0.000000000089
 42
0.0
  0
VERTEX
  8
GROUP12
 10
759.591732801425
 20
528.93399769052
 30
0.000000000089
 42
0.0
  0
VERTEX
  8
GROUP12
 10
759.852816770894
 20
529.035813870953
 30
0.000000000089
 42
0.0
  0
VERTEX
  8
GROUP12
 10
760.122065498121
 20
529.124820408566
 30
0.000000000089
 42
0.0
  0
VERTEX
  8
GROUP12
 10
760.398369501312
 20
529.200693167521
 30
0.000000000089
 42
0.0
  0
VERTEX
  8
GROUP12
 10
760.680593775617
 20
529.263154817504
 30
0.000000000089
 42
0.0
  0
VERTEX
  8
GROUP12
 10
760.967581423786
 20
529.311976268174
 30
0.000000000089
 42
0.0
  0
VERTEX
  8
GROUP12
 10
761.258157630305
 20
529.346977934209
 30
0.000000000089
 42
0.0
  0
VERTEX
  8
GROUP12
 10
761.551133907465
 20
529.368030770712
 30
0.0000000000891
 42
0.0
  0
VERTEX
  8
GROUP12
 10
761.842924447471
 20
529.375000000012
 30
0.0000000000891
 42
0.0
  0
VERTEX
  8
GROUP12
 10
762.08972105173
 20
529.375000000013
 30
0.0000000000891
 42
0.0
  0
VERTEX
  8
GROUP12
 10
762.325658133486
 20
529.853433073304
 30
0.000000000089
 42
0.0
  0
VERTEX
  8
GROUP12
 10
762.885731999424
 20
530.691642848585
 30
0.000000000089
 42
0.0
  0
VERTEX
  8
GROUP12
 10
763.550422686048
 20
531.449577313958
 30
0.000000000089
 42
0.0
  0
VERTEX
  8
GROUP12
 10
764.308357151421
 20
532.114268000581
 30
0.0000000000889
 42
0.0
  0
VERTEX
  8
GROUP12
 10
765.146566926703
 20
532.674341866519
 30
0.0000000000889
 42
0.0
  0
VERTEX
  8
GROUP12
 10
766.050710010241
 20
533.120215892644
 30
0.0000000000889
 42
0.0
  0
VERTEX
  8
GROUP12
 10
767.005316263203
 20
533.444261050749
 30
0.0000000000889
 42
0.0
  0
VERTEX
  8
GROUP12
 10
767.994052107931
 20
533.640932838337
 30
0.000000000089
 42
0.0
  0
VERTEX
  8
GROUP12
 10
768.999999999994
 20
533.706866146594
 30
0.000000000089
 42
0.0
  0
VERTEX
  8
GROUP12
 10
770.005947892058
 20
533.640932838337
 30
0.000000000089
 42
0.0
  0
VERTEX
  8
GROUP12
 10
770.994683736786
 20
533.444261050748
 30
0.0000000000891
 42
0.0
  0
VERTEX
  8
GROUP12
 10
771.949289989747
 20
533.120215892643
 30
0.0000000000892
 42
0.0
  0
VERTEX
  8
GROUP12
 10
772.853433073286
 20
532.674341866517
 30
0.0000000000892
 42
0.0
  0
VERTEX
  8
GROUP12
 10
773.691642848567
 20
532.114268000579
 30
0.0000000000893
 42
0.0
  0
VERTEX
  8
GROUP12
 10
774.44957731394
 20
531.449577313956
 30
0.0000000000894
 42
0.0
  0
VERTEX
  8
GROUP12
 10
775.114268000563
 20
530.691642848582
 30
0.0000000000895
 42
0.0
  0
VERTEX
  8
GROUP12
 10
775.674341866501
 20
529.853433073301
 30
0.0000000000896
 42
0.0
  0
VERTEX
  8
GROUP12
 10
775.910278948257
 20
529.375000000009
 30
0.0000000000896
 42
0.0
  0
VERTEX
  8
GROUP12
 10
776.157075552515
 20
529.375000000009
 30
0.0000000000896
 42
0.0
  0
VERTEX
  8
GROUP12
 10
776.448866092522
 20
529.368030770709
 30
0.0000000000897
 42
0.0
  0
VERTEX
  8
GROUP12
 10
776.741842369682
 20
529.346977934206
 30
0.0000000000897
 42
0.0
  0
VERTEX
  8
GROUP12
 10
777.032418576201
 20
529.31197626817
 30
0.0000000000897
 42
0.0
  0
VERTEX
  8
GROUP12
 10
777.31940622437
 20
529.2631548175
 30
0.0000000000897
 42
0.0
  0
VERTEX
  8
GROUP12
 10
777.601630498675
 20
529.200693167517
 30
0.0000000000897
 42
0.0
  0
VERTEX
  8
GROUP12
 10
777.877934501866
 20
529.124820408562
 30
0.0000000000897
 42
0.0
  0
VERTEX
  8
GROUP12
 10
778.147183229092
 20
529.035813870949
 30
0.0000000000898
 42
0.0
  0
VERTEX
  8
GROUP12
 10
778.408267198562
 20
528.933997690516
 30
0.0000000000898
 42
0.0
  0
VERTEX
  8
GROUP12
 10
778.66010566979
 20
528.819741290246
 30
0.0000000000898
 42
0.0
  0
VERTEX
  8
GROUP12
 10
778.901649389962
 20
528.693457895211
 30
0.0000000000898
 42
0.0
  0
VERTEX
  8
GROUP12
 10
779.131882829977
 20
528.55560323616
 30
0.0000000000898
 42
0.0
  0
VERTEX
  8
GROUP12
 10
779.349825910981
 20
528.406674638739
 30
0.0000000000899
 42
0.0
  0
VERTEX
  8
GROUP12
 10
779.554535287314
 20
528.247210734135
 30
0.0000000000899
 42
0.0
  0
VERTEX
  8
GROUP12
 10
779.745105350295
 20
528.077792050248
 30
0.0000000000899
 42
0.0
  0
VERTEX
  8
GROUP12
 10
779.920669252755
 20
527.899042729668
 30
0.0000000000899
 42
0.0
  0
VERTEX
  8
GROUP12
 10
780.080400420591
 20
527.711633542886
 30
0.0000000000899
 42
0.0
  0
VERTEX
  8
GROUP12
 10
780.223515190068
 20
527.516286188579
 30
0.00000000009
 42
0.0
  0
VERTEX
  8
GROUP12
 10
780.349277336205
 20
527.313778571201
 30
0.00000000009
 42
0.0
  0
VERTEX
  8
GROUP12
 10
780.457005256487
 20
527.1049503215
 30
0.00000000009
 42
0.0
  0
VERTEX
  8
GROUP12
 10
780.546082347211
 20
526.890707337215
 30
0.00000000009
 42
0.0
  0
VERTEX
  8
GROUP12
 10
780.615970582769
 20
526.672023707499
 30
0.0000000000901
 42
0.0
  0
VERTEX
  8
GROUP12
 10
780.666226494411
 20
526.449939252587
 30
0.0000000000901
 42
0.0
  0
VERTEX
  8
GROUP12
 10
780.696517806594
 20
526.225551268254
 30
0.0000000000901
 42
0.0
  0
VERTEX
  8
GROUP12
 10
780.706638240837
 20
526.000000000008
 30
0.0000000000901
 42
0.0
  0
VERTEX
  8
GROUP12
 10
780.696517806593
 20
525.774448731762
 30
0.0000000000901
 42
0.0
  0
VERTEX
  8
GROUP12
 10
780.666226494411
 20
525.55006074743
 30
0.0000000000902
 42
0.0
  0
VERTEX
  8
GROUP12
 10
780.615970582769
 20
525.327976292517
 30
0.0000000000902
 42
0.0
  0
VERTEX
  8
GROUP12
 10
780.546082347211
 20
525.109292662801
 30
0.0000000000902
 42
0.0
  0
VERTEX
  8
GROUP12
 10
780.457005256486
 20
524.895049678516
 30
0.0000000000902
 42
0.0
  0
VERTEX
  8
GROUP12
 10
780.349277336204
 20
524.686221428815
 30
0.0000000000902
 42
0.0
  0
VERTEX
  8
GROUP12
 10
780.223515190067
 20
524.483713811437
 30
0.0000000000902
 42
0.0
  0
VERTEX
  8
GROUP12
 10
780.080400420591
 20
524.28836645713
 30
0.0000000000902
 42
0.0
  0
VERTEX
  8
GROUP12
 10
779.920669252754
 20
524.100957270349
 30
0.0000000000902
 42
0.0
  0
VERTEX
  8
GROUP12
 10
779.745105350294
 20
523.922207949769
 30
0.0000000000903
 42
0.0
  0
VERTEX
  8
GROUP12
 10
779.554535287313
 20
523.752789265881
 30
0.0000000000903
 42
0.0
  0
VERTEX
  8
GROUP12
 10
779.34982591098
 20
523.593325361278
 30
0.0000000000903
 42
0.0
  0
VERTEX
  8
GROUP12
 10
779.131882829976
 20
523.444396763857
 30
0.0000000000903
 42
0.0
  0
VERTEX
  8
GROUP12
 10
778.901649389961
 20
523.306542104806
 30
0.0000000000903
 42
0.0
  0
VERTEX
  8
GROUP12
 10
778.660105669789
 20
523.180258709771
 30
0.0000000000903
 42
0.0
  0
VERTEX
  8
GROUP12
 10
778.40826719856
 20
523.066002309501
 30
0.0000000000903
 42
0.0
  0
VERTEX
  8
GROUP12
 10
778.147183229091
 20
522.964186129069
 30
0.0000000000903
 42
0.0
  0
VERTEX
  8
GROUP12
 10
777.877934501864
 20
522.875179591456
 30
0.0000000000903
 42
0.0
  0
VERTEX
  8
GROUP12
 10
777.601630498674
 20
522.7993068325
 30
0.0000000000903
 42
0.0
  0
VERTEX
  8
GROUP12
 10
777.319406224369
 20
522.736845182518
 30
0.0000000000903
 42
0.0
  0
VERTEX
  8
GROUP12
 10
777.0324185762
 20
522.688023731848
 30
0.0000000000903
 42
0.0
  0
VERTEX
  8
GROUP12
 10
776.741842369681
 20
522.653022065812
 30
0.0000000000902
 42
0.0
  0
VERTEX
  8
GROUP12
 10
776.44886609252
 20
522.631969229309
 30
0.0000000000902
 42
0.0
  0
VERTEX
  8
GROUP12
 10
776.157075552514
 20
522.625000000009
 30
0.0000000000902
 42
0.0
  0
VERTEX
  8
GROUP12
 10
775.910278948255
 20
522.625000000009
 30
0.0000000000902
 42
0.0
  0
VERTEX
  8
GROUP12
 10
775.674341866499
 20
522.146566926717
 30
0.0000000000902
 42
0.0
  0
VERTEX
  8
GROUP12
 10
775.114268000561
 20
521.308357151436
 30
0.0000000000903
 42
0.0
  0
VERTEX
  8
GROUP12
 10
774.449577313938
 20
520.550422686063
 30
0.0000000000903
 42
0.0
  0
VERTEX
  8
GROUP12
 10
773.691642848564
 20
519.88573199944
 30
0.0000000000904
 42
0.0
  0
VERTEX
  8
GROUP12
 10
772.853433073283
 20
519.325658133502
 30
0.0000000000904
 42
0.0
  0
VERTEX
  8
GROUP12
 10
771.949289989744
 20
518.879784107378
 30
0.0000000000904
 42
0.0
  0
VERTEX
  8
GROUP12
 10
770.994683736782
 20
518.555738949273
 30
0.0000000000904
 42
0.0
  0
VERTEX
  8
GROUP12
 10
770.005947892054
 20
518.359067161685
 30
0.0000000000903
 42
0.0
  0
VERTEX
  8
GROUP12
 10
768.999999999991
 20
518.293133853427
 30
0.0000000000903
 42
0.0
  0
VERTEX
  8
GROUP12
 10
767.994052107928
 20
518.359067161685
 30
0.0000000000903
 42
0.0
  0
VERTEX
  8
GROUP12
 10
767.005316263199
 20
518.555738949273
 30
0.0000000000902
 42
0.0
  0
VERTEX
  8
GROUP12
 10
766.050710010238
 20
518.879784107379
 30
0.0000000000901
 42
0.0
  0
VERTEX
  8
GROUP12
 10
765.146566926699
 20
519.325658133504
 30
0.0000000000901
 42
0.0
  0
VERTEX
  8
GROUP12
 10
764.308357151418
 20
519.885731999442
 30
0.00000000009
 42
0.0
  0
VERTEX
  8
GROUP12
 10
763.550422686045
 20
520.550422686066
 30
0.0000000000899
 42
0.0
  0
VERTEX
  8
GROUP12
 10
762.885731999422
 20
521.308357151439
 30
0.0000000000898
 42
0.0
  0
VERTEX
  8
GROUP12
 10
762.325658133484
 20
522.146566926721
 30
0.0000000000897
 42
0.0
  0
VERTEX
  8
GROUP12
 10
762.089721051728
 20
522.625000000012
 30
0.0000000000897
 42
0.0
  0
SEQEND
  0
POLYLINE
  8
GROUP12
 66
     1
 10
0.0
 20
0.0
 30
0.0000000000864
 70
     9
  0
VERTEX
  8
GROUP12
 10
784.000000000005
 20
578.000000000008
 30
0.0000000000864
 42
0.0
  0
VERTEX
  8
GROUP12
 10
783.999999999998
 20
548.000000000011
 30
0.0000000000891
 42
0.0
  0
VERTEX
  8
GROUP12
 10
771.29999999999
 20
548.000000000014
 30
0.0000000000887
 42
0.0
  0
VERTEX
  8
GROUP12
 10
771.299999999997
 20
578.000000000011
 30
0.0000000000864
 42
0.0
  0
SEQEND
  0
POLYLINE
  8
GROUP12
 66
     1
 10
0.0
 20
0.0
 30
0.0000000000891
 70
     9
  0
VERTEX
  8
GROUP12
 10
549.825000023645
 20
548.000000000044
 30
0.0000000000891
 42
0.0
  0
VERTEX
  8
GROUP12
 10
543.825000023647
 20
548.000000000045
 30
0.0000000000889
 42
0.0
  0
VERTEX
  8
GROUP12
 10
543.825000023651
 20
578.000000000042
 30
0.0000000000865
 42
0.0
  0
VERTEX
  8
GROUP12
 10
549.825000023649
 20
578.000000000042
 30
0.0000000000865
 42
0.0
  0
SEQEND
  0
CIRCLE
  8
GROUP13
 10
559.825000023648
 20
466.999995902342
 30
0.0000000001392
 40
1.5
  0
CIRCLE
  8
GROUP13
 10
560.0
 20
497.0
 30
0.0
 40
1.5
  0
CIRCLE
  8
GROUP13
 10
761.299999999998
 20
496.99999590232
 30
0.0000000001366
 40
1.5
  0
CIRCLE
  8
GROUP13
 10
761.299999999991
 20
466.999995902329
 30
0.000000000139
 40
1.5
  0
POLYLINE
  8
GROUP13
 66
     1
 10
0.0
 20
0.0
 30
0.0000000001392
 70
     9
  0
VERTEX
  8
GROUP13
 10
493.999999999998
 20
484.993129755764
 30
0.0000000001392
 42
0.0
  0
VERTEX
  8
GROUP13
 10
493.999999999995
 20
456.999995902349
 30
0.0000000001402
 42
0.0
  0
VERTEX
  8
GROUP13
 10
494.114101789239
 20
455.971852031916
 30
0.0000000001402
 42
0.0
  0
VERTEX
  8
GROUP13
 10
494.253300896621
 20
454.946804401256
 30
0.0000000001403
 42
0.0
  0
VERTEX
  8
GROUP13
 10
494.417514140541
 20
453.925465550952
 30
0.0000000001403
 42
0.0
  0
VERTEX
  8
GROUP13
 10
494.606643391632
 20
452.908445805323
 30
0.0000000001403
 42
0.0
  0
VERTEX
  8
GROUP13
 10
494.820575631396
 20
451.896352907706
 30
0.0000000001402
 42
0.0
  0
VERTEX
  8
GROUP13
 10
495.059183019747
 20
450.889791657288
 30
0.0000000001402
 42
0.0
  0
VERTEX
  8
GROUP13
 10
495.322322971398
 20
449.889363547696
 30
0.0000000001402
 42
0.0
  0
VERTEX
  8
GROUP13
 10
495.609838241072
 20
448.895666407556
 30
0.0000000001401
 42
0.0
  0
VERTEX
  8
GROUP13
 10
495.921557017464
 20
447.909294043252
 30
0.0000000001401
 42
0.0
  0
VERTEX
  8
GROUP13
 10
496.257293025912
 20
446.930835884081
 30
0.00000000014
 42
0.0
  0
VERTEX
  8
GROUP13
 10
496.616845639709
 20
445.960876630024
 30
0.0000000001399
 42
0.0
  0
VERTEX
  8
GROUP13
 10
496.999999999992
 20
444.99999590235
 30
0.0000000001398
 42
0.0
  0
VERTEX
  8
GROUP13
 10
497.784919453089
 20
443.329563001416
 30
0.0000000001402
 42
0.0
  0
VERTEX
  8
GROUP13
 10
498.725121867304
 20
441.741336403762
 30
0.0000000001402
 42
0.0
  0
VERTEX
  8
GROUP13
 10
499.812086884637
 20
440.249709320243
 30
0.0000000001403
 42
0.0
  0
VERTEX
  8
GROUP13
 10
501.035963940046
 20
438.868199545239
 30
0.0000000001403
 42
0.0
  0
VERTEX
  8
GROUP13
 10
502.38566171013
 20
437.609326940635
 30
0.0000000001404
 42
0.0
  0
VERTEX
  8
GROUP13
 10
503.848948627674
 20
436.484499975215
 30
0.0000000001404
 42
0.0
  0
VERTEX
  8
GROUP13
 10
505.412563729608
 20
435.503912335992
 30
0.0000000001404
 42
0.0
  0
VERTEX
  8
GROUP13
 10
507.062336833807
 20
434.676450548442
 30
0.0000000001403
 42
0.0
  0
VERTEX
  8
GROUP13
 10
508.783316955643
 20
434.00961344282
 30
0.0000000001403
 42
0.0
  0
VERTEX
  8
GROUP13
 10
510.559907800524
 20
433.509444196388
 30
0.0000000001402
 42
0.0
  0
VERTEX
  8
GROUP13
 10
512.376009104516
 20
433.180475567438
 30
0.0000000001402
 42
0.0
  0
VERTEX
  8
GROUP13
 10
513.433685789378
 20
433.102657553218
 30
0.0000000001401
 42
0.0
  0
VERTEX
  8
GROUP13
 10
514.215162542161
 20
433.025688817392
 30
0.0000000001401
 42
0.0
  0
VERTEX
  8
GROUP13
 10
515.000000089397
 20
432.999995902346
 30
0.0000000001398
 42
0.0
  0
VERTEX
  8
GROUP13
 10
515.78483763625
 20
433.025688829087
 30
0.0000000001398
 42
0.0
  0
VERTEX
  8
GROUP13
 10
516.566314387886
 20
433.102657576558
 30
0.0000000001398
 42
0.0
  0
VERTEX
  8
GROUP13
 10
517.623991073895
 20
433.180475579131
 30
0.0000000001399
 42
0.0
  0
VERTEX
  8
GROUP13
 10
519.440092377886
 20
433.509444208081
 30
0.00000000014
 42
0.0
  0
VERTEX
  8
GROUP13
 10
521.216683222768
 20
434.009613454512
 30
0.00000000014
 42
0.0
  0
VERTEX
  8
GROUP13
 10
522.937663344604
 20
434.676450560134
 30
0.0000000001401
 42
0.0
  0
VERTEX
  8
GROUP13
 10
524.587436448803
 20
435.503912347683
 30
0.0000000001401
 42
0.0
  0
VERTEX
  8
GROUP13
 10
526.151051550738
 20
436.484499986905
 30
0.0000000001401
 42
0.0
  0
VERTEX
  8
GROUP13
 10
527.614338468282
 20
437.609326952324
 30
0.0000000001401
 42
0.0
  0
VERTEX
  8
GROUP13
 10
528.964036238366
 20
438.868199556928
 30
0.0000000001401
 42
0.0
  0
VERTEX
  8
GROUP13
 10
530.187913293777
 20
440.249709331931
 30
0.00000000014
 42
0.0
  0
VERTEX
  8
GROUP13
 10
531.27487831111
 20
441.74133641545
 30
0.0000000001399
 42
0.0
  0
VERTEX
  8
GROUP13
 10
532.215080725326
 20
443.329563013103
 30
0.0000000001399
 42
0.0
  0
VERTEX
  8
GROUP13
 10
532.999999999991
 20
444.999995902342
 30
0.0000000001398
 42
0.0
  0
VERTEX
  8
GROUP13
 10
533.58983964163
 20
446.685584104661
 30
0.0000000001398
 42
0.0
  0
VERTEX
  8
GROUP13
 10
534.356836466754
 20
448.298294326893
 30
0.0000000001399
 42
0.0
  0
VERTEX
  8
GROUP13
 10
535.292164959806
 20
449.819569778851
 30
0.0000000001399
 42
0.0
  0
VERTEX
  8
GROUP13
 10
536.385062682275
 20
451.231905772468
 30
0.00000000014
 42
0.0
  0
VERTEX
  8
GROUP13
 10
537.62295411163
 20
452.519051141015
 30
0.00000000014
 42
0.0
  0
VERTEX
  8
GROUP13
 10
538.991595342667
 20
453.666195234558
 30
0.00000000014
 42
0.0
  0
VERTEX
  8
GROUP13
 10
540.475237986233
 20
454.66013833999
 30
0.0000000001401
 42
0.0
  0
VERTEX
  8
GROUP13
 10
542.056810379441
 20
455.489443564672
 30
0.0000000001401
 42
0.0
  0
VERTEX
  8
GROUP13
 10
543.718114022236
 20
456.144568436037
 30
0.0000000001401
 42
0.0
  0
VERTEX
  8
GROUP13
 10
545.440032980016
 20
456.617974702875
 30
0.0000000001401
 42
0.0
  0
VERTEX
  8
GROUP13
 10
547.202753842797
 20
456.904215074874
 30
0.0000000001401
 42
0.0
  0
VERTEX
  8
GROUP13
 10
548.98599370993
 20
456.999995902342
 30
0.0000000001401
 42
0.0
  0
VERTEX
  8
GROUP13
 10
735.014006290061
 20
456.99999590233
 30
0.0000000001401
 42
0.0
  0
VERTEX
  8
GROUP13
 10
736.797246157194
 20
456.904215074861
 30
0.00000000014
 42
0.0
  0
VERTEX
  8
GROUP13
 10
738.559967019975
 20
456.617974702861
 30
0.00000000014
 42
0.0
  0
VERTEX
  8
GROUP13
 10
740.281885977755
 20
456.144568436023
 30
0.00000000014
 42
0.0
  0
VERTEX
  8
GROUP13
 10
741.943189620549
 20
455.489443564657
 30
0.00000000014
 42
0.0
  0
VERTEX
  8
GROUP13
 10
743.524762013757
 20
454.660138339974
 30
0.00000000014
 42
0.0
  0
VERTEX
  8
GROUP13
 10
745.008404657323
 20
453.666195234542
 30
0.0000000001399
 42
0.0
  0
VERTEX
  8
GROUP13
 10
746.377045888359
 20
452.519051140998
 30
0.0000000001399
 42
0.0
  0
VERTEX
  8
GROUP13
 10
747.614937317714
 20
451.231905772451
 30
0.0000000001399
 42
0.0
  0
VERTEX
  8
GROUP13
 10
748.707835040181
 20
449.819569778833
 30
0.0000000001398
 42
0.0
  0
VERTEX
  8
GROUP13
 10
749.643163533233
 20
448.298294326875
 30
0.0000000001398
 42
0.0
  0
VERTEX
  8
GROUP13
 10
750.410160358357
 20
446.685584104642
 30
0.0000000001397
 42
0.0
  0
VERTEX
  8
GROUP13
 10
750.999999999994
 20
444.999995902323
 30
0.0000000001397
 42
0.0
  0
VERTEX
  8
GROUP13
 10
751.784919274658
 20
443.329563013084
 30
0.0000000001398
 42
0.0
  0
VERTEX
  8
GROUP13
 10
752.725121688874
 20
441.74133641543
 30
0.0000000001399
 42
0.0
  0
VERTEX
  8
GROUP13
 10
753.812086706206
 20
440.249709331911
 30
0.0000000001399
 42
0.0
  0
VERTEX
  8
GROUP13
 10
755.035963761616
 20
438.868199556906
 30
0.00000000014
 42
0.0
  0
VERTEX
  8
GROUP13
 10
756.3856615317
 20
437.609326952302
 30
0.00000000014
 42
0.0
  0
VERTEX
  8
GROUP13
 10
757.848948449244
 20
436.484499986882
 30
0.00000000014
 42
0.0
  0
VERTEX
  8
GROUP13
 10
759.412563551178
 20
435.503912347659
 30
0.00000000014
 42
0.0
  0
VERTEX
  8
GROUP13
 10
761.062336655376
 20
434.67645056011
 30
0.00000000014
 42
0.0
  0
VERTEX
  8
GROUP13
 10
762.783316777213
 20
434.009613454488
 30
0.0000000001399
 42
0.0
  0
VERTEX
  8
GROUP13
 10
764.559907622094
 20
433.509444208056
 30
0.0000000001399
 42
0.0
  0
VERTEX
  8
GROUP13
 10
766.376008926085
 20
433.180475579105
 30
0.0000000001398
 42
0.0
  0
VERTEX
  8
GROUP13
 10
767.433685612094
 20
433.102657576531
 30
0.0000000001397
 42
0.0
  0
VERTEX
  8
GROUP13
 10
768.21516236373
 20
433.02568882906
 30
0.0000000001397
 42
0.0
  0
VERTEX
  8
GROUP13
 10
768.999999910583
 20
432.999995902319
 30
0.0000000001397
 42
0.0
  0
VERTEX
  8
GROUP13
 10
769.784837457819
 20
433.025688817364
 30
0.00000000014
 42
0.0
  0
VERTEX
  8
GROUP13
 10
770.566314210602
 20
433.10265755319
 30
0.00000000014
 42
0.0
  0
VERTEX
  8
GROUP13
 10
771.623990895464
 20
433.180475567409
 30
0.0000000001401
 42
0.0
  0
VERTEX
  8
GROUP13
 10
773.440092199456
 20
433.509444196359
 30
0.0000000001401
 42
0.0
  0
VERTEX
  8
GROUP13
 10
775.216683044337
 20
434.009613442789
 30
0.0000000001402
 42
0.0
  0
VERTEX
  8
GROUP13
 10
776.937663166174
 20
434.676450548411
 30
0.0000000001402
 42
0.0
  0
VERTEX
  8
GROUP13
 10
778.587436270373
 20
435.50391233596
 30
0.0000000001403
 42
0.0
  0
VERTEX
  8
GROUP13
 10
780.151051372307
 20
436.484499975182
 30
0.0000000001403
 42
0.0
  0
VERTEX
  8
GROUP13
 10
781.614338289852
 20
437.609326940601
 30
0.0000000001403
 42
0.0
  0
VERTEX
  8
GROUP13
 10
782.964036059936
 20
438.868199545205
 30
0.0000000001402
 42
0.0
  0
VERTEX
  8
GROUP13
 10
784.187913115346
 20
440.249709320209
 30
0.0000000001402
 42
0.0
  0
VERTEX
  8
GROUP13
 10
785.27487813268
 20
441.741336403727
 30
0.0000000001401
 42
0.0
  0
VERTEX
  8
GROUP13
 10
786.215080546895
 20
443.329563001381
 30
0.00000000014
 42
0.0
  0
VERTEX
  8
GROUP13
 10
786.999999999994
 20
444.999995902315
 30
0.0000000001397
 42
0.0
  0
VERTEX
  8
GROUP13
 10
787.383154360277
 20
445.960876629988
 30
0.0000000001398
 42
0.0
  0
VERTEX
  8
GROUP13
 10
787.742706974074
 20
446.930835884044
 30
0.0000000001399
 42
0.0
  0
VERTEX
  8
GROUP13
 10
788.078442982522
 20
447.909294043215
 30
0.0000000001399
 42
0.0
  0
VERTEX
  8
GROUP13
 10
788.390161758915
 20
448.895666407519
 30
0.00000000014
 42
0.0
  0
VERTEX
  8
GROUP13
 10
788.67767702859
 20
449.889363547659
 30
0.00000000014
 42
0.0
  0
VERTEX
  8
GROUP13
 10
788.940816980242
 20
450.889791657251
 30
0.0000000001401
 42
0.0
  0
VERTEX
  8
GROUP13
 10
789.179424368593
 20
451.896352907669
 30
0.0000000001401
 42
0.0
  0
VERTEX
  8
GROUP13
 10
789.393356608358
 20
452.908445805286
 30
0.0000000001401
 42
0.0
  0
VERTEX
  8
GROUP13
 10
789.582485859449
 20
453.925465550915
 30
0.0000000001401
 42
0.0
  0
VERTEX
  8
GROUP13
 10
789.746699103369
 20
454.946804401219
 30
0.0000000001401
 42
0.0
  0
VERTEX
  8
GROUP13
 10
789.885898210752
 20
455.971852031879
 30
0.0000000001401
 42
0.0
  0
VERTEX
  8
GROUP13
 10
789.999999999996
 20
456.999995902317
 30
0.0000000001401
 42
0.0
  0
VERTEX
  8
GROUP13
 10
790.000000000001
 20
506.999995902317
 30
0.0000000001358
 42
0.0
  0
VERTEX
  8
GROUP13
 10
493.999999999998
 20
506.999995902308
 30
0.0000000000926
 42
0.0
  0
VERTEX
  8
GROUP13
 10
493.999999999998
 20
487.993129755764
 30
0.0000000001368
 42
0.0
  0
SEQEND
  0
POLYLINE
  8
GROUP13
 66
     1
 10
0.0
 20
0.0
 30
0.00000000014
 70
     9
  0
VERTEX
  8
GROUP13
 10
522.448866092519
 20
441.631965131645
 30
0.00000000014
 42
0.0
  0
VERTEX
  8
GROUP13
 10
522.157075552512
 20
441.624995902345
 30
0.00000000014
 42
0.0
  0
VERTEX
  8
GROUP13
 10
521.910278948254
 20
441.624995902345
 30
0.00000000014
 42
0.0
  0
VERTEX
  8
GROUP13
 10
521.674341866498
 20
441.146562829053
 30
0.00000000014
 42
0.0
  0
VERTEX
  8
GROUP13
 10
521.11426800056
 20
440.308353053772
 30
0.0000000001401
 42
0.0
  0
VERTEX
  8
GROUP13
 10
520.449577313936
 20
439.550418588399
 30
0.0000000001402
 42
0.0
  0
VERTEX
  8
GROUP13
 10
519.691642848563
 20
438.885727901776
 30
0.0000000001403
 42
0.0
  0
VERTEX
  8
GROUP13
 10
518.853433073281
 20
438.325654035838
 30
0.0000000001404
 42
0.0
  0
VERTEX
  8
GROUP13
 10
517.949289989743
 20
437.879780009713
 30
0.0000000001405
 42
0.0
  0
VERTEX
  8
GROUP13
 10
516.994683736781
 20
437.555734851608
 30
0.0000000001405
 42
0.0
  0
VERTEX
  8
GROUP13
 10
516.005947892053
 20
437.35906306402
 30
0.0000000001406
 42
0.0
  0
VERTEX
  8
GROUP13
 10
514.99999999999
 20
437.293129755763
 30
0.0000000001406
 42
0.0
  0
VERTEX
  8
GROUP13
 10
513.994052107927
 20
437.359063064021
 30
0.0000000001407
 42
0.0
  0
VERTEX
  8
GROUP13
 10
513.005316263198
 20
437.555734851609
 30
0.0000000001407
 42
0.0
  0
VERTEX
  8
GROUP13
 10
512.050710010237
 20
437.879780009715
 30
0.0000000001407
 42
0.0
  0
VERTEX
  8
GROUP13
 10
511.146566926698
 20
438.32565403584
 30
0.0000000001407
 42
0.0
  0
VERTEX
  8
GROUP13
 10
510.308357151417
 20
438.885727901778
 30
0.0000000001407
 42
0.0
  0
VERTEX
  8
GROUP13
 10
509.550422686044
 20
439.550418588401
 30
0.0000000001407
 42
0.0
  0
VERTEX
  8
GROUP13
 10
508.885731999421
 20
440.308353053775
 30
0.0000000001406
 42
0.0
  0
VERTEX
  8
GROUP13
 10
508.325658133483
 20
441.146562829056
 30
0.0000000001406
 42
0.0
  0
VERTEX
  8
GROUP13
 10
508.089721051727
 20
441.624995902348
 30
0.0000000001406
 42
0.0
  0
VERTEX
  8
GROUP13
 10
507.842924447469
 20
441.624995902348
 30
0.0000000001406
 42
0.0
  0
VERTEX
  8
GROUP13
 10
507.551133907462
 20
441.631965131648
 30
0.0000000001406
 42
0.0
  0
VERTEX
  8
GROUP13
 10
507.258157630302
 20
441.653017968151
 30
0.0000000001406
 42
0.0
  0
VERTEX
  8
GROUP13
 10
506.967581423783
 20
441.688019634187
 30
0.0000000001406
 42
0.0
  0
VERTEX
  8
GROUP13
 10
506.680593775614
 20
441.736841084857
 30
0.0000000001406
 42
0.0
  0
VERTEX
  8
GROUP13
 10
506.398369501309
 20
441.79930273484
 30
0.0000000001406
 42
0.0
  0
VERTEX
  8
GROUP13
 10
506.122065498119
 20
441.875175493795
 30
0.0000000001406
 42
0.0
  0
VERTEX
  8
GROUP13
 10
505.852816770892
 20
441.964182031408
 30
0.0000000001406
 42
0.0
  0
VERTEX
  8
GROUP13
 10
505.591732801422
 20
442.065998211841
 30
0.0000000001406
 42
0.0
  0
VERTEX
  8
GROUP13
 10
505.339894330194
 20
442.180254612111
 30
0.0000000001406
 42
0.0
  0
VERTEX
  8
GROUP13
 10
505.098350610022
 20
442.306538007146
 30
0.0000000001406
 42
0.0
  0
VERTEX
  8
GROUP13
 10
504.868117170007
 20
442.444392666197
 30
0.0000000001406
 42
0.0
  0
VERTEX
  8
GROUP13
 10
504.650174089003
 20
442.593321263618
 30
0.0000000001406
 42
0.0
  0
VERTEX
  8
GROUP13
 10
504.44546471267
 20
442.752785168222
 30
0.0000000001406
 42
0.0
  0
VERTEX
  8
GROUP13
 10
504.254894649689
 20
442.922203852109
 30
0.0000000001406
 42
0.0
  0
VERTEX
  8
GROUP13
 10
504.07933074723
 20
443.10095317269
 30
0.0000000001406
 42
0.0
  0
VERTEX
  8
GROUP13
 10
503.919599579393
 20
443.288362359471
 30
0.0000000001406
 42
0.0
  0
VERTEX
  8
GROUP13
 10
503.776484809916
 20
443.483709713778
 30
0.0000000001406
 42
0.0
  0
VERTEX
  8
GROUP13
 10
503.650722663779
 20
443.686217331156
 30
0.0000000001406
 42
0.0
  0
VERTEX
  8
GROUP13
 10
503.542994743497
 20
443.895045580857
 30
0.0000000001406
 42
0.0
  0
VERTEX
  8
GROUP13
 10
503.453917652773
 20
444.109288565142
 30
0.0000000001405
 42
0.0
  0
VERTEX
  8
GROUP13
 10
503.384029417215
 20
444.327972194858
 30
0.0000000001405
 42
0.0
  0
VERTEX
  8
GROUP13
 10
503.333773505573
 20
444.550056649771
 30
0.0000000001405
 42
0.0
  0
VERTEX
  8
GROUP13
 10
503.30348219339
 20
444.774444634103
 30
0.0000000001405
 42
0.0
  0
VERTEX
  8
GROUP13
 10
503.293361759147
 20
444.999995902349
 30
0.0000000001405
 42
0.0
  0
VERTEX
  8
GROUP13
 10
503.303482193391
 20
445.225547170595
 30
0.0000000001405
 42
0.0
  0
VERTEX
  8
GROUP13
 10
503.333773505573
 20
445.449935154927
 30
0.0000000001404
 42
0.0
  0
VERTEX
  8
GROUP13
 10
503.384029417216
 20
445.67201960984
 30
0.0000000001404
 42
0.0
  0
VERTEX
  8
GROUP13
 10
503.453917652773
 20
445.890703239556
 30
0.0000000001404
 42
0.0
  0
VERTEX
  8
GROUP13
 10
503.542994743497
 20
446.104946223841
 30
0.0000000001404
 42
0.0
  0
VERTEX
  8
GROUP13
 10
503.65072266378
 20
446.313774473542
 30
0.0000000001403
 42
0.0
  0
VERTEX
  8
GROUP13
 10
503.776484809917
 20
446.51628209092
 30
0.0000000001403
 42
0.0
  0
VERTEX
  8
GROUP13
 10
503.919599579393
 20
446.711629445227
 30
0.0000000001403
 42
0.0
  0
VERTEX
  8
GROUP13
 10
504.07933074723
 20
446.899038632008
 30
0.0000000001403
 42
0.0
  0
VERTEX
  8
GROUP13
 10
504.25489464969
 20
447.077787952588
 30
0.0000000001403
 42
0.0
  0
VERTEX
  8
GROUP13
 10
504.445464712671
 20
447.247206636476
 30
0.0000000001402
 42
0.0
  0
VERTEX
  8
GROUP13
 10
504.650174089004
 20
447.406670541079
 30
0.0000000001402
 42
0.0
  0
VERTEX
  8
GROUP13
 10
504.868117170008
 20
447.5555991385
 30
0.0000000001402
 42
0.0
  0
VERTEX
  8
GROUP13
 10
505.098350610023
 20
447.693453797551
 30
0.0000000001402
 42
0.0
  0
VERTEX
  8
GROUP13
 10
505.339894330195
 20
447.819737192586
 30
0.0000000001401
 42
0.0
  0
VERTEX
  8
GROUP13
 10
505.591732801424
 20
447.933993592856
 30
0.0000000001401
 42
0.0
  0
VERTEX
  8
GROUP13
 10
505.852816770893
 20
448.035809773288
 30
0.0000000001401
 42
0.0
  0
VERTEX
  8
GROUP13
 10
506.12206549812
 20
448.124816310902
 30
0.0000000001401
 42
0.0
  0
VERTEX
  8
GROUP13
 10
506.39836950131
 20
448.200689069857
 30
0.0000000001401
 42
0.0
  0
VERTEX
  8
GROUP13
 10
506.680593775615
 20
448.26315071984
 30
0.0000000001401
 42
0.0
  0
VERTEX
  8
GROUP13
 10
506.967581423785
 20
448.311972170509
 30
0.00000000014
 42
0.0
  0
VERTEX
  8
GROUP13
 10
507.258157630304
 20
448.346973836545
 30
0.00000000014
 42
0.0
  0
VERTEX
  8
GROUP13
 10
507.551133907464
 20
448.368026673048
 30
0.00000000014
 42
0.0
  0
VERTEX
  8
GROUP13
 10
507.84292444747
 20
448.374995902348
 30
0.00000000014
 42
0.0
  0
VERTEX
  8
GROUP13
 10
508.089721051729
 20
448.374995902348
 30
0.00000000014
 42
0.0
  0
VERTEX
  8
GROUP13
 10
508.325658133485
 20
448.853428975639
 30
0.0000000001399
 42
0.0
  0
VERTEX
  8
GROUP13
 10
508.885731999423
 20
449.691638750921
 30
0.0000000001398
 42
0.0
  0
VERTEX
  8
GROUP13
 10
509.550422686047
 20
450.449573216294
 30
0.0000000001397
 42
0.0
  0
VERTEX
  8
GROUP13
 10
510.30835715142
 20
451.114263902917
 30
0.0000000001397
 42
0.0
  0
VERTEX
  8
GROUP13
 10
511.146566926701
 20
451.674337768855
 30
0.0000000001396
 42
0.0
  0
VERTEX
  8
GROUP13
 10
512.05071001024
 20
452.120211794979
 30
0.0000000001395
 42
0.0
  0
VERTEX
  8
GROUP13
 10
513.005316263202
 20
452.444256953084
 30
0.0000000001394
 42
0.0
  0
VERTEX
  8
GROUP13
 10
513.99405210793
 20
452.640928740672
 30
0.0000000001394
 42
0.0
  0
VERTEX
  8
GROUP13
 10
514.999999999993
 20
452.70686204893
 30
0.0000000001393
 42
0.0
  0
VERTEX
  8
GROUP13
 10
516.005947892056
 20
452.640928740672
 30
0.0000000001393
 42
0.0
  0
VERTEX
  8
GROUP13
 10
516.994683736785
 20
452.444256953084
 30
0.0000000001393
 42
0.0
  0
VERTEX
  8
GROUP13
 10
517.949289989746
 20
452.120211794978
 30
0.0000000001393
 42
0.0
  0
VERTEX
  8
GROUP13
 10
518.853433073285
 20
451.674337768853
 30
0.0000000001393
 42
0.0
  0
VERTEX
  8
GROUP13
 10
519.691642848566
 20
451.114263902915
 30
0.0000000001393
 42
0.0
  0
VERTEX
  8
GROUP13
 10
520.449577313939
 20
450.449573216291
 30
0.0000000001393
 42
0.0
  0
VERTEX
  8
GROUP13
 10
521.114268000562
 20
449.691638750918
 30
0.0000000001393
 42
0.0
  0
VERTEX
  8
GROUP13
 10
521.6743418665
 20
448.853428975636
 30
0.0000000001394
 42
0.0
  0
VERTEX
  8
GROUP13
 10
521.910278948256
 20
448.374995902345
 30
0.0000000001394
 42
0.0
  0
VERTEX
  8
GROUP13
 10
522.157075552514
 20
448.374995902345
 30
0.0000000001394
 42
0.0
  0
VERTEX
  8
GROUP13
 10
522.448866092521
 20
448.368026673044
 30
0.0000000001394
 42
0.0
  0
VERTEX
  8
GROUP13
 10
522.741842369681
 20
448.346973836541
 30
0.0000000001394
 42
0.0
  0
VERTEX
  8
GROUP13
 10
523.0324185762
 20
448.311972170505
 30
0.0000000001394
 42
0.0
  0
VERTEX
  8
GROUP13
 10
523.319406224369
 20
448.263150719836
 30
0.0000000001394
 42
0.0
  0
VERTEX
  8
GROUP13
 10
523.601630498674
 20
448.200689069853
 30
0.0000000001394
 42
0.0
  0
VERTEX
  8
GROUP13
 10
523.877934501864
 20
448.124816310897
 30
0.0000000001394
 42
0.0
  0
VERTEX
  8
GROUP13
 10
524.147183229091
 20
448.035809773284
 30
0.0000000001394
 42
0.0
  0
VERTEX
  8
GROUP13
 10
524.408267198561
 20
447.933993592852
 30
0.0000000001393
 42
0.0
  0
VERTEX
  8
GROUP13
 10
524.660105669789
 20
447.819737192582
 30
0.0000000001393
 42
0.0
  0
VERTEX
  8
GROUP13
 10
524.901649389961
 20
447.693453797547
 30
0.0000000001394
 42
0.0
  0
VERTEX
  8
GROUP13
 10
525.131882829976
 20
447.555599138496
 30
0.0000000001394
 42
0.0
  0
VERTEX
  8
GROUP13
 10
525.34982591098
 20
447.406670541074
 30
0.0000000001394
 42
0.0
  0
VERTEX
  8
GROUP13
 10
525.554535287313
 20
447.247206636471
 30
0.0000000001394
 42
0.0
  0
VERTEX
  8
GROUP13
 10
525.745105350294
 20
447.077787952583
 30
0.0000000001394
 42
0.0
  0
VERTEX
  8
GROUP13
 10
525.920669252753
 20
446.899038632003
 30
0.0000000001394
 42
0.0
  0
VERTEX
  8
GROUP13
 10
526.08040042059
 20
446.711629445222
 30
0.0000000001394
 42
0.0
  0
VERTEX
  8
GROUP13
 10
526.223515190067
 20
446.516282090914
 30
0.0000000001394
 42
0.0
  0
VERTEX
  8
GROUP13
 10
526.349277336204
 20
446.313774473537
 30
0.0000000001394
 42
0.0
  0
VERTEX
  8
GROUP13
 10
526.457005256486
 20
446.104946223835
 30
0.0000000001394
 42
0.0
  0
VERTEX
  8
GROUP13
 10
526.54608234721
 20
445.89070323955
 30
0.0000000001394
 42
0.0
  0
VERTEX
  8
GROUP13
 10
526.615970582768
 20
445.672019609835
 30
0.0000000001395
 42
0.0
  0
VERTEX
  8
GROUP13
 10
526.66622649441
 20
445.449935154922
 30
0.0000000001395
 42
0.0
  0
VERTEX
  8
GROUP13
 10
526.696517806592
 20
445.22554717059
 30
0.0000000001395
 42
0.0
  0
VERTEX
  8
GROUP13
 10
526.706638240836
 20
444.999995902344
 30
0.0000000001395
 42
0.0
  0
VERTEX
  8
GROUP13
 10
526.696517806592
 20
444.774444634097
 30
0.0000000001395
 42
0.0
  0
VERTEX
  8
GROUP13
 10
526.66622649441
 20
444.550056649765
 30
0.0000000001395
 42
0.0
  0
VERTEX
  8
GROUP13
 10
526.615970582768
 20
444.327972194853
 30
0.0000000001396
 42
0.0
  0
VERTEX
  8
GROUP13
 10
526.546082347209
 20
444.109288565137
 30
0.0000000001396
 42
0.0
  0
VERTEX
  8
GROUP13
 10
526.457005256485
 20
443.895045580852
 30
0.0000000001396
 42
0.0
  0
VERTEX
  8
GROUP13
 10
526.349277336203
 20
443.686217331151
 30
0.0000000001396
 42
0.0
  0
VERTEX
  8
GROUP13
 10
526.223515190066
 20
443.483709713773
 30
0.0000000001397
 42
0.0
  0
VERTEX
  8
GROUP13
 10
526.080400420589
 20
443.288362359466
 30
0.0000000001397
 42
0.0
  0
VERTEX
  8
GROUP13
 10
525.920669252753
 20
443.100953172685
 30
0.0000000001397
 42
0.0
  0
VERTEX
  8
GROUP13
 10
525.745105350292
 20
442.922203852105
 30
0.0000000001397
 42
0.0
  0
VERTEX
  8
GROUP13
 10
525.554535287312
 20
442.752785168217
 30
0.0000000001397
 42
0.0
  0
VERTEX
  8
GROUP13
 10
525.349825910979
 20
442.593321263613
 30
0.0000000001398
 42
0.0
  0
VERTEX
  8
GROUP13
 10
525.131882829975
 20
442.444392666192
 30
0.0000000001398
 42
0.0
  0
VERTEX
  8
GROUP13
 10
524.90164938996
 20
442.306538007141
 30
0.0000000001398
 42
0.0
  0
VERTEX
  8
GROUP13
 10
524.660105669787
 20
442.180254612106
 30
0.0000000001398
 42
0.0
  0
VERTEX
  8
GROUP13
 10
524.408267198559
 20
442.065998211837
 30
0.0000000001399
 42
0.0
  0
VERTEX
  8
GROUP13
 10
524.147183229089
 20
441.964182031404
 30
0.0000000001399
 42
0.0
  0
VERTEX
  8
GROUP13
 10
523.877934501863
 20
441.875175493791
 30
0.0000000001399
 42
0.0
  0
VERTEX
  8
GROUP13
 10
523.601630498673
 20
441.799302734836
 30
0.0000000001399
 42
0.0
  0
VERTEX
  8
GROUP13
 10
523.319406224368
 20
441.736841084853
 30
0.0000000001399
 42
0.0
  0
VERTEX
  8
GROUP13
 10
523.032418576198
 20
441.688019634183
 30
0.0000000001399
 42
0.0
  0
VERTEX
  8
GROUP13
 10
522.741842369679
 20
441.653017968148
 30
0.00000000014
 42
0.0
  0
SEQEND
  0
POLYLINE
  8
GROUP13
 66
     1
 10
0.0
 20
0.0
 30
0.0000000001399
 70
     9
  0
VERTEX
  8
GROUP13
 10
761.842924447471
 20
441.62499590232
 30
0.0000000001399
 42
0.0
  0
VERTEX
  8
GROUP13
 10
761.551133907465
 20
441.631965131621
 30
0.0000000001399
 42
0.0
  0
VERTEX
  8
GROUP13
 10
761.258157630305
 20
441.653017968124
 30
0.0000000001399
 42
0.0
  0
VERTEX
  8
GROUP13
 10
760.967581423786
 20
441.68801963416
 30
0.0000000001398
 42
0.0
  0
VERTEX
  8
GROUP13
 10
760.680593775616
 20
441.736841084829
 30
0.0000000001398
 42
0.0
  0
VERTEX
  8
GROUP13
 10
760.398369501311
 20
441.799302734812
 30
0.0000000001398
 42
0.0
  0
VERTEX
  8
GROUP13
 10
760.122065498121
 20
441.875175493768
 30
0.0000000001398
 42
0.0
  0
VERTEX
  8
GROUP13
 10
759.852816770894
 20
441.964182031381
 30
0.0000000001398
 42
0.0
  0
VERTEX
  8
GROUP13
 10
759.591732801425
 20
442.065998211814
 30
0.0000000001398
 42
0.0
  0
VERTEX
  8
GROUP13
 10
759.339894330197
 20
442.180254612083
 30
0.0000000001397
 42
0.0
  0
VERTEX
  8
GROUP13
 10
759.098350610025
 20
442.306538007118
 30
0.0000000001397
 42
0.0
  0
VERTEX
  8
GROUP13
 10
758.868117170009
 20
442.444392666169
 30
0.0000000001397
 42
0.0
  0
VERTEX
  8
GROUP13
 10
758.650174089005
 20
442.593321263591
 30
0.0000000001397
 42
0.0
  0
VERTEX
  8
GROUP13
 10
758.445464712672
 20
442.752785168194
 30
0.0000000001397
 42
0.0
  0
VERTEX
  8
GROUP13
 10
758.254894649692
 20
442.922203852082
 30
0.0000000001396
 42
0.0
  0
VERTEX
  8
GROUP13
 10
758.079330747232
 20
443.100953172662
 30
0.0000000001396
 42
0.0
  0
VERTEX
  8
GROUP13
 10
757.919599579395
 20
443.288362359443
 30
0.0000000001396
 42
0.0
  0
VERTEX
  8
GROUP13
 10
757.776484809919
 20
443.483709713751
 30
0.0000000001396
 42
0.0
  0
VERTEX
  8
GROUP13
 10
757.650722663782
 20
443.686217331128
 30
0.0000000001395
 42
0.0
  0
VERTEX
  8
GROUP13
 10
757.5429947435
 20
443.89504558083
 30
0.0000000001395
 42
0.0
  0
VERTEX
  8
GROUP13
 10
757.453917652775
 20
444.109288565115
 30
0.0000000001395
 42
0.0
  0
VERTEX
  8
GROUP13
 10
757.384029417218
 20
444.32797219483
 30
0.0000000001395
 42
0.0
  0
VERTEX
  8
GROUP13
 10
757.333773505575
 20
444.550056649743
 30
0.0000000001395
 42
0.0
  0
VERTEX
  8
GROUP13
 10
757.303482193393
 20
444.774444634075
 30
0.0000000001394
 42
0.0
  0
VERTEX
  8
GROUP13
 10
757.29336175915
 20
444.999995902321
 30
0.0000000001394
 42
0.0
  0
VERTEX
  8
GROUP13
 10
757.303482193393
 20
445.225547170568
 30
0.0000000001394
 42
0.0
  0
VERTEX
  8
GROUP13
 10
757.333773505575
 20
445.4499351549
 30
0.0000000001394
 42
0.0
  0
VERTEX
  8
GROUP13
 10
757.384029417218
 20
445.672019609812
 30
0.0000000001394
 42
0.0
  0
VERTEX
  8
GROUP13
 10
757.453917652776
 20
445.890703239528
 30
0.0000000001393
 42
0.0
  0
VERTEX
  8
GROUP13
 10
757.5429947435
 20
446.104946223813
 30
0.0000000001393
 42
0.0
  0
VERTEX
  8
GROUP13
 10
757.650722663782
 20
446.313774473514
 30
0.0000000001393
 42
0.0
  0
VERTEX
  8
GROUP13
 10
757.776484809919
 20
446.516282090892
 30
0.0000000001393
 42
0.0
  0
VERTEX
  8
GROUP13
 10
757.919599579396
 20
446.711629445199
 30
0.0000000001393
 42
0.0
  0
VERTEX
  8
GROUP13
 10
758.079330747233
 20
446.89903863198
 30
0.0000000001393
 42
0.0
  0
VERTEX
  8
GROUP13
 10
758.254894649693
 20
447.07778795256
 30
0.0000000001393
 42
0.0
  0
VERTEX
  8
GROUP13
 10
758.445464712673
 20
447.247206636448
 30
0.0000000001393
 42
0.0
  0
VERTEX
  8
GROUP13
 10
758.650174089006
 20
447.406670541051
 30
0.0000000001393
 42
0.0
  0
VERTEX
  8
GROUP13
 10
758.86811717001
 20
447.555599138473
 30
0.0000000001393
 42
0.0
  0
VERTEX
  8
GROUP13
 10
759.098350610026
 20
447.693453797524
 30
0.0000000001393
 42
0.0
  0
VERTEX
  8
GROUP13
 10
759.339894330198
 20
447.819737192559
 30
0.0000000001393
 42
0.0
  0
VERTEX
  8
GROUP13
 10
759.591732801426
 20
447.933993592828
 30
0.0000000001393
 42
0.0
  0
VERTEX
  8
GROUP13
 10
759.852816770896
 20
448.035809773261
 30
0.0000000001393
 42
0.0
  0
VERTEX
  8
GROUP13
 10
760.122065498123
 20
448.124816310874
 30
0.0000000001393
 42
0.0
  0
VERTEX
  8
GROUP13
 10
760.398369501313
 20
448.200689069829
 30
0.0000000001393
 42
0.0
  0
VERTEX
  8
GROUP13
 10
760.680593775618
 20
448.263150719812
 30
0.0000000001393
 42
0.0
  0
VERTEX
  8
GROUP13
 10
760.967581423787
 20
448.311972170482
 30
0.0000000001393
 42
0.0
  0
VERTEX
  8
GROUP13
 10
761.258157630306
 20
448.346973836517
 30
0.0000000001393
 42
0.0
  0
VERTEX
  8
GROUP13
 10
761.551133907466
 20
448.36802667302
 30
0.0000000001393
 42
0.0
  0
VERTEX
  8
GROUP13
 10
761.842924447473
 20
448.37499590232
 30
0.0000000001393
 42
0.0
  0
VERTEX
  8
GROUP13
 10
762.089721051731
 20
448.37499590232
 30
0.0000000001393
 42
0.0
  0
VERTEX
  8
GROUP13
 10
762.325658133487
 20
448.853428975612
 30
0.0000000001393
 42
0.0
  0
VERTEX
  8
GROUP13
 10
762.885731999426
 20
449.691638750893
 30
0.0000000001392
 42
0.0
  0
VERTEX
  8
GROUP13
 10
763.550422686049
 20
450.449573216266
 30
0.0000000001392
 42
0.0
  0
VERTEX
  8
GROUP13
 10
764.308357151422
 20
451.114263902889
 30
0.0000000001392
 42
0.0
  0
VERTEX
  8
GROUP13
 10
765.146566926704
 20
451.674337768827
 30
0.0000000001392
 42
0.0
  0
VERTEX
  8
GROUP13
 10
766.050710010243
 20
452.120211794952
 30
0.0000000001392
 42
0.0
  0
VERTEX
  8
GROUP13
 10
767.005316263204
 20
452.444256953057
 30
0.0000000001392
 42
0.0
  0
VERTEX
  8
GROUP13
 10
767.994052107932
 20
452.640928740645
 30
0.0000000001392
 42
0.0
  0
VERTEX
  8
GROUP13
 10
768.999999999996
 20
452.706862048902
 30
0.0000000001392
 42
0.0
  0
VERTEX
  8
GROUP13
 10
770.005947892059
 20
452.640928740644
 30
0.0000000001393
 42
0.0
  0
VERTEX
  8
GROUP13
 10
770.994683736787
 20
452.444256953056
 30
0.0000000001393
 42
0.0
  0
VERTEX
  8
GROUP13
 10
771.949289989748
 20
452.120211794951
 30
0.0000000001394
 42
0.0
  0
VERTEX
  8
GROUP13
 10
772.853433073287
 20
451.674337768825
 30
0.0000000001395
 42
0.0
  0
VERTEX
  8
GROUP13
 10
773.691642848568
 20
451.114263902887
 30
0.0000000001396
 42
0.0
  0
VERTEX
  8
GROUP13
 10
774.449577313941
 20
450.449573216264
 30
0.0000000001396
 42
0.0
  0
VERTEX
  8
GROUP13
 10
775.114268000564
 20
449.69163875089
 30
0.0000000001397
 42
0.0
  0
VERTEX
  8
GROUP13
 10
775.674341866502
 20
448.853428975609
 30
0.0000000001398
 42
0.0
  0
VERTEX
  8
GROUP13
 10
775.910278948258
 20
448.374995902317
 30
0.0000000001399
 42
0.0
  0
VERTEX
  8
GROUP13
 10
776.157075552517
 20
448.374995902317
 30
0.0000000001399
 42
0.0
  0
VERTEX
  8
GROUP13
 10
776.448866092523
 20
448.368026673017
 30
0.0000000001399
 42
0.0
  0
VERTEX
  8
GROUP13
 10
776.741842369683
 20
448.346973836514
 30
0.0000000001399
 42
0.0
  0
VERTEX
  8
GROUP13
 10
777.032418576202
 20
448.311972170478
 30
0.0000000001399
 42
0.0
  0
VERTEX
  8
GROUP13
 10
777.319406224372
 20
448.263150719808
 30
0.0000000001399
 42
0.0
  0
VERTEX
  8
GROUP13
 10
777.601630498677
 20
448.200689069825
 30
0.00000000014
 42
0.0
  0
VERTEX
  8
GROUP13
 10
777.877934501867
 20
448.12481631087
 30
0.00000000014
 42
0.0
  0
VERTEX
  8
GROUP13
 10
778.147183229093
 20
448.035809773257
 30
0.00000000014
 42
0.0
  0
VERTEX
  8
GROUP13
 10
778.408267198563
 20
447.933993592824
 30
0.00000000014
 42
0.0
  0
VERTEX
  8
GROUP13
 10
778.660105669791
 20
447.819737192554
 30
0.00000000014
 42
0.0
  0
VERTEX
  8
GROUP13
 10
778.901649389964
 20
447.693453797519
 30
0.0000000001401
 42
0.0
  0
VERTEX
  8
GROUP13
 10
779.131882829979
 20
447.555599138468
 30
0.0000000001401
 42
0.0
  0
VERTEX
  8
GROUP13
 10
779.349825910983
 20
447.406670541047
 30
0.0000000001401
 42
0.0
  0
VERTEX
  8
GROUP13
 10
779.554535287315
 20
447.247206636443
 30
0.0000000001401
 42
0.0
  0
VERTEX
  8
GROUP13
 10
779.745105350296
 20
447.077787952555
 30
0.0000000001401
 42
0.0
  0
VERTEX
  8
GROUP13
 10
779.920669252756
 20
446.899038631975
 30
0.0000000001402
 42
0.0
  0
VERTEX
  8
GROUP13
 10
780.080400420593
 20
446.711629445194
 30
0.0000000001402
 42
0.0
  0
VERTEX
  8
GROUP13
 10
780.223515190069
 20
446.516282090887
 30
0.0000000001402
 42
0.0
  0
VERTEX
  8
GROUP13
 10
780.349277336206
 20
446.313774473509
 30
0.0000000001402
 42
0.0
  0
VERTEX
  8
GROUP13
 10
780.457005256488
 20
446.104946223808
 30
0.0000000001403
 42
0.0
  0
VERTEX
  8
GROUP13
 10
780.546082347212
 20
445.890703239523
 30
0.0000000001403
 42
0.0
  0
VERTEX
  8
GROUP13
 10
780.61597058277
 20
445.672019609807
 30
0.0000000001403
 42
0.0
  0
VERTEX
  8
GROUP13
 10
780.666226494413
 20
445.449935154894
 30
0.0000000001403
 42
0.0
  0
VERTEX
  8
GROUP13
 10
780.696517806595
 20
445.225547170562
 30
0.0000000001403
 42
0.0
  0
VERTEX
  8
GROUP13
 10
780.706638240838
 20
444.999995902316
 30
0.0000000001404
 42
0.0
  0
VERTEX
  8
GROUP13
 10
780.696517806595
 20
444.77444463407
 30
0.0000000001404
 42
0.0
  0
VERTEX
  8
GROUP13
 10
780.666226494413
 20
444.550056649738
 30
0.0000000001404
 42
0.0
  0
VERTEX
  8
GROUP13
 10
780.61597058277
 20
444.327972194825
 30
0.0000000001404
 42
0.0
  0
VERTEX
  8
GROUP13
 10
780.546082347212
 20
444.109288565109
 30
0.0000000001404
 42
0.0
  0
VERTEX
  8
GROUP13
 10
780.457005256488
 20
443.895045580824
 30
0.0000000001404
 42
0.0
  0
VERTEX
  8
GROUP13
 10
780.349277336206
 20
443.686217331123
 30
0.0000000001405
 42
0.0
  0
VERTEX
  8
GROUP13
 10
780.223515190069
 20
443.483709713745
 30
0.0000000001405
 42
0.0
  0
VERTEX
  8
GROUP13
 10
780.080400420592
 20
443.288362359438
 30
0.0000000001405
 42
0.0
  0
VERTEX
  8
GROUP13
 10
779.920669252755
 20
443.100953172657
 30
0.0000000001405
 42
0.0
  0
VERTEX
  8
GROUP13
 10
779.745105350295
 20
442.922203852077
 30
0.0000000001405
 42
0.0
  0
VERTEX
  8
GROUP13
 10
779.554535287314
 20
442.752785168189
 30
0.0000000001405
 42
0.0
  0
VERTEX
  8
GROUP13
 10
779.349825910982
 20
442.593321263586
 30
0.0000000001405
 42
0.0
  0
VERTEX
  8
GROUP13
 10
779.131882829978
 20
442.444392666165
 30
0.0000000001405
 42
0.0
  0
VERTEX
  8
GROUP13
 10
778.901649389962
 20
442.306538007113
 30
0.0000000001405
 42
0.0
  0
VERTEX
  8
GROUP13
 10
778.66010566979
 20
442.180254612079
 30
0.0000000001405
 42
0.0
  0
VERTEX
  8
GROUP13
 10
778.408267198562
 20
442.065998211809
 30
0.0000000001405
 42
0.0
  0
VERTEX
  8
GROUP13
 10
778.147183229092
 20
441.964182031377
 30
0.0000000001405
 42
0.0
  0
VERTEX
  8
GROUP13
 10
777.877934501865
 20
441.875175493763
 30
0.0000000001405
 42
0.0
  0
VERTEX
  8
GROUP13
 10
777.601630498675
 20
441.799302734808
 30
0.0000000001405
 42
0.0
  0
VERTEX
  8
GROUP13
 10
777.31940622437
 20
441.736841084826
 30
0.0000000001405
 42
0.0
  0
VERTEX
  8
GROUP13
 10
777.032418576201
 20
441.688019634156
 30
0.0000000001405
 42
0.0
  0
VERTEX
  8
GROUP13
 10
776.741842369682
 20
441.65301796812
 30
0.0000000001405
 42
0.0
  0
VERTEX
  8
GROUP13
 10
776.448866092522
 20
441.631965131617
 30
0.0000000001405
 42
0.0
  0
VERTEX
  8
GROUP13
 10
776.157075552515
 20
441.624995902317
 30
0.0000000001405
 42
0.0
  0
VERTEX
  8
GROUP13
 10
775.910278948256
 20
441.624995902317
 30
0.0000000001405
 42
0.0
  0
VERTEX
  8
GROUP13
 10
775.674341866501
 20
441.146562829025
 30
0.0000000001405
 42
0.0
  0
VERTEX
  8
GROUP13
 10
775.114268000562
 20
440.308353053744
 30
0.0000000001405
 42
0.0
  0
VERTEX
  8
GROUP13
 10
774.449577313939
 20
439.550418588371
 30
0.0000000001406
 42
0.0
  0
VERTEX
  8
GROUP13
 10
773.691642848565
 20
438.885727901748
 30
0.0000000001406
 42
0.0
  0
VERTEX
  8
GROUP13
 10
772.853433073284
 20
438.32565403581
 30
0.0000000001406
 42
0.0
  0
VERTEX
  8
GROUP13
 10
771.949289989745
 20
437.879780009686
 30
0.0000000001406
 42
0.0
  0
VERTEX
  8
GROUP13
 10
770.994683736784
 20
437.55573485158
 30
0.0000000001406
 42
0.0
  0
VERTEX
  8
GROUP13
 10
770.005947892055
 20
437.359063063993
 30
0.0000000001406
 42
0.0
  0
VERTEX
  8
GROUP13
 10
768.999999999992
 20
437.293129755735
 30
0.0000000001405
 42
0.0
  0
VERTEX
  8
GROUP13
 10
767.994052107929
 20
437.359063063993
 30
0.0000000001405
 42
0.0
  0
VERTEX
  8
GROUP13
 10
767.0053162632
 20
437.555734851581
 30
0.0000000001404
 42
0.0
  0
VERTEX
  8
GROUP13
 10
766.05071001024
 20
437.879780009687
 30
0.0000000001404
 42
0.0
  0
VERTEX
  8
GROUP13
 10
765.146566926701
 20
438.325654035812
 30
0.0000000001403
 42
0.0
  0
VERTEX
  8
GROUP13
 10
764.30835715142
 20
438.88572790175
 30
0.0000000001402
 42
0.0
  0
VERTEX
  8
GROUP13
 10
763.550422686047
 20
439.550418588374
 30
0.0000000001401
 42
0.0
  0
VERTEX
  8
GROUP13
 10
762.885731999424
 20
440.308353053747
 30
0.00000000014
 42
0.0
  0
VERTEX
  8
GROUP13
 10
762.325658133486
 20
441.146562829028
 30
0.0000000001399
 42
0.0
  0
VERTEX
  8
GROUP13
 10
762.08972105173
 20
441.62499590232
 30
0.0000000001399
 42
0.0
  0
SEQEND
  0
POLYLINE
  8
GROUP13
 66
     1
 10
0.0
 20
0.0
 30
0.0000000001366
 70
     9
  0
VERTEX
  8
GROUP13
 10
784.000000000006
 20
496.999995902316
 30
0.0000000001366
 42
0.0
  0
VERTEX
  8
GROUP13
 10
783.999999999999
 20
466.999995902319
 30
0.0000000001394
 42
0.0
  0
VERTEX
  8
GROUP13
 10
771.299999999991
 20
466.999995902322
 30
0.000000000139
 42
0.0
  0
VERTEX
  8
GROUP13
 10
771.299999999998
 20
496.999995902319
 30
0.0000000001366
 42
0.0
  0
SEQEND
  0
POLYLINE
  8
GROUP13
 66
     1
 10
0.0
 20
0.0
 30
0.0000000001393
 70
     9
  0
VERTEX
  8
GROUP13
 10
549.825000023646
 20
466.999995902352
 30
0.0000000001393
 42
0.0
  0
VERTEX
  8
GROUP13
 10
543.825000023648
 20
466.999995902353
 30
0.0000000001391
 42
0.0
  0
VERTEX
  8
GROUP13
 10
543.825000023652
 20
496.99999590235
 30
0.0000000001368
 42
0.0
  0
VERTEX
  8
GROUP13
 10
549.82500002365
 20
496.999995902349
 30
0.0000000001368
 42
0.0
  0
SEQEND
  0
ENDSEC
  0
EOF
